<svg viewBox="0 0 50 50" xmlns="http://www.w3.org/2000/svg"><path d="M0 0v49.998h50V0z" fill="#3e8ed0"/><path d="M12.783 14.656c-5.176.046-9.79 4.977-8.4 11.501 1.059 4.974 6.562 11.442 16.163 17.71 9.6-6.268 15.104-12.736 16.163-17.71 1.39-6.524-3.224-11.455-8.4-11.5-2.661-.04-5.99 1.314-7.763 4.584-1.774-3.27-5.102-4.624-7.763-4.585z" fill="#fff"/><path d="M16.707 16.461L14.945 34.4l6.259-4.343-1.08 8.009-1.944-.658 2.32 5.204 3.891-4.162h-1.944l3.305-14.39-7.502 5.227 1.987-8.912-.416-.768a7.85 7.85 0 00-3.114-3.146z" fill="#3e8ed0"/><path d="M38.533 2.492V6.61h-4.267v4.117h4.267v4.117H42.8v-4.117h4.267V6.61H42.8V2.492z" fill="#fff"/></svg>