<svg viewBox="0 0 50 50" xmlns="http://www.w3.org/2000/svg"><path d="M0 0v49.998h50.002V0z" fill="#7a7a7a"/><path d="M12.785 14.656c-5.177.046-9.79 4.977-8.401 11.5 1.059 4.974 6.562 11.442 16.163 17.711 9.601-6.269 15.105-12.736 16.164-17.71 1.39-6.524-3.224-11.455-8.4-11.5-2.662-.04-5.99 1.313-7.764 4.584-1.773-3.27-5.102-4.624-7.762-4.585z" fill="#fff"/><path d="M16.708 16.461L14.946 34.4l6.259-4.343-1.079 8.01-1.945-.658 2.32 5.204 3.892-4.163h-1.945l3.305-14.389-7.502 5.226 1.988-8.911-.417-.769a7.85 7.85 0 00-3.114-3.145z" fill="#7a7a7a"/><path d="M38.535 2.492V6.61h-4.267v4.117h4.267v4.117h4.267v-4.117h4.267V6.61h-4.267V2.492z" fill="#fff"/></svg>