<?xml version="1.0" encoding="UTF-8"?>
<svg version="1.1" viewBox="0 0 50 50" xmlns="http://www.w3.org/2000/svg">
 <g transform="matrix(.24911 0 0 .23973 -32.095 -1.431)">
  <path d="m128.84 5.9689v208.56h200.72l1e-5 -208.56z" fill="#7a7a7a"/>
  <path d="m180.16 67.105c-20.782 0.19075-39.3 20.759-33.723 47.974 4.2515 20.746 26.344 47.726 64.885 73.877 38.541-26.151 60.634-53.13 64.885-73.877 5.5771-27.215-12.941-47.783-33.723-47.974-10.681-0.16377-24.041 5.4829-31.162 19.124-7.1209-13.641-20.481-19.287-31.162-19.124z" fill="#fff"/>
  <path d="m195.91 74.635-7.0741 74.826 25.126-18.116-4.3317 33.408-7.807-2.7414 9.3141 21.708 15.622-17.365h-7.807l13.267-60.021-30.116 21.799 7.98-37.174-1.6718-3.2038c-3.1497-6.0335-7.6375-10.315-12.501-13.121z" fill="#7a7a7a"/>
  <path d="m283.53 16.365v17.175h-17.129v17.175h17.129v17.175h17.129v-17.175h17.129v-17.175h-17.129v-17.175z" fill="#fff"/>
 </g>
</svg>
