<?xml version="1.0" encoding="UTF-8" standalone="no"?>
<svg
   width="64"
   height="64"
   viewBox="0 0 64 64"
   version="1.1"
   id="svg1"
   sodipodi:docname="logo-aed-with-bg.svg"
   inkscape:export-filename="logo-aed-512.png"
   inkscape:export-xdpi="768"
   inkscape:export-ydpi="768"
   inkscape:version="1.3 (0e150ed6c4, 2023-07-21)"
   xmlns:inkscape="http://www.inkscape.org/namespaces/inkscape"
   xmlns:sodipodi="http://sodipodi.sourceforge.net/DTD/sodipodi-0.dtd"
   xmlns="http://www.w3.org/2000/svg"
   xmlns:svg="http://www.w3.org/2000/svg">
  <defs
     id="defs1" />
  <sodipodi:namedview
     id="namedview1"
     pagecolor="#ffffff"
     bordercolor="#111111"
     borderopacity="1"
     inkscape:showpageshadow="0"
     inkscape:pageopacity="0"
     inkscape:pagecheckerboard="1"
     inkscape:deskcolor="#d1d1d1"
     inkscape:zoom="12.703125"
     inkscape:cx="31.96064"
     inkscape:cy="32"
     inkscape:window-width="1856"
     inkscape:window-height="1011"
     inkscape:window-x="64"
     inkscape:window-y="32"
     inkscape:window-maximized="1"
     inkscape:current-layer="layer1" />
  <g
     inkscape:groupmode="layer"
     id="layer1"
     inkscape:label="background">
    <rect
       style="fill:#009140;stroke-width:0.32126;fill-opacity:1"
       id="rect1"
       width="64"
       height="64"
       x="0"
       y="0" />
  </g>
  <g
     fill="#fff"
     id="g1">
    <path
       d="M16.283 18.614c-6.594.058-12.469 6.32-10.7 14.606 1.35 6.317 8.359 14.53 20.587 22.493C38.4 47.75 45.41 39.537 46.758 33.22c1.77-8.286-4.106-14.548-10.7-14.606-3.39-.05-7.628 1.67-9.888 5.822-2.259-4.153-6.498-5.872-9.887-5.822zm4.996 2.292a9.981 9.981 0 013.966 3.995l.531.975-2.532 11.319 9.556-6.637-4.21 18.274h2.477l-4.956 5.287-2.956-6.61 2.478.835 1.374-10.172-7.972 5.516 2.244-22.782zM49.08 3.165v5.23h-5.434v5.228h5.435v5.23h5.434v-5.23h5.435V8.394h-5.435V3.165z"
       id="path1" />
  </g>
</svg>
