<svg xmlns="http://www.w3.org/2000/svg" viewBox="10 10 135 40"><defs><linearGradient id="a" x1="31.8" y1="183.29" x2="15.02" y2="166.51" gradientTransform="matrix(1 0 0 -1 0 202)" gradientUnits="userSpaceOnUse"><stop offset="0" stop-color="#00a0ff"/><stop offset=".01" stop-color="#00a1ff"/><stop offset=".26" stop-color="#00beff"/><stop offset=".51" stop-color="#00d2ff"/><stop offset=".76" stop-color="#00dfff"/><stop offset="1" stop-color="#00e3ff"/></linearGradient><linearGradient id="b" x1="43.83" y1="172" x2="19.64" y2="172" gradientTransform="matrix(1 0 0 -1 0 202)" gradientUnits="userSpaceOnUse"><stop offset="0" stop-color="#ffe000"/><stop offset=".41" stop-color="#ffbd00"/><stop offset=".78" stop-color="orange"/><stop offset="1" stop-color="#ff9c00"/></linearGradient><linearGradient id="c" x1="34.83" y1="169.7" x2="12.07" y2="146.95" gradientTransform="matrix(1 0 0 -1 0 202)" gradientUnits="userSpaceOnUse"><stop offset="0" stop-color="#ff3a44"/><stop offset="1" stop-color="#c31162"/></linearGradient><linearGradient id="d" x1="17.3" y1="191.82" x2="27.46" y2="181.66" gradientTransform="matrix(1 0 0 -1 0 202)" gradientUnits="userSpaceOnUse"><stop offset="0" stop-color="#32a071"/><stop offset=".07" stop-color="#2da771"/><stop offset=".48" stop-color="#15cf74"/><stop offset=".8" stop-color="#06e775"/><stop offset="1" stop-color="#00f076"/></linearGradient></defs><path fill="none" d="M0 0h155v60H0z"/><rect x="10" y="10" width="135" height="40" rx="5" ry="5"/><path d="M140 10.8a4.2 4.2 0 014.2 4.2v30a4.2 4.2 0 01-4.2 4.2H15a4.2 4.2 0 01-4.2-4.2V15a4.2 4.2 0 014.2-4.2h125m0-.8H15a5 5 0 00-5 5v30a5 5 0 005 5h125a5 5 0 005-5V15a5 5 0 00-5-5z" fill="#a6a6a6"/><path d="M78.14 31.75A4.25 4.25 0 1082.41 36a4.19 4.19 0 00-4.27-4.25zm0 6.83a2.58 2.58 0 112.4-2.58 2.46 2.46 0 01-2.4 2.58zm-9.31-6.83A4.25 4.25 0 1073.09 36a4.19 4.19 0 00-4.27-4.25zm0 6.83A2.58 2.58 0 1171.22 36a2.46 2.46 0 01-2.4 2.58zm-11.09-5.52v1.8h4.32a3.77 3.77 0 01-1 2.27 4.42 4.42 0 01-3.33 1.32 4.8 4.8 0 010-9.6A4.6 4.6 0 0161 30.14l1.27-1.27A6.29 6.29 0 0057.74 27a6.61 6.61 0 100 13.21 6 6 0 004.61-1.85 6 6 0 001.56-4.22 5.87 5.87 0 00-.1-1.13zm45.31 1.4a4 4 0 00-3.64-2.71 4 4 0 00-4 4.25 4.16 4.16 0 004.22 4.25 4.23 4.23 0 003.54-1.88l-1.45-1a2.43 2.43 0 01-2.09 1.18 2.16 2.16 0 01-2.06-1.29l5.69-2.35zm-5.8 1.42a2.33 2.33 0 012.22-2.48 1.65 1.65 0 011.58.9zM92.63 40h1.87V27.5h-1.87zm-3.06-7.3h-.07a3 3 0 00-2.24-1 4.26 4.26 0 000 8.51 2.9 2.9 0 002.24-1h.06v.61c0 1.63-.87 2.5-2.27 2.5a2.35 2.35 0 01-2.14-1.51l-1.63.68A4.05 4.05 0 0087.29 44c2.19 0 4-1.29 4-4.43V32h-1.72zm-2.14 5.88a2.59 2.59 0 010-5.16A2.4 2.4 0 0189.7 36a2.38 2.38 0 01-2.28 2.58zm24.38-11.08h-4.47V40h1.87v-4.74h2.61a3.89 3.89 0 100-7.76zm0 6h-2.61v-4.26h2.65a2.14 2.14 0 110 4.29zm11.53-1.8a3.5 3.5 0 00-3.33 1.91l1.66.69a1.77 1.77 0 011.7-.92 1.8 1.8 0 012 1.61v.13a4.13 4.13 0 00-1.95-.48c-1.79 0-3.6 1-3.6 2.81a2.89 2.89 0 003.1 2.75 2.63 2.63 0 002.4-1.2h.06v1h1.8v-4.81c0-2.19-1.66-3.46-3.79-3.46zm-.23 6.85c-.61 0-1.46-.31-1.46-1.06 0-1 1.06-1.33 2-1.33a3.32 3.32 0 011.7.42 2.26 2.26 0 01-2.19 2zM133.74 32l-2.14 5.42h-.06L129.32 32h-2l3.33 7.58-1.9 4.21h1.95L135.82 32zm-16.81 8h1.87V27.5h-1.87z" fill="#fff"/><path d="M20.44 17.54a2 2 0 00-.46 1.4v22.12a2 2 0 00.46 1.4l.07.07L32.9 30.15v-.29L20.51 17.47z" fill="url(#a)"/><path d="M37 34.28l-4.1-4.13v-.29l4.1-4.14.09.05L42 28.56c1.4.79 1.4 2.09 0 2.89l-4.89 2.78z" fill="url(#b)"/><path d="M37.12 34.22L32.9 30 20.44 42.46a1.63 1.63 0 002.08.06l14.61-8.3" fill="url(#c)"/><path d="M37.12 25.78l-14.61-8.3a1.63 1.63 0 00-2.08.06L32.9 30z" fill="url(#d)"/><path d="M37 34.13l-14.49 8.25a1.67 1.67 0 01-2 0l-.07.07.07.07a1.66 1.66 0 002 0l14.61-8.3z" style="isolation:isolate" opacity=".2"/><path d="M20.44 42.32a2 2 0 01-.46-1.4v.15a2 2 0 00.46 1.4l.07-.07zM42 31.3l-5 2.83.09.09L42 31.44A1.75 1.75 0 0043 30a1.86 1.86 0 01-1 1.3z" style="isolation:isolate" opacity=".12"/><path d="M22.51 17.62L42 28.7a1.86 1.86 0 011 1.3 1.75 1.75 0 00-1-1.44L22.51 17.48c-1.4-.79-2.54-.13-2.54 1.47v.15c.03-1.61 1.15-2.27 2.54-1.48z" style="isolation:isolate" fill="#fff" opacity=".25"/><path d="M80.43 24.51A2 2 0 0179 24a2.1 2.1 0 01-.53-1.53 4.18 4.18 0 010-.6c0-.19.09-.46.17-.82l.4.1a3.3 3.3 0 00-.12.78 1.81 1.81 0 00.4 1.25 1.43 1.43 0 001.12.45 3.67 3.67 0 001.63-.4 2.2 2.2 0 001.08-1 6.73 6.73 0 01-.72-2.1.88.88 0 01.16-.52 1.8 1.8 0 01.56-.47q0 .39.25 1.42a1.77 1.77 0 00.8.18.08.08 0 01.09.09v.66a.08.08 0 01-.09.09 1.59 1.59 0 01-.67-.13v.32a2.23 2.23 0 01-.43 1.29 3.23 3.23 0 01-1.18 1 3.28 3.28 0 01-1.49.45zm.88-6a5.59 5.59 0 01-.71.81 6.81 6.81 0 01-.79-.71q.56-.56.77-.81a9 9 0 00.72.7z" fill="#fff" stroke="#fff" stroke-miterlimit="10" stroke-width=".2"/><path d="M84.28 21.63a.08.08 0 01-.09-.09v-.66a.08.08 0 01.09-.09 1.2 1.2 0 00.71-.2 1.63 1.63 0 00.5-.62l.22-.44a4.13 4.13 0 01.83-1.27 1.29 1.29 0 01.89-.37.87.87 0 01.64.39 3 3 0 01.52 1 3.93 3.93 0 01.2 1.19 1.49 1.49 0 01-.12.61 1.48 1.48 0 01-.43.53 5.91 5.91 0 01-1.41-.18 4.71 4.71 0 01-1.26-.43 1.46 1.46 0 01-1.29.66zm3.7-.84a4 4 0 00-.26-1.31q-.24-.62-.47-.62a.69.69 0 00-.39.12 1.5 1.5 0 00-.37.38 7.67 7.67 0 00-.49.87 5.28 5.28 0 002 .56zm6.8.41a7.47 7.47 0 01-.83-.1 3.4 3.4 0 01-.47-.15 3.8 3.8 0 01-.5-.24 1.76 1.76 0 01-.39-.28.38.38 0 01-.13-.25 1.57 1.57 0 01.15-.5 4.81 4.81 0 01.24-.52 2.44 2.44 0 01.73-.71 5.7 5.7 0 011.19-.65v-.3a4.27 4.27 0 01.8-.57l.1 3.57a2.23 2.23 0 001.14.29.08.08 0 01.09.09v.66a.08.08 0 01-.09.09 2.06 2.06 0 01-1.08-.25 1 1 0 01-.48-.71v-.23zM93 19.67a2.28 2.28 0 001 .5 5.71 5.71 0 001.19.13l-.28-1.77A4 4 0 0093 19.67z" fill="#fff" stroke="#fff" stroke-miterlimit="10" stroke-width=".2"/><path d="M99.77 19.12a.45.45 0 01.27.09q-.2.48-.35.8a3 3 0 01-.18.36 2.68 2.68 0 00.69.33 2.51 2.51 0 00.7.09.08.08 0 01.09.09v.66a.08.08 0 01-.09.09 2.54 2.54 0 01-1.74-.63l-.18.24a1.94 1.94 0 01-.8.26 6.71 6.71 0 01-1.35.14.08.08 0 01-.09-.09v-.66a.08.08 0 01.09-.09 9.55 9.55 0 001.17-.07 1.54 1.54 0 00.67-.2 2.93 2.93 0 00.58-.88l.19-.35a.35.35 0 01.33-.18zm-1 3.89a4.3 4.3 0 01-.65.75 5.86 5.86 0 01-.73-.67q.29-.27.71-.74zm1.66-.16a4.29 4.29 0 01-.66.75 5.42 5.42 0 01-.73-.67q.25-.23.71-.74z" fill="#fff" stroke="#fff" stroke-miterlimit="10" stroke-width=".2"/><path d="M101.07 21.63a.08.08 0 01-.09-.09v-.66a.08.08 0 01.09-.09 2.7 2.7 0 001.2-.28q-.15-1.16-.35-4.18l-.11-1.47a4.43 4.43 0 01.74-.61q.07 1.51.11 4.74v1.51a2.23 2.23 0 001.14.29c.06 0 .1 0 .1.09v.66c0 .06 0 .09-.1.09a1.88 1.88 0 01-1.26-.39 3.11 3.11 0 01-.72.31 3.25 3.25 0 01-.75.08z" fill="#fff" stroke="#fff" stroke-miterlimit="10" stroke-width=".2"/><path d="M103.9 21.63a.08.08 0 01-.09-.09v-.66a.08.08 0 01.09-.09h1.37a1.6 1.6 0 01-.46-.47 1.15 1.15 0 01-.2-.64 2.22 2.22 0 01.25-1 2.39 2.39 0 01.66-.83 1.35 1.35 0 01.84-.32 1.51 1.51 0 01.73.19 4.81 4.81 0 01.81.59l-.19.35a5 5 0 00-.63-.21 2.06 2.06 0 00-.44 0 2.94 2.94 0 00-1.41.4 1.64 1.64 0 00.89 1.49 2.4 2.4 0 001 .27 7.69 7.69 0 00.8-.21q.38-.12 1.07-.39a.51.51 0 01.15.39v.11a.55.55 0 01-.46.47q-1.31.33-2 .45t-1.38.19q-.65.01-1.4.01zm13.44.59l-.28-1.78q-.47-2.79-.61-3.89a13.82 13.82 0 01-.15-1.45.86.86 0 01.17-.57 1 1 0 01.55-.28v.13l.36 1.18-.26.23v.17l.36 3.26q.1.71.15 1.37a1.69 1.69 0 00.81.19.08.08 0 01.09.09v.66a.08.08 0 01-.09.09 1.66 1.66 0 01-.75-.18v.36a2.26 2.26 0 01-.42 1.3 3.17 3.17 0 01-1.17 1 3.25 3.25 0 01-1.53.39 2 2 0 01-1.47-.54 2.09 2.09 0 01-.53-1.53 4.16 4.16 0 010-.6c0-.19.08-.46.17-.82l.4.1a3.35 3.35 0 00-.12.78 1.81 1.81 0 00.4 1.25 1.43 1.43 0 001.12.45 3.53 3.53 0 001.09-.18 3.44 3.44 0 001-.5 1.87 1.87 0 00.71-.68z" fill="#fff" stroke="#fff" stroke-miterlimit="10" stroke-width=".2"/><path d="M127.19 21.63a2.44 2.44 0 01-.93-.19 2.17 2.17 0 01-.76-.49 4 4 0 01-1.2.5 5.62 5.62 0 01-1.41.18 8.11 8.11 0 01-1.63-.17 4.78 4.78 0 01-1.33-.45l-.19.21a1.56 1.56 0 01-1.2.4.08.08 0 01-.09-.09v-.66a.08.08 0 01.09-.09 1.48 1.48 0 00.78-.18 1.93 1.93 0 00.59-.7l.17-.31a.38.38 0 01.35-.19.35.35 0 01.26.1q-.23.56-.33.76a4 4 0 00.55.21q2.1-2.79 3.59-2.79a1.68 1.68 0 01.77.25 3.16 3.16 0 01.82.65 1.12 1.12 0 01.36.7 1.83 1.83 0 01-.42 1.19 2.23 2.23 0 001.17.3c.06 0 .1 0 .1.09v.66c-.02.08-.05.11-.11.11zm-4.19-.84a5.53 5.53 0 002.94-.94 2.73 2.73 0 00-.8-.9 1.61 1.61 0 00-.92-.33 2.28 2.28 0 00-1.24.51 8.81 8.81 0 00-1.56 1.5 8.66 8.66 0 001.58.16z" fill="#fff" stroke="#fff" stroke-miterlimit="10" stroke-width=".2"/><path d="M127.24 21.63a.08.08 0 01-.09-.09v-.66a.08.08 0 01.09-.09 9.15 9.15 0 002.54-.28l.61-.21a6.28 6.28 0 011.11-.3 4.82 4.82 0 01-.85-.55 4.49 4.49 0 00-.72-.49 1.26 1.26 0 00-.57-.14 1.71 1.71 0 00-.95.27l-.26.16a.58.58 0 01-.16-.43.77.77 0 01.37-.67 1.66 1.66 0 011-.25 1.81 1.81 0 01.64.1 4.33 4.33 0 01.83.49 8 8 0 001 .64 3.28 3.28 0 00.82.3 6 6 0 001.2.09l-.42.81-.62-.06h-.26a2.33 2.33 0 00-.73.11 8.34 8.34 0 00-1.08.49 6.09 6.09 0 01-1.49.57 10.5 10.5 0 01-2.01.19zm8.01-3.63v.69q0 1.06-.08 2.88l-.5.09q-.07-3.86-.3-6.4v-.14a.83.83 0 01.17-.56.93.93 0 01.55-.28v.13l.36 1.18-.3.25v.05q.1 1.11.1 2.11z" fill="#fff" stroke="#fff" stroke-miterlimit="10" stroke-width=".2"/></svg>