<svg xmlns="http://www.w3.org/2000/svg" viewBox="10 10 135 40"><defs><linearGradient id="a" x1="31.8" y1="-96.71" x2="15.02" y2="-113.49" gradientTransform="matrix(1 0 0 -1 0 -78)" gradientUnits="userSpaceOnUse"><stop offset="0" stop-color="#00a0ff"/><stop offset=".01" stop-color="#00a1ff"/><stop offset=".26" stop-color="#00beff"/><stop offset=".51" stop-color="#00d2ff"/><stop offset=".76" stop-color="#00dfff"/><stop offset="1" stop-color="#00e3ff"/></linearGradient><linearGradient id="b" x1="43.83" y1="-108" x2="19.64" y2="-108" gradientTransform="matrix(1 0 0 -1 0 -78)" gradientUnits="userSpaceOnUse"><stop offset="0" stop-color="#ffe000"/><stop offset=".41" stop-color="#ffbd00"/><stop offset=".78" stop-color="orange"/><stop offset="1" stop-color="#ff9c00"/></linearGradient><linearGradient id="c" x1="34.83" y1="-110.3" x2="12.07" y2="-133.05" gradientTransform="matrix(1 0 0 -1 0 -78)" gradientUnits="userSpaceOnUse"><stop offset="0" stop-color="#ff3a44"/><stop offset="1" stop-color="#c31162"/></linearGradient><linearGradient id="d" x1="17.3" y1="-88.18" x2="27.46" y2="-98.34" gradientTransform="matrix(1 0 0 -1 0 -78)" gradientUnits="userSpaceOnUse"><stop offset="0" stop-color="#32a071"/><stop offset=".07" stop-color="#2da771"/><stop offset=".48" stop-color="#15cf74"/><stop offset=".8" stop-color="#06e775"/><stop offset="1" stop-color="#00f076"/></linearGradient></defs><path fill="none" d="M0 0h155v60H0z"/><rect x="10" y="10" width="135" height="40" rx="5" ry="5"/><path d="M140 10.8a4.2 4.2 0 014.2 4.2v30a4.2 4.2 0 01-4.2 4.2H15a4.2 4.2 0 01-4.2-4.2V15a4.2 4.2 0 014.2-4.2h125m0-.8H15a5 5 0 00-5 5v30a5 5 0 005 5h125a5 5 0 005-5V15a5 5 0 00-5-5z" fill="#a6a6a6"/><path d="M74.72 26.79a3.72 3.72 0 103.73 3.72 3.66 3.66 0 00-3.73-3.72zm0 6a2.26 2.26 0 112.1-2.25 2.15 2.15 0 01-2.1 2.22zm-8.14-6a3.72 3.72 0 103.73 3.72 3.66 3.66 0 00-3.73-3.72zm0 6a2.26 2.26 0 112.1-2.25 2.15 2.15 0 01-2.1 2.22zm-9.68-4.86v1.58h3.77a3.29 3.29 0 01-.86 2 3.86 3.86 0 01-2.91 1.15 4.2 4.2 0 010-8.39 4 4 0 012.84 1.13l1.11-1.11a5.5 5.5 0 00-4-1.59 5.77 5.77 0 100 11.55 5.28 5.28 0 004-1.62 5.21 5.21 0 001.37-3.69 5.14 5.14 0 00-.08-1zm39.6 1.23a3.46 3.46 0 00-3.18-2.37 3.53 3.53 0 00-3.51 3.72 3.64 3.64 0 003.69 3.72 3.7 3.7 0 003.1-1.65l-1.27-.84a2.12 2.12 0 01-1.83 1 1.89 1.89 0 01-1.8-1.13l5-2.06zm-5.07 1.24a2 2 0 011.94-2.17 1.44 1.44 0 011.38.79zm-4 3.61H89V23.07h-1.61zm-2.68-6.38h-.06a2.58 2.58 0 00-2-.83 3.72 3.72 0 000 7.44 2.53 2.53 0 002-.84h.06v.54c0 1.42-.76 2.18-2 2.18a2.06 2.06 0 01-1.87-1.32l-1.42.59a3.54 3.54 0 003.3 2.2c1.92 0 3.53-1.13 3.53-3.87V27h-1.57zm-1.87 5.14a2.26 2.26 0 010-4.51 2.1 2.1 0 012 2.27 2.08 2.08 0 01-2.04 2.23zm21.31-9.69h-3.91V34h1.63v-4.14h2.28a3.4 3.4 0 100-6.79zm0 5.27h-2.32v-3.76h2.32a1.87 1.87 0 110 3.75zm10.08-1.57a3.06 3.06 0 00-2.91 1.67l1.45.6a1.55 1.55 0 011.49-.8 1.57 1.57 0 011.7 1.4v.11a3.61 3.61 0 00-1.7-.42c-1.56 0-3.15.86-3.15 2.46a2.52 2.52 0 002.71 2.4 2.3 2.3 0 002.14-1.06V34h1.57v-4.21c.02-1.94-1.42-3.02-3.29-3.02zm-.2 6c-.53 0-1.28-.27-1.28-.93 0-.84.93-1.17 1.73-1.17A2.9 2.9 0 01116 31a2 2 0 01-1.92 1.76zm9.26-5.78l-1.87 4.74h-.06L119.46 27h-1.76l2.91 6.62-1.61 3.69h1.7L125.14 27zm-14.69 7h1.63V23.07h-1.63z" fill="#fff"/><path d="M20.44 17.54a2 2 0 00-.46 1.4v22.12a2 2 0 00.46 1.4l.07.07L32.9 30.15v-.29L20.51 17.47z" fill="url(#a)"/><path d="M37 34.28l-4.1-4.13v-.29l4.1-4.14.09.05L42 28.56c1.4.79 1.4 2.09 0 2.89l-4.89 2.78z" fill="url(#b)"/><path d="M37.12 34.22L32.9 30 20.44 42.46a1.63 1.63 0 002.08.06l14.61-8.3" fill="url(#c)"/><path d="M37.12 25.78l-14.61-8.3a1.63 1.63 0 00-2.08.06L32.9 30z" fill="url(#d)"/><path d="M37 34.13l-14.49 8.25a1.67 1.67 0 01-2 0l-.07.07.07.07a1.66 1.66 0 002 0l14.61-8.3z" style="isolation:isolate" opacity=".2"/><path d="M20.44 42.32a2 2 0 01-.46-1.4v.15a2 2 0 00.46 1.4l.07-.07zM42 31.3l-5 2.83.09.09L42 31.44A1.75 1.75 0 0043 30a1.86 1.86 0 01-1 1.3z" style="isolation:isolate" opacity=".12"/><path d="M22.51 17.62L42 28.7a1.86 1.86 0 011 1.3 1.75 1.75 0 00-1-1.44L22.51 17.48c-1.4-.79-2.54-.13-2.54 1.47v.15c.03-1.61 1.15-2.27 2.54-1.48z" style="isolation:isolate" fill="#fff" opacity=".25"/><path d="M53.19 44.91a.51.51 0 01-.16.38.52.52 0 01-.38.15.47.47 0 01-.23-.06 1.26 1.26 0 01-.22-.16A1.56 1.56 0 0152 45l-.14-.18a3.67 3.67 0 01-.38-.63 4.42 4.42 0 01-.25-.66 4.31 4.31 0 01-.14-.66 5.11 5.11 0 010-.63 3.43 3.43 0 01.36-1.52 4 4 0 01.46-.72 4.51 4.51 0 01.66-.67l.33.57a2.58 2.58 0 00-.51.48A3.24 3.24 0 0052 41a3.18 3.18 0 00-.24.64 2.6 2.6 0 00-.08.63 4.17 4.17 0 00.16 1.13 3.73 3.73 0 00.51 1.09l.14-.08a.5.5 0 01.17 0 .52.52 0 01.38.15.51.51 0 01.15.35zm6.46-5.58v.59h-6.57v-.59zm-1 3.71a2.17 2.17 0 01-.16.84 2.11 2.11 0 01-.44.67 2 2 0 01-1.44.6 2.46 2.46 0 01-2.26-1.45 11.83 11.83 0 01-.86-2.77l.59-.12q.22.9.39 1.5a7.23 7.23 0 00.31.89 2.69 2.69 0 00.79 1 1.71 1.71 0 001 .35 1.34 1.34 0 00.57-.12 1.43 1.43 0 00.46-.33 1.54 1.54 0 00.3-.49 1.64 1.64 0 00.11-.6 2.67 2.67 0 00-.08-.67 2 2 0 00-.26-.59 1.34 1.34 0 00-.43-.42 1.13 1.13 0 00-.6-.16.64.64 0 00-.46.17.54.54 0 00-.18.41.76.76 0 00.09.37.55.55 0 00.27.25.52.52 0 010-.2.53.53 0 010-.21.54.54 0 01.11-.17.52.52 0 01.17-.12.54.54 0 01.21 0 .5.5 0 01.22 0 .56.56 0 01.17.12.55.55 0 01.11.17.52.52 0 010 .19.73.73 0 01-.24.57.91.91 0 01-.64.22 1.1 1.1 0 01-.46-.09 1 1 0 01-.35-.26 1.14 1.14 0 01-.22-.38 1.42 1.42 0 01-.08-.47 1.07 1.07 0 01.1-.46 1.1 1.1 0 01.27-.36 1.25 1.25 0 01.39-.24 1.28 1.28 0 01.47-.09 1.69 1.69 0 01.83.2 1.94 1.94 0 01.62.54 2.46 2.46 0 01.38.77 3.09 3.09 0 01.25.9zm11.45-3.71v.59H69V45h-.6v-3.44l-2.6 1.17-.23-.52.3-.15a1.68 1.68 0 00.24-.33.93.93 0 00.11-.47.54.54 0 00-.06-.24.59.59 0 00-.15-.2.79.79 0 00-.5-.18h-.12l-.3.27-.22-.52a2.61 2.61 0 012-1.23 2 2 0 011.53.76v-.6zM68.36 41a1.35 1.35 0 00-.23-.45 2 2 0 00-.83-.65 1.25 1.25 0 00-.48-.1 1.42 1.42 0 00-.31 0 1.38 1.38 0 00-.27.09A1.71 1.71 0 0066 40l-.27.2a1.09 1.09 0 01.42.11 1 1 0 01.31.24 1 1 0 01.19.32 1.14 1.14 0 01.06.37.78.78 0 010 .28.84.84 0 01-.11.22zm4.59-1.67v.59h-.41a.44.44 0 00-.38.18.7.7 0 00-.11.39v4.92h-.59v-4.35a1.72 1.72 0 000-.41 1.26 1.26 0 00-.15-.36A.83.83 0 0071 40a.6.6 0 00-.34-.1h-.41v-.59h.41a1.12 1.12 0 01.35.05 1.29 1.29 0 01.29.13 1.07 1.07 0 01.21.17.61.61 0 01.12.17.72.72 0 01.31-.38 1 1 0 01.58-.16zm5.76 0v.59h-1.15V45H77v-1.08a1.92 1.92 0 00-.07-.49 3.19 3.19 0 00-.2-.54 3.47 3.47 0 00-.3-.52 3 3 0 00-.38-.45 1.92 1.92 0 00-.44-.32 1 1 0 00-.48-.12.93.93 0 00-.65.22.8.8 0 00-.24.62.65.65 0 000 .21.66.66 0 00.1.19.57.57 0 00.15.14.37.37 0 00.19.05h.19a.49.49 0 01-.13-.17.53.53 0 010-.22.52.52 0 010-.21.53.53 0 01.11-.17A.52.52 0 0175 42a.54.54 0 01.21 0 .51.51 0 01.38.16.52.52 0 01.15.38.86.86 0 01-.11.45 1.08 1.08 0 01-.27.31 1.12 1.12 0 01-.35.18 1.2 1.2 0 01-.35.06 1 1 0 01-.4-.08 1 1 0 01-.34-.24 1.21 1.21 0 01-.24-.37 1.25 1.25 0 01-.09-.48 1.37 1.37 0 01.44-1 1.49 1.49 0 01.47-.29 1.58 1.58 0 01.58-.11 1.76 1.76 0 011.08.36 2.7 2.7 0 01.79 1v-2.4h-3.83v-.59zM54.7 16.3v3.76h-.55v-.12a.68.68 0 00-.53-.33 1 1 0 00-.33.06l-.38.14-.4.13a1.43 1.43 0 01-.4.06 1.08 1.08 0 01-.41-.08.93.93 0 01-.32-.21 1.09 1.09 0 01-.22-.33 1.36 1.36 0 01-.1-.41l.55-.07a.68.68 0 00.13.42.44.44 0 00.37.17 1.2 1.2 0 00.35-.06l.4-.13.41-.13a1.28 1.28 0 01.36-.06 1 1 0 01.53.16v-3a.6.6 0 00-.06-.27.78.78 0 00-.16-.22.69.69 0 00-.22-.14.63.63 0 00-.25-.05.71.71 0 00-.57.23.91.91 0 00-.2.6h.07a.48.48 0 01.35.14.49.49 0 010 .69.47.47 0 01-.35.14.44.44 0 01-.27-.09.75.75 0 01-.2-.22 1 1 0 01-.12-.28 1.23 1.23 0 010-.29 1.85 1.85 0 01.09-.58 1.36 1.36 0 01.25-.46 1.14 1.14 0 01.41-.3 1.37 1.37 0 01.57-.11 1.32 1.32 0 01.46.08 1.21 1.21 0 01.39.24 1.19 1.19 0 01.27.38 1.22 1.22 0 01.08.54zm6.67-1.79a3.45 3.45 0 00-.66-.49 4.64 4.64 0 00-.79-.37 5.71 5.71 0 00-.86-.23 5 5 0 00-.87-.08 2.89 2.89 0 00-.59.06.63.63 0 00.19.27 1.08 1.08 0 00.29.16 1.66 1.66 0 00.35.09h.37l.8.08a2.33 2.33 0 01.61.14 1.14 1.14 0 01.44.31 1.57 1.57 0 01.29.56h1v.54h-3.36v3.21a2 2 0 000 .38 1.26 1.26 0 00.12.34.73.73 0 00.21.25.5.5 0 00.3.09 1.3 1.3 0 00.48-.1 1.49 1.49 0 00.49-.33 1.39 1.39 0 00.34-.47 1.23 1.23 0 00.1-.46q0-.49-.22-.64a.47.47 0 01-.14.35.48.48 0 01-.35.14.5.5 0 01-.19 0 .48.48 0 01-.16-.1.47.47 0 01-.1-.16.51.51 0 010-.45.61.61 0 01.17-.18.79.79 0 01.24-.11 1 1 0 01.27 0 .84.84 0 01.42.11 1 1 0 01.32.28 1.27 1.27 0 01.2.39 1.49 1.49 0 01.07.44 1.55 1.55 0 01-.15.66 2.15 2.15 0 01-.48.64 2.25 2.25 0 01-.66.45 1.7 1.7 0 01-.67.14 1.15 1.15 0 01-.58-.13 1 1 0 01-.37-.35 1.47 1.47 0 01-.2-.5 3 3 0 01-.06-.6v-3.22h-1.31v5h-.55v-5h-.77v-.54h.76a.86.86 0 01-.11-.28 1.09 1.09 0 010-.31 1.3 1.3 0 01.59-1.14 3.07 3.07 0 011.73-.4A4.68 4.68 0 0159 13a5.17 5.17 0 01.87.23 6.08 6.08 0 01.9.4 4.51 4.51 0 01.84.59zm-1 .56a.93.93 0 00-.25-.41.91.91 0 00-.37-.18 2.43 2.43 0 00-.5-.06l-.63-.06-.46-.07a1.7 1.7 0 01-.39-.12 1.37 1.37 0 01-.34-.23 1.78 1.78 0 01-.31-.39 1.34 1.34 0 00-.51.39.88.88 0 00-.18.56.6.6 0 00.1.37.65.65 0 00.31.21z" fill="#fff" stroke="#fff" stroke-miterlimit="10" stroke-width=".2"/></svg>