<svg xmlns="http://www.w3.org/2000/svg" viewBox="10 10 135 40"><defs><linearGradient id="a" x1="31.8" y1="183.29" x2="15.02" y2="166.51" gradientTransform="matrix(1 0 0 -1 0 202)" gradientUnits="userSpaceOnUse"><stop offset="0" stop-color="#00a0ff"/><stop offset=".01" stop-color="#00a1ff"/><stop offset=".26" stop-color="#00beff"/><stop offset=".51" stop-color="#00d2ff"/><stop offset=".76" stop-color="#00dfff"/><stop offset="1" stop-color="#00e3ff"/></linearGradient><linearGradient id="b" x1="43.83" y1="172" x2="19.64" y2="172" gradientTransform="matrix(1 0 0 -1 0 202)" gradientUnits="userSpaceOnUse"><stop offset="0" stop-color="#ffe000"/><stop offset=".41" stop-color="#ffbd00"/><stop offset=".78" stop-color="orange"/><stop offset="1" stop-color="#ff9c00"/></linearGradient><linearGradient id="c" x1="34.83" y1="169.7" x2="12.07" y2="146.95" gradientTransform="matrix(1 0 0 -1 0 202)" gradientUnits="userSpaceOnUse"><stop offset="0" stop-color="#ff3a44"/><stop offset="1" stop-color="#c31162"/></linearGradient><linearGradient id="d" x1="17.3" y1="191.82" x2="27.46" y2="181.66" gradientTransform="matrix(1 0 0 -1 0 202)" gradientUnits="userSpaceOnUse"><stop offset="0" stop-color="#32a071"/><stop offset=".07" stop-color="#2da771"/><stop offset=".48" stop-color="#15cf74"/><stop offset=".8" stop-color="#06e775"/><stop offset="1" stop-color="#00f076"/></linearGradient></defs><path fill="none" d="M0 0h155v60H0z"/><rect x="10" y="10" width="135" height="40" rx="5" ry="5"/><path d="M140 10.8a4.2 4.2 0 014.2 4.2v30a4.2 4.2 0 01-4.2 4.2H15a4.2 4.2 0 01-4.2-4.2V15a4.2 4.2 0 014.2-4.2h125m0-.8H15a5 5 0 00-5 5v30a5 5 0 005 5h125a5 5 0 005-5V15a5 5 0 00-5-5z" fill="#a6a6a6"/><path d="M78.14 31.75A4.25 4.25 0 1082.41 36a4.19 4.19 0 00-4.27-4.25zm0 6.83a2.58 2.58 0 112.4-2.58 2.46 2.46 0 01-2.4 2.58zm-9.31-6.83A4.25 4.25 0 1073.09 36a4.19 4.19 0 00-4.27-4.25zm0 6.83A2.58 2.58 0 1171.22 36a2.46 2.46 0 01-2.4 2.58zm-11.09-5.52v1.8h4.32a3.77 3.77 0 01-1 2.27 4.42 4.42 0 01-3.33 1.32 4.8 4.8 0 010-9.6A4.6 4.6 0 0161 30.14l1.27-1.27A6.29 6.29 0 0057.74 27a6.61 6.61 0 100 13.21 6 6 0 004.61-1.85 6 6 0 001.56-4.22 5.87 5.87 0 00-.1-1.13zm45.31 1.4a4 4 0 00-3.64-2.71 4 4 0 00-4 4.25 4.16 4.16 0 004.22 4.25 4.23 4.23 0 003.54-1.88l-1.45-1a2.43 2.43 0 01-2.09 1.18 2.16 2.16 0 01-2.06-1.29l5.69-2.35zm-5.8 1.42a2.33 2.33 0 012.22-2.48 1.65 1.65 0 011.58.9zM92.63 40h1.87V27.5h-1.87zm-3.06-7.3h-.07a3 3 0 00-2.24-1 4.26 4.26 0 000 8.51 2.9 2.9 0 002.24-1h.06v.61c0 1.63-.87 2.5-2.27 2.5a2.35 2.35 0 01-2.14-1.51l-1.63.68A4.05 4.05 0 0087.29 44c2.19 0 4-1.29 4-4.43V32h-1.72zm-2.14 5.88a2.59 2.59 0 010-5.16A2.4 2.4 0 0189.7 36a2.38 2.38 0 01-2.28 2.58zm24.38-11.08h-4.47V40h1.87v-4.74h2.61a3.89 3.89 0 100-7.76zm0 6h-2.61v-4.26h2.65a2.14 2.14 0 110 4.29zm11.53-1.8a3.5 3.5 0 00-3.33 1.91l1.66.69a1.77 1.77 0 011.7-.92 1.8 1.8 0 012 1.61v.13a4.13 4.13 0 00-1.95-.48c-1.79 0-3.6 1-3.6 2.81a2.89 2.89 0 003.1 2.75 2.63 2.63 0 002.4-1.2h.06v1h1.8v-4.81c0-2.19-1.66-3.46-3.79-3.46zm-.23 6.85c-.61 0-1.46-.31-1.46-1.06 0-1 1.06-1.33 2-1.33a3.32 3.32 0 011.7.42 2.26 2.26 0 01-2.19 2zM133.74 32l-2.14 5.42h-.06L129.32 32h-2l3.33 7.58-1.9 4.21h1.95L135.82 32zm-16.81 8h1.87V27.5h-1.87z" fill="#fff"/><path d="M20.44 17.54a2 2 0 00-.46 1.4v22.12a2 2 0 00.46 1.4l.07.07L32.9 30.15v-.29L20.51 17.47z" fill="url(#a)"/><path d="M37 34.28l-4.1-4.13v-.29l4.1-4.14.09.05L42 28.56c1.4.79 1.4 2.09 0 2.89l-4.89 2.78z" fill="url(#b)"/><path d="M37.12 34.22L32.9 30 20.44 42.46a1.63 1.63 0 002.08.06l14.61-8.3" fill="url(#c)"/><path d="M37.12 25.78l-14.61-8.3a1.63 1.63 0 00-2.08.06L32.9 30z" fill="url(#d)"/><path d="M37 34.13l-14.49 8.25a1.67 1.67 0 01-2 0l-.07.07.07.07a1.66 1.66 0 002 0l14.61-8.3z" style="isolation:isolate" opacity=".2"/><path d="M20.44 42.32a2 2 0 01-.46-1.4v.15a2 2 0 00.46 1.4l.07-.07zM42 31.3l-5 2.83.09.09L42 31.44A1.75 1.75 0 0043 30a1.86 1.86 0 01-1 1.3z" style="isolation:isolate" opacity=".12"/><path d="M22.51 17.62L42 28.7a1.86 1.86 0 011 1.3 1.75 1.75 0 00-1-1.44L22.51 17.48c-1.4-.79-2.54-.13-2.54 1.47v.15c.03-1.61 1.15-2.27 2.54-1.48z" style="isolation:isolate" fill="#fff" opacity=".25"/><path d="M51.28 23v-6h1.84a3 3 0 012.21.83 2.94 2.94 0 01.83 2.17 2.94 2.94 0 01-.83 2.17 3 3 0 01-2.21.83zm.77-.74h1.06a2.25 2.25 0 001.65-.6 2.23 2.23 0 00.61-1.66 2.09 2.09 0 00-2.25-2.26H52zm5.19.74v-6H58v6zm3.83.13a2.24 2.24 0 01-1.28-.43 2 2 0 01-.82-1.2l.7-.28a1.61 1.61 0 00.51.83 1.3 1.3 0 00.88.34 1.4 1.4 0 00.86-.26.84.84 0 00.36-.72.92.92 0 00-.36-.77 3.69 3.69 0 00-1.13-.51 3 3 0 01-1.21-.65 1.36 1.36 0 01-.41-1 1.49 1.49 0 01.51-1.12 1.87 1.87 0 011.32-.49 1.93 1.93 0 011.24.38 1.76 1.76 0 01.62.83l-.7.29a1 1 0 00-.37-.53 1.31 1.31 0 00-1.53 0 .75.75 0 00-.31.62.7.7 0 00.29.57 2.78 2.78 0 00.85.41 7.23 7.23 0 01.74.28 3.38 3.38 0 01.6.36 1.42 1.42 0 01.46.55 1.79 1.79 0 01.16.77 1.65 1.65 0 01-.18.78 1.46 1.46 0 01-.48.54 2.37 2.37 0 01-.64.31 2.4 2.4 0 01-.68.1zM65 23h-.77v-6h2a1.9 1.9 0 011.32.51 1.74 1.74 0 010 2.56 1.89 1.89 0 01-1.32.51H65zm0-3.17h1.29a1 1 0 00.78-.33 1 1 0 000-1.44 1 1 0 00-.78-.33H65zm9 2.39a3.12 3.12 0 01-4.4 0 3.24 3.24 0 010-4.45 3.1 3.1 0 014.4 0 3.23 3.23 0 010 4.45zm-3.83-.5a2.31 2.31 0 003.26 0 2.56 2.56 0 000-3.44 2.31 2.31 0 00-3.26 0 2.56 2.56 0 000 3.44zM75.95 23v-6h.94l2.92 4.67V17h.77v6h-.8l-3.05-4.89V23zm2.86-6.52a1.28 1.28 0 01-.57-.19 1.74 1.74 0 00-.41-.19c-.17 0-.26.1-.28.29h-.64a.92.92 0 01.29-.74 1 1 0 01.64-.25 1.3 1.3 0 01.57.19 2 2 0 00.4.19c.17 0 .26-.1.28-.29h.64a.92.92 0 01-.29.74 1 1 0 01-.63.25zM81.95 23v-6h.77v6zm2.14 0v-6h2.17a1.76 1.76 0 011.22.46 1.51 1.51 0 01.52 1.17 1.31 1.31 0 01-.22.75 1.39 1.39 0 01-.59.49 1.52 1.52 0 01.73.52 1.36 1.36 0 01.29.86 1.57 1.57 0 01-.54 1.22 1.85 1.85 0 01-1.28.49zm.77-3.43h1.4a.9.9 0 00.7-.29A.89.89 0 0087 18a.86.86 0 00-.67-.29h-1.47zm0 2.69h1.55a.92.92 0 00.72-.31 1 1 0 00.28-.68 1 1 0 00-1-1h-1.55zm4.38.74v-6H90v5.26h2.6V23zm7.84-5.26h-2.73v1.9h2.46v.72h-2.46v1.9h2.73V23h-3.5v-6h3.5zm6.72 0h-2.73v1.9h2.46v.72h-2.46v1.9h2.73V23h-3.5v-6h3.5zM105 23v-6h.94l2.92 4.67V17h.77v6h-.8l-3.05-4.89V23z" fill="#fff" stroke="#fff" stroke-miterlimit="10" stroke-width=".2"/></svg>