<svg xmlns="http://www.w3.org/2000/svg" viewBox="10 10 135 40"><defs><linearGradient id="a" x1="31.8" y1="-96.71" x2="15.02" y2="-113.49" gradientTransform="matrix(1 0 0 -1 0 -78)" gradientUnits="userSpaceOnUse"><stop offset="0" stop-color="#00a0ff"/><stop offset=".01" stop-color="#00a1ff"/><stop offset=".26" stop-color="#00beff"/><stop offset=".51" stop-color="#00d2ff"/><stop offset=".76" stop-color="#00dfff"/><stop offset="1" stop-color="#00e3ff"/></linearGradient><linearGradient id="b" x1="43.83" y1="-108" x2="19.64" y2="-108" gradientTransform="matrix(1 0 0 -1 0 -78)" gradientUnits="userSpaceOnUse"><stop offset="0" stop-color="#ffe000"/><stop offset=".41" stop-color="#ffbd00"/><stop offset=".78" stop-color="orange"/><stop offset="1" stop-color="#ff9c00"/></linearGradient><linearGradient id="c" x1="34.83" y1="-110.3" x2="12.07" y2="-133.05" gradientTransform="matrix(1 0 0 -1 0 -78)" gradientUnits="userSpaceOnUse"><stop offset="0" stop-color="#ff3a44"/><stop offset="1" stop-color="#c31162"/></linearGradient><linearGradient id="d" x1="17.3" y1="-88.18" x2="27.46" y2="-98.34" gradientTransform="matrix(1 0 0 -1 0 -78)" gradientUnits="userSpaceOnUse"><stop offset="0" stop-color="#32a071"/><stop offset=".07" stop-color="#2da771"/><stop offset=".48" stop-color="#15cf74"/><stop offset=".8" stop-color="#06e775"/><stop offset="1" stop-color="#00f076"/></linearGradient></defs><path fill="none" d="M0 0h155v60H0z"/><rect x="10" y="10" width="135" height="40" rx="5" ry="5"/><path d="M140 10.8a4.2 4.2 0 014.2 4.2v30a4.2 4.2 0 01-4.2 4.2H15a4.2 4.2 0 01-4.2-4.2V15a4.2 4.2 0 014.2-4.2h125m0-.8H15a5 5 0 00-5 5v30a5 5 0 005 5h125a5 5 0 005-5V15a5 5 0 00-5-5z" fill="#a6a6a6"/><path d="M74.72 26.79a3.72 3.72 0 103.73 3.72 3.66 3.66 0 00-3.73-3.72zm0 6a2.26 2.26 0 112.1-2.25 2.15 2.15 0 01-2.1 2.22zm-8.14-6a3.72 3.72 0 103.73 3.72 3.66 3.66 0 00-3.73-3.72zm0 6a2.26 2.26 0 112.1-2.25 2.15 2.15 0 01-2.1 2.22zm-9.68-4.86v1.58h3.77a3.29 3.29 0 01-.86 2 3.86 3.86 0 01-2.91 1.15 4.2 4.2 0 010-8.39 4 4 0 012.84 1.13l1.11-1.11a5.5 5.5 0 00-4-1.59 5.77 5.77 0 100 11.55 5.28 5.28 0 004-1.62 5.21 5.21 0 001.37-3.69 5.14 5.14 0 00-.08-1zm39.6 1.23a3.46 3.46 0 00-3.18-2.37 3.53 3.53 0 00-3.51 3.72 3.64 3.64 0 003.69 3.72 3.7 3.7 0 003.1-1.65l-1.27-.84a2.12 2.12 0 01-1.83 1 1.89 1.89 0 01-1.8-1.13l5-2.06zm-5.07 1.24a2 2 0 011.94-2.17 1.44 1.44 0 011.38.79zm-4 3.61H89V23.07h-1.61zm-2.68-6.38h-.06a2.58 2.58 0 00-2-.83 3.72 3.72 0 000 7.44 2.53 2.53 0 002-.84h.06v.54c0 1.42-.76 2.18-2 2.18a2.06 2.06 0 01-1.87-1.32l-1.42.59a3.54 3.54 0 003.3 2.2c1.92 0 3.53-1.13 3.53-3.87V27h-1.57zm-1.87 5.14a2.26 2.26 0 010-4.51 2.1 2.1 0 012 2.27 2.08 2.08 0 01-2.04 2.23zm21.31-9.69h-3.91V34h1.63v-4.14h2.28a3.4 3.4 0 100-6.79zm0 5.27h-2.32v-3.76h2.32a1.87 1.87 0 110 3.75zm10.08-1.57a3.06 3.06 0 00-2.91 1.67l1.45.6a1.55 1.55 0 011.49-.8 1.57 1.57 0 011.7 1.4v.11a3.61 3.61 0 00-1.7-.42c-1.56 0-3.15.86-3.15 2.46a2.52 2.52 0 002.71 2.4 2.3 2.3 0 002.14-1.06V34h1.57v-4.21c.02-1.94-1.42-3.02-3.29-3.02zm-.2 6c-.53 0-1.28-.27-1.28-.93 0-.84.93-1.17 1.73-1.17A2.9 2.9 0 01116 31a2 2 0 01-1.92 1.76zm9.26-5.78l-1.87 4.74h-.06L119.46 27h-1.76l2.91 6.62-1.61 3.69h1.7L125.14 27zm-14.69 7h1.63V23.07h-1.63z" fill="#fff"/><path d="M20.44 17.54a2 2 0 00-.46 1.4v22.12a2 2 0 00.46 1.4l.07.07L32.9 30.15v-.29L20.51 17.47z" fill="url(#a)"/><path d="M37 34.28l-4.1-4.13v-.29l4.1-4.14.09.05L42 28.56c1.4.79 1.4 2.09 0 2.89l-4.89 2.78z" fill="url(#b)"/><path d="M37.12 34.22L32.9 30 20.44 42.46a1.63 1.63 0 002.08.06l14.61-8.3" fill="url(#c)"/><path d="M37.12 25.78l-14.61-8.3a1.63 1.63 0 00-2.08.06L32.9 30z" fill="url(#d)"/><path d="M37 34.13l-14.49 8.25a1.67 1.67 0 01-2 0l-.07.07.07.07a1.66 1.66 0 002 0l14.61-8.3z" style="isolation:isolate" opacity=".2"/><path d="M20.44 42.32a2 2 0 01-.46-1.4v.15a2 2 0 00.46 1.4l.07-.07zM42 31.3l-5 2.83.09.09L42 31.44A1.75 1.75 0 0043 30a1.86 1.86 0 01-1 1.3z" style="isolation:isolate" opacity=".12"/><path d="M22.51 17.62L42 28.7a1.86 1.86 0 011 1.3 1.75 1.75 0 00-1-1.44L22.51 17.48c-1.4-.79-2.54-.13-2.54 1.47v.15c.03-1.61 1.15-2.27 2.54-1.48z" style="isolation:isolate" fill="#fff" opacity=".25"/><path d="M51.08 15a2.28 2.28 0 01.32-1.32 1.15 1.15 0 011-.45 1.24 1.24 0 01.86.29 1 1 0 01.32.76 1 1 0 01-.43.91 2.35 2.35 0 01-1.34.3v.4a4.26 4.26 0 010 .64 1.39 1.39 0 01.58-.52 1.86 1.86 0 01.84-.19 1.81 1.81 0 011.4.51 2.09 2.09 0 01.47 1.46 3.36 3.36 0 01-.18 1.08 2.59 2.59 0 01-.45.85h-.8a2.84 2.84 0 00.66-1.87q0-1.42-1.19-1.42a1.29 1.29 0 00-1 .36 1.77 1.77 0 00-.32 1.18v1.75h-.75zm1.34-1.16A.47.47 0 0052 14a1.9 1.9 0 00-.14.83 1.69 1.69 0 00.81-.15.51.51 0 00.26-.48.42.42 0 00-.13-.32.49.49 0 00-.39-.08zm5.68 1.29v.21a.75.75 0 00.16.47 2.72 2.72 0 00.56.49 3.43 3.43 0 01.61.51 1.62 1.62 0 01.29.48 1.64 1.64 0 01.1.59 1.76 1.76 0 01-.57 1.37 2.19 2.19 0 01-1.52.51 2.23 2.23 0 01-1.51-.47 1.65 1.65 0 01-.55-1.29 3.16 3.16 0 01.07-.67h.79a2.26 2.26 0 00-.1.68 1.11 1.11 0 00.32.86 1.4 1.4 0 001 .3 1.36 1.36 0 001-.32 1.15 1.15 0 00.35-.9 1 1 0 00-.18-.57 2.55 2.55 0 00-.61-.6 2.74 2.74 0 01-.71-.69 1.43 1.43 0 01-.19-.76v-.18zm4.32-1.32a1.05 1.05 0 00-.68.2.66.66 0 00-.25.55v.15h-.74a1.47 1.47 0 010-.21 1.14 1.14 0 01.22-.67 1.44 1.44 0 01.6-.48 2.12 2.12 0 01.88-.17 1.75 1.75 0 011.55.87 4.64 4.64 0 01.56 2.49A4.4 4.4 0 0164 19a1.84 1.84 0 01-1.65.8 1.81 1.81 0 01-1.46-.62 2.61 2.61 0 01-.53-1.74 2.67 2.67 0 01.51-1.73 1.72 1.72 0 011.4-.62 1.56 1.56 0 011.4.64q-.18-1.92-1.25-1.92zm0 5.34a1.12 1.12 0 00.95-.47 2.15 2.15 0 00.35-1.3q0-1.71-1.31-1.71a1.1 1.1 0 00-.94.44 2.14 2.14 0 00-.33 1.29 2.23 2.23 0 00.32 1.3 1.1 1.1 0 00.98.45zM69.87 15a1.51 1.51 0 011.28.61 2.75 2.75 0 01.46 1.68 5.14 5.14 0 01-.13 1.19 6.22 6.22 0 01-.41 1.15h-.76a6.14 6.14 0 00.42-1.16 5 5 0 00.14-1.2 2.27 2.27 0 00-.28-1.25.88.88 0 00-.77-.42.89.89 0 00-.73.31 1.35 1.35 0 00-.26.89v.56h-.71v-.56a1.37 1.37 0 00-.25-.89.91.91 0 00-.75-.31.85.85 0 00-.76.42 2.34 2.34 0 00-.27 1.25 5 5 0 00.14 1.23 5.81 5.81 0 00.42 1.13h-.76a5.54 5.54 0 01-.42-1.15 5.33 5.33 0 01-.13-1.2 2.71 2.71 0 01.47-1.69 1.53 1.53 0 011.28-.6 1.56 1.56 0 01.86.22 1.33 1.33 0 01.51.66 1.37 1.37 0 01.52-.67 1.57 1.57 0 01.89-.2zm8.05 3.38a4.36 4.36 0 01-.34 1.79 2.55 2.55 0 01-1 1.16 2.72 2.72 0 01-1.49.4 2.53 2.53 0 01-2.09-.88 3.8 3.8 0 01-.72-2.48 4.41 4.41 0 01.28-1.64 2.69 2.69 0 01.83-1.15 2.5 2.5 0 011.3-.51v-1.84h.75v1.83a2.42 2.42 0 011.78 1 3.83 3.83 0 01.7 2.32zm-3.17-.72v-1.95a1.69 1.69 0 00-1.23.82 3.54 3.54 0 00-.42 1.85 3.33 3.33 0 00.52 2 2 2 0 003 0 3.33 3.33 0 00.52-2 3.56 3.56 0 00-.42-1.86 1.68 1.68 0 00-1.23-.82v2zm5.5 3.44a1.26 1.26 0 001-.37 1.46 1.46 0 00.34-1q0-1.33-1.61-1.33h-.58v-.63h.58a1.7 1.7 0 001-.27.91.91 0 00.36-.78 1 1 0 00-.27-.76 1.1 1.1 0 00-.8-.27q-1 0-1 .89v.19h-.73a2 2 0 010-.24 1.32 1.32 0 01.46-1.09 2.37 2.37 0 012.65 0 1.4 1.4 0 01.48 1.12 1.47 1.47 0 01-.27.91A1.59 1.59 0 0181 18a1.79 1.79 0 011 .6 1.63 1.63 0 01.36 1.06 2 2 0 01-.58 1.5 2.14 2.14 0 01-1.55.55 2.1 2.1 0 01-1.46-.45 1.68 1.68 0 01-.5-1.31 1.52 1.52 0 01.08-.52h.76a1.07 1.07 0 00-.07.24 1.38 1.38 0 000 .27 1.1 1.1 0 00.32.86 1.34 1.34 0 00.89.3zm2.66-3.69a2.51 2.51 0 01.56-1.74A2 2 0 0185 15a2 2 0 011.53.63 2.49 2.49 0 01.57 1.72 4.76 4.76 0 01-.1 1.32 3.23 3.23 0 01-.46 1h-.8a4 4 0 00.66-2.28 2.07 2.07 0 00-.34-1.3 1.2 1.2 0 00-1-.44 1.17 1.17 0 00-1 .44 2.11 2.11 0 00-.34 1.3 4 4 0 00.66 2.28h-.8a3.3 3.3 0 01-.45-1 4.59 4.59 0 01-.22-1.26zm6.31-2.31a1.44 1.44 0 01.44-.06 1.32 1.32 0 011.37.88 1.35 1.35 0 01.52-.67 1.58 1.58 0 01.84-.21 1.52 1.52 0 011.28.61 2.73 2.73 0 01.46 1.68 5.14 5.14 0 01-.13 1.2 6.22 6.22 0 01-.41 1.15h-.76a6.14 6.14 0 00.42-1.16 5 5 0 00.14-1.2 2.33 2.33 0 00-.27-1.23.86.86 0 00-.77-.44.89.89 0 00-.73.31 1.35 1.35 0 00-.26.89v.56h-.71v-.56a1.37 1.37 0 00-.25-.89.91.91 0 00-.75-.31.86.86 0 00-.75.41 2.29 2.29 0 00-.28 1.25 5 5 0 00.14 1.23 5.81 5.81 0 00.42 1.13h-.76a5.7 5.7 0 01-.42-1.13 5 5 0 01-.12-1.13 5.07 5.07 0 01.28-1.81 3.1 3.1 0 01.84-1.23 4.22 4.22 0 011.43-.8 9.18 9.18 0 012.09-.43l.08.65a7.16 7.16 0 00-2 .41 3.66 3.66 0 00-1.39.87zm9.23 2.25a3.07 3.07 0 01-.45 1.81 1.53 1.53 0 01-1.32.61 1.5 1.5 0 01-1.3-.61 3 3 0 01-.44-1.79 2.84 2.84 0 01.45-1.71 1.51 1.51 0 011.3-.62 1.6 1.6 0 01.84.2 1.34 1.34 0 01.52.67 1.37 1.37 0 01.52-.67 1.57 1.57 0 01.84-.21 1.51 1.51 0 011.28.61 2.75 2.75 0 01.46 1.68 5.14 5.14 0 01-.13 1.19 6.22 6.22 0 01-.41 1.15h-.71a6.14 6.14 0 00.42-1.16 5 5 0 00.14-1.2 2.33 2.33 0 00-.27-1.22.86.86 0 00-.77-.44.83.83 0 00-.73.34 1.79 1.79 0 00-.23 1zm-.75 0a2.84 2.84 0 00-.22-1.3.8.8 0 00-.77-.39.84.84 0 00-.76.44 2.45 2.45 0 00-.27 1.26 2.76 2.76 0 00.25 1.32.82.82 0 00.76.45.8.8 0 00.76-.45 2.88 2.88 0 00.25-1.32zm6.09 4.38a2.14 2.14 0 01-1.55-.5 1.94 1.94 0 01-.52-1.46 2.1 2.1 0 01.1-.71h.76a1.19 1.19 0 00-.09.32 2.47 2.47 0 000 .38 1.4 1.4 0 00.33 1 1.35 1.35 0 001 .33 1.16 1.16 0 001-.47 2.74 2.74 0 00.32-1.49v-1.51a2.7 2.7 0 00-.32-1.49 1.18 1.18 0 00-1-.46 1 1 0 00-.82.33 1.27 1.27 0 00-.29.89 2 2 0 000 .32H102a2.4 2.4 0 010-.34 1.91 1.91 0 01.23-.95 1.59 1.59 0 01.66-.65 2 2 0 011-.23q2.08 0 2.08 2.57v1.5a3.08 3.08 0 01-.53 2 1.91 1.91 0 01-1.65.62zm6.51-4.38a3.07 3.07 0 01-.44 1.81 1.53 1.53 0 01-1.32.61 1.5 1.5 0 01-1.3-.61 3 3 0 01-.44-1.79 2.84 2.84 0 01.45-1.71 1.51 1.51 0 011.3-.62 1.6 1.6 0 01.84.2 1.34 1.34 0 01.52.67 1.37 1.37 0 01.52-.67 1.57 1.57 0 01.84-.21 1.51 1.51 0 011.28.61 2.75 2.75 0 01.46 1.68 5.14 5.14 0 01-.13 1.19 6.22 6.22 0 01-.41 1.15h-.76a6.14 6.14 0 00.42-1.16 5 5 0 00.14-1.2 2.33 2.33 0 00-.27-1.22.86.86 0 00-.77-.44.83.83 0 00-.73.34 1.79 1.79 0 00-.23 1zm-.75 0a2.84 2.84 0 00-.22-1.3.8.8 0 00-.77-.39.84.84 0 00-.76.44 2.45 2.45 0 00-.27 1.26 2.76 2.76 0 00.25 1.32.82.82 0 00.76.45.8.8 0 00.76-.45 2.88 2.88 0 00.25-1.32zm-58.4 25.52v-.7h2.18v.7zm3.56-.39a3 3 0 01.48-1.81 1.6 1.6 0 011.36-.67 1.39 1.39 0 011.45.93 1.56 1.56 0 01.56-.71 1.62 1.62 0 01.89-.22 1.6 1.6 0 011.36.66 3 3 0 01.49 1.81 3.21 3.21 0 01-.47 1.88 1.59 1.59 0 01-1.33.65 1.62 1.62 0 01-1.4-.65 3.24 3.24 0 01-.47-1.91v-.34a2 2 0 00-.24-1.1.86.86 0 00-.78-.37.91.91 0 00-.82.47 2.57 2.57 0 00-.29 1.34 3.77 3.77 0 00.2 1.33 2.22 2.22 0 00.61.88 3 3 0 001.09.58 6.62 6.62 0 011 .39 2.35 2.35 0 011.11 1.08l-.63.35a1.91 1.91 0 00-.79-.81 2.3 2.3 0 00-1.17-.3 2.92 2.92 0 00-.75.09 3.91 3.91 0 00-.78.33l-.28-.64a4.4 4.4 0 01.5-.21 5.53 5.53 0 01.64-.16 2.86 2.86 0 01-1.13-1.15 3.72 3.72 0 01-.41-1.72zm3.72 0a3 3 0 00.26 1.42.85.85 0 00.8.47.87.87 0 00.8-.48 2.91 2.91 0 00.27-1.4 2.65 2.65 0 00-.28-1.34.85.85 0 00-.76-.46.91.91 0 00-.84.41 2.79 2.79 0 00-.26 1.36zm6.08-2.38v.22a.79.79 0 00.17.5 2.86 2.86 0 00.59.52 3.65 3.65 0 01.64.54 1.72 1.72 0 01.3.51 1.74 1.74 0 01.11.62 1.86 1.86 0 01-.6 1.45 2.31 2.31 0 01-1.61.54 2.36 2.36 0 01-1.6-.5 1.75 1.75 0 01-.58-1.4 3.33 3.33 0 01.08-.71h.84a2.34 2.34 0 00-.1.72 1.18 1.18 0 00.34.91 1.48 1.48 0 001 .32 1.44 1.44 0 001-.34 1.22 1.22 0 00.37-1 1.1 1.1 0 00-.19-.6 2.69 2.69 0 00-.64-.63 2.87 2.87 0 01-.75-.74 1.51 1.51 0 01-.2-.8v-.13zm4.96-1.35a1.39 1.39 0 00-1.12.46 3 3 0 00-.54 1.53 1.64 1.64 0 01.62-.55 2 2 0 01.86-.17 1.93 1.93 0 011.55.65 2.77 2.77 0 01.55 1.84 2.67 2.67 0 01-.59 1.86 2.14 2.14 0 01-1.6.63 2.18 2.18 0 01-1.29-.34 2 2 0 01-.7-1.06 6.08 6.08 0 01-.21-1.77 5.26 5.26 0 01.6-2.79 2 2 0 011.78-.95h1.56v.66zm-.24 1.92a1.29 1.29 0 00-1.06.45 2 2 0 00-.37 1.3 2.41 2.41 0 00.36 1.44 1.21 1.21 0 001 .49 1.25 1.25 0 001.06-.47 2.25 2.25 0 00.36-1.39 2.23 2.23 0 00-.35-1.36 1.24 1.24 0 00-1.01-.45z" fill="#fff"/></svg>