<svg xmlns="http://www.w3.org/2000/svg" viewBox="10 10 135 40"><defs><linearGradient id="a" x1="31.8" y1="-96.71" x2="15.02" y2="-113.49" gradientTransform="matrix(1 0 0 -1 0 -78)" gradientUnits="userSpaceOnUse"><stop offset="0" stop-color="#00a0ff"/><stop offset=".01" stop-color="#00a1ff"/><stop offset=".26" stop-color="#00beff"/><stop offset=".51" stop-color="#00d2ff"/><stop offset=".76" stop-color="#00dfff"/><stop offset="1" stop-color="#00e3ff"/></linearGradient><linearGradient id="b" x1="43.83" y1="-108" x2="19.64" y2="-108" gradientTransform="matrix(1 0 0 -1 0 -78)" gradientUnits="userSpaceOnUse"><stop offset="0" stop-color="#ffe000"/><stop offset=".41" stop-color="#ffbd00"/><stop offset=".78" stop-color="orange"/><stop offset="1" stop-color="#ff9c00"/></linearGradient><linearGradient id="c" x1="34.83" y1="-110.3" x2="12.07" y2="-133.05" gradientTransform="matrix(1 0 0 -1 0 -78)" gradientUnits="userSpaceOnUse"><stop offset="0" stop-color="#ff3a44"/><stop offset="1" stop-color="#c31162"/></linearGradient><linearGradient id="d" x1="17.3" y1="-88.18" x2="27.46" y2="-98.34" gradientTransform="matrix(1 0 0 -1 0 -78)" gradientUnits="userSpaceOnUse"><stop offset="0" stop-color="#32a071"/><stop offset=".07" stop-color="#2da771"/><stop offset=".48" stop-color="#15cf74"/><stop offset=".8" stop-color="#06e775"/><stop offset="1" stop-color="#00f076"/></linearGradient></defs><path fill="none" d="M0 0h155v60H0z"/><rect x="10" y="10" width="135" height="40" rx="5" ry="5"/><path d="M140 10.8a4.2 4.2 0 014.2 4.2v30a4.2 4.2 0 01-4.2 4.2H15a4.2 4.2 0 01-4.2-4.2V15a4.2 4.2 0 014.2-4.2h125m0-.8H15a5 5 0 00-5 5v30a5 5 0 005 5h125a5 5 0 005-5V15a5 5 0 00-5-5z" fill="#a6a6a6"/><path d="M74.72 26.79a3.72 3.72 0 103.73 3.72 3.66 3.66 0 00-3.73-3.72zm0 6a2.26 2.26 0 112.1-2.25 2.15 2.15 0 01-2.1 2.22zm-8.14-6a3.72 3.72 0 103.73 3.72 3.66 3.66 0 00-3.73-3.72zm0 6a2.26 2.26 0 112.1-2.25 2.15 2.15 0 01-2.1 2.22zm-9.68-4.86v1.58h3.77a3.29 3.29 0 01-.86 2 3.86 3.86 0 01-2.91 1.15 4.2 4.2 0 010-8.39 4 4 0 012.84 1.13l1.11-1.11a5.5 5.5 0 00-4-1.59 5.77 5.77 0 100 11.55 5.28 5.28 0 004-1.62 5.21 5.21 0 001.37-3.69 5.14 5.14 0 00-.08-1zm39.6 1.23a3.46 3.46 0 00-3.18-2.37 3.53 3.53 0 00-3.51 3.72 3.64 3.64 0 003.69 3.72 3.7 3.7 0 003.1-1.65l-1.27-.84a2.12 2.12 0 01-1.83 1 1.89 1.89 0 01-1.8-1.13l5-2.06zm-5.07 1.24a2 2 0 011.94-2.17 1.44 1.44 0 011.38.79zm-4 3.61H89V23.07h-1.61zm-2.68-6.38h-.06a2.58 2.58 0 00-2-.83 3.72 3.72 0 000 7.44 2.53 2.53 0 002-.84h.06v.54c0 1.42-.76 2.18-2 2.18a2.06 2.06 0 01-1.87-1.32l-1.42.59a3.54 3.54 0 003.3 2.2c1.92 0 3.53-1.13 3.53-3.87V27h-1.57zm-1.87 5.14a2.26 2.26 0 010-4.51 2.1 2.1 0 012 2.27 2.08 2.08 0 01-2.04 2.23zm21.31-9.69h-3.91V34h1.63v-4.14h2.28a3.4 3.4 0 100-6.79zm0 5.27h-2.32v-3.76h2.32a1.87 1.87 0 110 3.75zm10.08-1.57a3.06 3.06 0 00-2.91 1.67l1.45.6a1.55 1.55 0 011.49-.8 1.57 1.57 0 011.7 1.4v.11a3.61 3.61 0 00-1.7-.42c-1.56 0-3.15.86-3.15 2.46a2.52 2.52 0 002.71 2.4 2.3 2.3 0 002.14-1.06V34h1.57v-4.21c.02-1.94-1.42-3.02-3.29-3.02zm-.2 6c-.53 0-1.28-.27-1.28-.93 0-.84.93-1.17 1.73-1.17A2.9 2.9 0 01116 31a2 2 0 01-1.92 1.76zm9.26-5.78l-1.87 4.74h-.06L119.46 27h-1.76l2.91 6.62-1.61 3.69h1.7L125.14 27zm-14.69 7h1.63V23.07h-1.63z" fill="#fff"/><path d="M20.44 17.54a2 2 0 00-.46 1.4v22.12a2 2 0 00.46 1.4l.07.07L32.9 30.15v-.29L20.51 17.47z" fill="url(#a)"/><path d="M37 34.28l-4.1-4.13v-.29l4.1-4.14.09.05L42 28.56c1.4.79 1.4 2.09 0 2.89l-4.89 2.78z" fill="url(#b)"/><path d="M37.12 34.22L32.9 30 20.44 42.46a1.63 1.63 0 002.08.06l14.61-8.3" fill="url(#c)"/><path d="M37.12 25.78l-14.61-8.3a1.63 1.63 0 00-2.08.06L32.9 30z" fill="url(#d)"/><path d="M37 34.13l-14.49 8.25a1.67 1.67 0 01-2 0l-.07.07.07.07a1.66 1.66 0 002 0l14.61-8.3z" style="isolation:isolate" opacity=".2"/><path d="M20.44 42.32a2 2 0 01-.46-1.4v.15a2 2 0 00.46 1.4l.07-.07zM42 31.3l-5 2.83.09.09L42 31.44A1.75 1.75 0 0043 30a1.86 1.86 0 01-1 1.3z" style="isolation:isolate" opacity=".12"/><path d="M22.51 17.62L42 28.7a1.86 1.86 0 011 1.3 1.75 1.75 0 00-1-1.44L22.51 17.48c-1.4-.79-2.54-.13-2.54 1.47v.15c.03-1.61 1.15-2.27 2.54-1.48z" style="isolation:isolate" fill="#fff" opacity=".25"/><path d="M52.21 44.85l-.66.26a2.3 2.3 0 01-.33-.64 2.2 2.2 0 01-.12-.71 1.36 1.36 0 01.37-1 1.2 1.2 0 01.91-.39 1.42 1.42 0 01.76.19 2.29 2.29 0 01.67.81 5.31 5.31 0 00.41.64 1.05 1.05 0 00.34.28 1 1 0 00.46.1.71.71 0 00.6-.28 1.25 1.25 0 00.21-.77 2.47 2.47 0 00-.52-1.54A2.31 2.31 0 0054 41h-2.89v-.66h3.61a3.42 3.42 0 00.67 0 .57.57 0 00.33-.18.53.53 0 00.11-.35 1.54 1.54 0 00-.55-1.08l.55-.37a3.28 3.28 0 01.52.74 1.73 1.73 0 01.17.77 1.09 1.09 0 01-.31.79 1.46 1.46 0 01-1 .38 3 3 0 01.95 1 2.73 2.73 0 01.33 1.33 1.9 1.9 0 01-.42 1.31 1.48 1.48 0 01-1.16.47 1.56 1.56 0 01-.65-.13 1.45 1.45 0 01-.49-.36 4.16 4.16 0 01-.47-.67 5.34 5.34 0 00-.36-.55 1 1 0 00-.28-.26.63.63 0 00-.32-.08.55.55 0 00-.44.18.74.74 0 00-.16.5 1.94 1.94 0 00.47 1.07zm5.43-2.43a1.88 1.88 0 00.59 1.45 2.36 2.36 0 001.66.54 2.42 2.42 0 001.82-.67 2.6 2.6 0 00.65-1.89 4.58 4.58 0 00-.13-1.07 3.14 3.14 0 00-.37-.92 1.27 1.27 0 01-.49.54 1.4 1.4 0 01-.74.19 1.31 1.31 0 01-.88-.27 1 1 0 01-.32-.77.93.93 0 01.34-.74 1.35 1.35 0 01.9-.29 2 2 0 011.25.42 2.69 2.69 0 01.84 1.19 4.72 4.72 0 01.3 1.72 3.27 3.27 0 01-.84 2.39 3.22 3.22 0 01-2.41.86 3.28 3.28 0 01-1.53-.34 2.34 2.34 0 01-1-1 2.91 2.91 0 01-.28-1.39 2.68 2.68 0 01.22-1.12 1.78 1.78 0 01.63-.77 1.58 1.58 0 01.9-.27 1.25 1.25 0 01.89.31 1.08 1.08 0 01.33.83 1.19 1.19 0 01-.39.93 1.56 1.56 0 01-1.08.35 1.57 1.57 0 01-.86-.21zm.06-.61a1.17 1.17 0 00.71.22 1 1 0 00.64-.17.58.58 0 00.22-.48.57.57 0 00-.15-.42.55.55 0 00-.41-.15.89.89 0 00-.65.26 1.41 1.41 0 00-.36.74zm3.69-2.47a1.26 1.26 0 00-.73-.23.62.62 0 00-.41.12.4.4 0 00-.15.32.42.42 0 00.13.32.54.54 0 00.37.12.77.77 0 00.52-.17.83.83 0 00.27-.48zM64 46.13a1.48 1.48 0 01.46-.44 1.06 1.06 0 01.5-.11 1 1 0 01.77.31 1.07 1.07 0 01.3.77 1.47 1.47 0 01-.18.72 2.39 2.39 0 01-.62.69l-.4-.44a2 2 0 00.46-.46.84.84 0 00.14-.46.55.55 0 00-.13-.37.46.46 0 00-.37-.15.56.56 0 00-.44.2.85.85 0 00-.19.54h-.6a1 1 0 00-.21-.54.54.54 0 00-.42-.19.47.47 0 00-.37.14.56.56 0 00-.13.4.8.8 0 00.13.44 2.17 2.17 0 00.47.48l-.4.44a2.49 2.49 0 01-.62-.69 1.48 1.48 0 01-.19-.73 1 1 0 01.3-.75 1 1 0 01.77-.31 1.05 1.05 0 01.52.11 1.46 1.46 0 01.45.4zM66.67 41v-.66H71a3.6 3.6 0 00.66 0 .56.56 0 00.33-.18.53.53 0 00.11-.35 1.54 1.54 0 00-.55-1.08l.55-.37a3.28 3.28 0 01.52.74 1.75 1.75 0 01.17.77 1.16 1.16 0 01-.15.58 1.08 1.08 0 01-.48.43 2.39 2.39 0 01-1 .16zm5.32.34a2.9 2.9 0 01.81 2 1.92 1.92 0 01-.42 1.31 1.37 1.37 0 01-1.07.47 1.84 1.84 0 01-.81-.16 1.61 1.61 0 01-.61-.61 1.68 1.68 0 01-.6.57 2 2 0 01-1 .19 1.71 1.71 0 01-1.19-.42 1.41 1.41 0 01-.46-1.1 1.35 1.35 0 01.36-1 1.23 1.23 0 01.93-.37 1.14 1.14 0 01.73.22.7.7 0 01.34.56 1 1 0 01-.11.5l-.58-.05a.79.79 0 00.05-.27.35.35 0 00-.1-.28.41.41 0 00-.28-.09.56.56 0 00-.45.19.76.76 0 00-.17.52.79.79 0 00.28.64 1.22 1.22 0 00.8.23 1.05 1.05 0 001.17-1.08h.65a1.23 1.23 0 00.31.8 1 1 0 00.72.28.77.77 0 00.63-.27 1.22 1.22 0 00.22-.78 2.08 2.08 0 00-.18-.85 3.22 3.22 0 00-.54-.82zm-2.17.17a.48.48 0 01.35.14.49.49 0 01.15.36.48.48 0 01-.15.35.49.49 0 01-.35.15.46.46 0 01-.35-.15.49.49 0 01-.14-.35.5.5 0 01.14-.35.46.46 0 01.35-.18zm9.44-1.95a1.37 1.37 0 01-.27.87 1.32 1.32 0 01-.78.46 1.31 1.31 0 01.54.51 1.45 1.45 0 01.19.73v.17a1.9 1.9 0 01.24.53 2.21 2.21 0 01.08.61 1.7 1.7 0 01-.43 1.2 1.42 1.42 0 01-1.09.46 1.79 1.79 0 01-.84-.17 1.67 1.67 0 01-.59-.59 1.55 1.55 0 01-.53.56 1.66 1.66 0 01-.88.2 1.3 1.3 0 01-1.09-.51 2.34 2.34 0 01-.39-1.45 2.77 2.77 0 01.29-1.3 2.05 2.05 0 01.84-.87h-1.14v-.66h3.75a3.46 3.46 0 00.89-.08.71.71 0 00.38-.26.87.87 0 00.13-.51.71.71 0 00-.22-.54.8.8 0 00-.57-.21.9.9 0 00-.43.1.7.7 0 00-.29.29.5.5 0 01.33.1.32.32 0 01.12.27.38.38 0 01-.12.3.51.51 0 01-.34.11.51.51 0 01-.43-.19.75.75 0 01-.15-.49 1 1 0 01.38-.76 1.45 1.45 0 011-.32 1.35 1.35 0 011.44 1.43zM76 43.44h.65a1.21 1.21 0 00.34.73 1 1 0 00.69.26.93.93 0 00.69-.26 1 1 0 00.26-.74 2.16 2.16 0 000-.45 1.19 1.19 0 01-.9.37 1.13 1.13 0 01-.75-.24.82.82 0 01-.28-.67.79.79 0 01.27-.63 1 1 0 01.7-.23 1.45 1.45 0 01.65.14 1.25 1.25 0 00-.63-.55 2.58 2.58 0 00-1.06-.2h-.29a2.08 2.08 0 00-1.57.6 2.18 2.18 0 00-.57 1.58 1.77 1.77 0 00.21 1 .74.74 0 00.66.32.88.88 0 00.65-.26 1.35 1.35 0 00.28-.77zm2.32-1a.78.78 0 00-.62-.31.46.46 0 00-.3.09.3.3 0 00-.11.25q0 .37.44.37a.66.66 0 00.36-.11.54.54 0 00.21-.32zM81 41h-1.15v-.66h4a3.85 3.85 0 00.65 0 .6.6 0 00.34-.17.52.52 0 00.12-.36 1.55 1.55 0 00-.55-1.08l.55-.37a3.28 3.28 0 01.52.74 1.75 1.75 0 01.17.77 1.08 1.08 0 01-.28.76 1.35 1.35 0 01-.85.39 2.2 2.2 0 01.83.9 2.79 2.79 0 01.29 1.29 2.32 2.32 0 01-.4 1.46 1.34 1.34 0 01-1.12.51 1.64 1.64 0 01-.8-.18 1.71 1.71 0 01-.58-.59 1.55 1.55 0 01-.53.56 1.66 1.66 0 01-.88.2 1.3 1.3 0 01-1.09-.51 2.34 2.34 0 01-.39-1.45 2.77 2.77 0 01.29-1.3A2.05 2.05 0 0181 41zm1.43 2.37h.65a1.22 1.22 0 00.31.79.91.91 0 00.68.29q.89 0 .89-1.27A2.48 2.48 0 0084.7 42a1.85 1.85 0 00-.74-.78 2.21 2.21 0 00-1.12-.22h-.14a2.35 2.35 0 00-1.14.27 1.79 1.79 0 00-.75.77 2.44 2.44 0 00-.26 1.14 1.76 1.76 0 00.21 1 .74.74 0 00.66.32.89.89 0 00.68-.29 1.29 1.29 0 00.32-.87z" fill="#fff" stroke="#fff" stroke-miterlimit="10" stroke-width=".2"/><path d="M85 44l.44-.46a2.9 2.9 0 00.76.71 1.6 1.6 0 00.83.22 1 1 0 00.79-.33 1.31 1.31 0 00.29-.89 2.36 2.36 0 00-.42-1.4 2.94 2.94 0 00-1.25-1l.37-.66a3.75 3.75 0 011.49 1.25 3 3 0 01.51 1.73 2 2 0 01-.48 1.41 1.71 1.71 0 01-1.33.52 2.09 2.09 0 01-1-.27 3.37 3.37 0 01-1-.83zm6.83-3a.85.85 0 01.14.44.73.73 0 01-.11.4h1.72v.59h-.83a1.27 1.27 0 01.47.48 1.31 1.31 0 01.16.65 1.41 1.41 0 01-.52 1.16 2.27 2.27 0 01-1.46.42 2.14 2.14 0 01-1.4-.43 1.4 1.4 0 01-.51-1.14 1.32 1.32 0 01.61-1.14h-.8v-.59h1.77a.49.49 0 00.22-.41.77.77 0 00-.14-.43H89.3v-.66h2.22a3.45 3.45 0 00.89-.08.71.71 0 00.38-.26.87.87 0 00.13-.51.71.71 0 00-.22-.54.79.79 0 00-.57-.21.9.9 0 00-.43.1.69.69 0 00-.29.29.5.5 0 01.33.1.33.33 0 01.12.27.38.38 0 01-.12.3.51.51 0 01-.34.11.51.51 0 01-.4-.21.75.75 0 01-.15-.49 1 1 0 01.38-.76 1.45 1.45 0 011-.32 1.35 1.35 0 011.44 1.43 1.31 1.31 0 01-.42 1 2.08 2.08 0 01-1.42.44zm-.39 1.43a1.4 1.4 0 00-.94.28 1 1 0 00-.33.76.89.89 0 00.32.73 1.8 1.8 0 001.88 0 .89.89 0 00.33-.73.94.94 0 00-.33-.76 1.43 1.43 0 00-.93-.31z" fill="#fff" stroke="#fff" stroke-miterlimit="10" stroke-width=".2"/><path d="M92.84 44.06l.46-.49a2.82 2.82 0 00.64.65 1.23 1.23 0 00.7.21.72.72 0 00.54-.19.79.79 0 00.18-.56V42.25a2.13 2.13 0 01.27-1.08 1.77 1.77 0 01.76-.71 2.44 2.44 0 011.11-.25 2.51 2.51 0 011.32.34 2.18 2.18 0 01.85 1A3.42 3.42 0 0199.9 43a2.33 2.33 0 01-.48 1.55 1.64 1.64 0 01-1.32.57 1.47 1.47 0 01-1.1-.4 1.3 1.3 0 01-.39-1 1.2 1.2 0 01.27-.82.86.86 0 01.68-.3.73.73 0 01.49.15.53.53 0 01.18.42.55.55 0 01-.14.39.43.43 0 01-.33.15.55.55 0 01-.33-.09.38.38 0 01-.15-.27.94.94 0 000 .31.79.79 0 00.22.58.85.85 0 00.63.22 1 1 0 00.8-.39A1.79 1.79 0 0099.2 43a2.39 2.39 0 00-.47-1.53 1.55 1.55 0 00-1.29-.59A1.33 1.33 0 0096 42.33v1.36a1.38 1.38 0 01-.39 1 1.42 1.42 0 01-1 .37 1.81 1.81 0 01-.9-.24 3.64 3.64 0 01-.87-.76zm11.9-4.21a1.26 1.26 0 01-.49.54 1.4 1.4 0 01-.74.19 1.31 1.31 0 01-.88-.27 1 1 0 01-.32-.77.93.93 0 01.34-.74 1.35 1.35 0 01.91-.29 1.91 1.91 0 011.16.37 2.42 2.42 0 01.79 1 3.44 3.44 0 01.28 1.38 2.47 2.47 0 01-.4 1.48 2.05 2.05 0 01-1.21.76.82.82 0 01.2.57.87.87 0 01-.35.73 1.9 1.9 0 01-1.93 0 .84.84 0 01-.36-.73.78.78 0 01.25-.58 2.41 2.41 0 01-1.29-.65 1.6 1.6 0 01-.47-1.15 1.52 1.52 0 01.4-1.1 1.44 1.44 0 011.09-.42 1.28 1.28 0 01.85.28.93.93 0 01.33.75 1 1 0 01-.36.83 1.61 1.61 0 01-1.05.3 1.85 1.85 0 01-.46-.07 1.28 1.28 0 00.53.43 2.82 2.82 0 00.8.23 5.39 5.39 0 00.72.07 3.72 3.72 0 001-.13 1.39 1.39 0 00.78-.52 1.77 1.77 0 00.29-1.08 3.11 3.11 0 00-.1-.76 2.59 2.59 0 00-.31-.65zm-3.89 1.82a1.46 1.46 0 00.56.1 1.14 1.14 0 00.61-.13.43.43 0 00.21-.38.4.4 0 00-.15-.33.64.64 0 00-.41-.12.78.78 0 00-.59.23.84.84 0 00-.22.61zm2.2 1.86a1.08 1.08 0 00-.28 0 .55.55 0 00-.27.17.44.44 0 00-.11.3.38.38 0 00.18.33.86.86 0 00.5.12.88.88 0 00.5-.12.38.38 0 00.17-.34.43.43 0 00-.2-.38.82.82 0 00-.48-.07zm1.22-4.2a1.26 1.26 0 00-.73-.22.62.62 0 00-.41.12.4.4 0 00-.15.32.42.42 0 00.13.32.54.54 0 00.37.12.8.8 0 00.52-.16.79.79 0 00.27-.49zm1.46 8.1a.5.5 0 01.12.34.51.51 0 01-.25.45 1.37 1.37 0 01-.74.16 1.32 1.32 0 01-.7-.16.5.5 0 01-.26-.45.46.46 0 01.15-.34 1.68 1.68 0 01-.84-.41.94.94 0 01-.29-.69.92.92 0 01.29-.7 1.08 1.08 0 01.77-.27 1 1 0 01.66.2.65.65 0 01.25.53q0 .74-.9.73h-.27a2.71 2.71 0 001.16.17 2.66 2.66 0 00.51-.07 1 1 0 00.52-.27.75.75 0 00.2-.55 2.44 2.44 0 00-.52-1.4l.57-.28a4.23 4.23 0 01.46.88 2.35 2.35 0 01.13.79 1.39 1.39 0 01-.26.86 1.41 1.41 0 01-.76.48zm-2.26-1.09a1 1 0 00.4.07c.3 0 .45-.09.45-.28s-.12-.25-.36-.25a.51.51 0 00-.36.12.41.41 0 00-.13.32zm1.4 1.11a.57.57 0 00-.27.06.2.2 0 00-.12.18.18.18 0 00.1.15.58.58 0 00.3.06c.26 0 .39-.07.39-.21a.2.2 0 00-.13-.18.61.61 0 00-.26-.07zm-48.26-30.1V18H54v-.65h1.52a1.28 1.28 0 01-.5-1 1 1 0 01.33-.76 1.22 1.22 0 01.87-.31 1.45 1.45 0 011.19.55 2.21 2.21 0 01.44 1.44 2.69 2.69 0 01-.85 2.1 3.88 3.88 0 01-2.56.73 3.62 3.62 0 01-2.44-.74 2.5 2.5 0 01-.87-2 2.37 2.37 0 01.49-1.57 1.57 1.57 0 011.26-.58 1.24 1.24 0 01.89.31 1.09 1.09 0 01.33.83 1.18 1.18 0 01-.39.93 1.57 1.57 0 01-1.08.35 1.63 1.63 0 01-.81-.21 1.86 1.86 0 00.72 1.45 3 3 0 001.87.53 3.32 3.32 0 002.08-.53 2 2 0 00.67-1.66 1.79 1.79 0 00-.25-1 .77.77 0 00-.68-.37.53.53 0 00-.39.16.58.58 0 00-.16.43.74.74 0 00.24.54 1.65 1.65 0 00.69.38zm-4.74-.56a1.15 1.15 0 00.71.25 1 1 0 00.64-.17.58.58 0 00.22-.48.57.57 0 00-.15-.42.55.55 0 00-.4-.15.91.91 0 00-.66.25 1.34 1.34 0 00-.36.72zm7.69-.79h-1.14v-.66h4a3.85 3.85 0 00.65 0 .6.6 0 00.34-.17.52.52 0 00.12-.36 1.55 1.55 0 00-.53-1.16l.55-.37A3.29 3.29 0 0164 14a1.75 1.75 0 01.17.77 1.08 1.08 0 01-.28.76 1.35 1.35 0 01-.85.39 2.2 2.2 0 01.83.9 2.79 2.79 0 01.29 1.29 2.32 2.32 0 01-.4 1.46 1.34 1.34 0 01-1.12.51 1.64 1.64 0 01-.8-.18 1.71 1.71 0 01-.59-.59 1.55 1.55 0 01-.53.56 1.66 1.66 0 01-.88.2 1.3 1.3 0 01-1.09-.51 2.34 2.34 0 01-.39-1.45 2.77 2.77 0 01.3-1.3 2.05 2.05 0 01.9-.81zM61 18.34h.65a1.22 1.22 0 00.31.79.91.91 0 00.68.29q.89 0 .89-1.27a2.48 2.48 0 00-.26-1.15 1.85 1.85 0 00-.74-.78 2.21 2.21 0 00-1.12-.22h-.14a2.35 2.35 0 00-1.14.27 1.79 1.79 0 00-.75.77 2.44 2.44 0 00-.26 1.14 1.76 1.76 0 00.21 1 .74.74 0 00.66.32.89.89 0 00.68-.29 1.29 1.29 0 00.33-.87zm4.86 1.51l-.66.26a2.3 2.3 0 01-.33-.64 2.2 2.2 0 01-.12-.71 1.36 1.36 0 01.37-1 1.2 1.2 0 01.91-.39 1.42 1.42 0 01.76.19 2.29 2.29 0 01.67.81 5.33 5.33 0 00.41.64 1.06 1.06 0 00.34.28 1 1 0 00.46.1.71.71 0 00.6-.28 1.25 1.25 0 00.21-.77 2.47 2.47 0 00-.48-1.49 2.31 2.31 0 00-1.4-.85h-2.84v-.66h3.61a3.42 3.42 0 00.67 0 .57.57 0 00.33-.18.53.53 0 00.11-.35 1.54 1.54 0 00-.55-1.08l.55-.37A3.28 3.28 0 0170 14a1.73 1.73 0 01.17.77 1.09 1.09 0 01-.31.79 1.46 1.46 0 01-1 .38 3 3 0 01.95 1 2.73 2.73 0 01.33 1.33 1.9 1.9 0 01-.42 1.31 1.48 1.48 0 01-1.16.47 1.56 1.56 0 01-.65-.13 1.45 1.45 0 01-.49-.36 4.16 4.16 0 01-.47-.67 5.34 5.34 0 00-.36-.55 1 1 0 00-.28-.26.63.63 0 00-.32-.08.55.55 0 00-.44.18.74.74 0 00-.16.5 1.94 1.94 0 00.47 1.17z" fill="#fff" stroke="#fff" stroke-miterlimit="10" stroke-width=".2"/><path d="M69.51 19l.44-.46a2.9 2.9 0 00.76.71 1.6 1.6 0 00.83.22 1 1 0 00.79-.33 1.31 1.31 0 00.29-.89 2.36 2.36 0 00-.42-1.4 2.94 2.94 0 00-1.25-1l.37-.66a3.75 3.75 0 011.49 1.25 3 3 0 01.51 1.73 2 2 0 01-.48 1.41 1.71 1.71 0 01-1.32.52 2.09 2.09 0 01-1-.27 3.37 3.37 0 01-1.01-.83zm4.03 2.66a1.3 1.3 0 00.26-.42 1.47 1.47 0 00.08-.51 2.09 2.09 0 00-.25-1l.56-.28a1.8 1.8 0 01.25.56 2.48 2.48 0 01.09.67 2.06 2.06 0 01-.17.86 1.88 1.88 0 01-.52.67.83.83 0 00.27.28.78.78 0 00.39.08h.31l.11.57a.71.71 0 01-.2.05h-.22a1.29 1.29 0 01-.66-.15 1.46 1.46 0 01-.48-.51 2.73 2.73 0 01-1.14.24 1.49 1.49 0 01-1-.31 1 1 0 01-.36-.81.94.94 0 01.32-.74 1.22 1.22 0 01.83-.28 1.4 1.4 0 01.82.23 2.83 2.83 0 01.71.8zm-.45.32a2.43 2.43 0 00-.52-.68.83.83 0 00-.53-.2.58.58 0 00-.4.13.43.43 0 00-.15.34.49.49 0 00.19.42.93.93 0 00.57.15 2.06 2.06 0 00.83-.14z" fill="#fff" stroke="#fff" stroke-miterlimit="10" stroke-width=".2"/></svg>