<svg xmlns="http://www.w3.org/2000/svg" id="artwork" viewBox="0 0 238.96 70.87"><defs><style>.st4{fill:#fff}</style></defs><rect width="238.96" height="70.8" rx="8.85" ry="8.85"/><path d="M230.11 1.42c4.11 0 7.43 3.33 7.43 7.43v53.1c0 4.11-3.33 7.43-7.43 7.43H8.85c-4.11 0-7.43-3.33-7.43-7.43V8.85c0-4.11 3.32-7.43 7.43-7.43zm0-1.42H8.85C3.98 0 0 3.98 0 8.85v53.1c0 4.87 3.98 8.85 8.85 8.85h221.26c4.87 0 8.85-3.98 8.85-8.85V8.85c0-4.87-3.98-8.85-8.85-8.85" style="fill:#a6a6a6"/><path d="m36.68 34.37-18.85 20a5.09 5.09 0 0 0 4.92 3.77c.94 0 1.82-.25 2.58-.71l.05-.04 21.21-12.23-9.93-10.82h.02v.02Z" style="fill:#ea4335"/><path d="M55.74 30.98h-.02l-9.15-5.33-10.32 9.19L46.6 45.19l9.12-5.26c1.59-.87 2.67-2.55 2.67-4.48s-1.06-3.61-2.66-4.46v-.02Z" style="fill:#fbbc04"/><path d="M17.82 16.43c-.11.42-.18.85-.18 1.31v35.35c0 .46.05.89.18 1.31l19.49-19.49z" style="fill:#4285f4"/><path d="m36.82 35.4 9.75-9.75-21.19-12.28a5.111 5.111 0 0 0-7.56 3.04l18.99 18.98v.02Z" style="fill:#34a853"/><path d="M79.76 22.57v1.61h5.4c-.05.65-.19 1.24-.41 1.79s-.5.99-.85 1.38c-.48.5-1.04.9-1.7 1.2-.65.3-1.47.46-2.46.46s-1.98-.25-2.87-.74c-.9-.5-1.61-1.19-2.14-2.09s-.8-1.95-.8-3.13.27-2.21.8-3.12 1.26-1.61 2.14-2.09c.89-.5 1.84-.74 2.89-.74.83 0 1.59.16 2.32.46s1.31.74 1.77 1.31l1.24-1.24c-.62-.69-1.38-1.22-2.34-1.61s-1.95-.57-3.03-.57c-1.36 0-2.64.34-3.79.99-1.15.67-2.07 1.58-2.74 2.74s-1.01 2.46-1.01 3.86.34 2.71 1.01 3.88 1.59 2.09 2.74 2.74c1.15.67 2.41.99 3.79.99 2.23 0 4.02-.73 5.35-2.18.62-.64 1.08-1.38 1.36-2.23s.42-1.72.42-2.62c0-.32-.04-.67-.11-1.06h-7.01.02ZM96.45 20.36c-.81-.5-1.73-.73-2.74-.73s-1.93.25-2.74.73c-.81.5-1.45 1.15-1.91 2s-.69 1.77-.69 2.8.23 1.95.69 2.8 1.1 1.5 1.91 2 1.73.73 2.74.73 1.93-.25 2.74-.73c.81-.5 1.45-1.15 1.91-2 .46-.83.69-1.77.69-2.8s-.23-1.95-.69-2.8-1.1-1.5-1.91-2m.36 6.86c-.34.6-.78 1.06-1.33 1.38s-1.15.48-1.79.48-1.24-.16-1.79-.48-1.01-.78-1.33-1.38c-.34-.6-.5-1.29-.5-2.09s.16-1.5.5-2.09c.34-.6.78-1.06 1.33-1.38s1.15-.48 1.79-.48 1.24.16 1.79.48.99.78 1.33 1.38.5 1.29.5 2.09-.16 1.5-.5 2.09M108.58 20.36c-.81-.5-1.73-.73-2.74-.73s-1.93.25-2.74.73c-.81.5-1.45 1.15-1.91 2s-.69 1.77-.69 2.8.23 1.95.69 2.8 1.1 1.5 1.91 2 1.73.73 2.74.73 1.93-.25 2.74-.73c.81-.5 1.45-1.15 1.91-2 .46-.83.69-1.77.69-2.8s-.23-1.95-.69-2.8-1.1-1.5-1.91-2m.35 6.86c-.34.6-.78 1.06-1.33 1.38s-1.15.48-1.79.48-1.24-.16-1.79-.48-1.01-.78-1.33-1.38c-.34-.6-.5-1.29-.5-2.09s.16-1.5.5-2.09c.34-.6.78-1.06 1.33-1.38s1.15-.48 1.79-.48 1.24.16 1.79.48.99.78 1.33 1.38.5 1.29.5 2.09-.16 1.5-.5 2.09M121.13 21.42h-.09c-.34-.55-.81-.97-1.43-1.31s-1.33-.5-2.11-.5c-.9 0-1.72.23-2.46.71-.74.46-1.33 1.12-1.75 1.96-.44.85-.65 1.79-.65 2.85s.21 2.02.65 2.87c.44.83 1.03 1.49 1.75 1.96q1.11.69 2.46.69c.78 0 1.49-.16 2.11-.5s1.1-.76 1.43-1.29h.09v1.17c0 1.12-.3 1.96-.89 2.57s-1.42.9-2.5.9c-.73 0-1.36-.19-1.91-.57s-.92-.85-1.15-1.45l-1.58.67c.27.8.8 1.49 1.59 2.05.8.57 1.81.85 3.03.85 1.5 0 2.73-.44 3.65-1.31s1.38-2.14 1.38-3.82v-9.97h-1.65v1.49l.02-.04Zm-.46 5.82c-.3.58-.71 1.04-1.22 1.36s-1.08.48-1.7.48-1.19-.16-1.72-.46c-.51-.32-.92-.76-1.24-1.36s-.46-1.31-.46-2.12.16-1.52.46-2.11.71-1.04 1.24-1.36c.51-.32 1.08-.48 1.72-.48s1.19.16 1.7.46.92.76 1.22 1.35c.3.58.46 1.31.46 2.12s-.16 1.52-.46 2.11v.02ZM125.46 15.75h1.73v14.57h-1.73zM136.95 20.3c-.74-.46-1.63-.67-2.66-.67s-1.89.25-2.66.76c-.76.5-1.35 1.17-1.75 2.02-.41.85-.62 1.77-.62 2.76s.21 1.98.65 2.81 1.06 1.49 1.84 1.96 1.68.71 2.67.71c1.08 0 2.02-.25 2.78-.73a5.25 5.25 0 0 0 1.82-2l-1.47-.71c-.73 1.26-1.75 1.88-3.08 1.88-.57 0-1.12-.14-1.65-.41s-.96-.67-1.29-1.22c-.34-.55-.53-1.2-.57-2h8.2c.04-.14.07-.32.07-.53 0-1.03-.19-1.95-.6-2.74-.41-.8-.97-1.43-1.72-1.88l.02-.02Zm-5.84 3.74c.18-.85.55-1.54 1.12-2.07s1.26-.78 2.07-.78c.71 0 1.29.14 1.75.44s.81.67 1.03 1.1c.21.44.34.87.37 1.31zM153.52 16.3c-.69-.37-1.45-.55-2.27-.55h-4.9v14.57h1.72v-5.95h3.19c.81 0 1.58-.18 2.27-.55s1.24-.89 1.66-1.54c.41-.65.62-1.4.62-2.23s-.21-1.58-.62-2.23-.97-1.17-1.66-1.54v.02Zm.18 5.05c-.23.41-.55.74-.97.99s-.89.39-1.43.39h-3.24V17.4h3.24c.55 0 1.03.12 1.43.39s.74.58.97.99.35.83.35 1.27-.12.87-.35 1.27v.02ZM157.61 15.75h1.73v14.57h-1.73zM165.84 19.61c-.87 0-1.66.18-2.37.53s-1.27.85-1.68 1.47l1.31.97c.28-.44.67-.8 1.17-1.04.5-.25 1.03-.37 1.61-.37.83 0 1.5.23 2.05.71s.81 1.1.81 1.86v.64c-.28-.18-.69-.34-1.24-.46-.53-.14-1.12-.21-1.73-.21-1.26 0-2.3.3-3.13.92s-1.24 1.47-1.24 2.57c0 .67.16 1.26.5 1.79.32.51.78.94 1.38 1.24s1.27.44 2.04.44 1.42-.18 2.02-.53 1.04-.78 1.35-1.27h.09v1.49h1.65v-6.57c0-1.27-.41-2.28-1.2-3.03s-1.91-1.12-3.33-1.12l-.04-.02Zm2.44 7.86c-.3.5-.69.9-1.2 1.2-.5.3-1.04.44-1.63.44-.67 0-1.22-.18-1.65-.53-.44-.35-.65-.81-.65-1.38 0-.62.25-1.13.73-1.52s1.2-.58 2.14-.58c.53 0 1.03.07 1.5.19.48.14.89.32 1.2.53 0 .6-.14 1.15-.44 1.65M179.54 19.93l-3.13 7.72h-.04l-3.26-7.72h-1.87l4.3 9.74-2.32 5.04h1.79l6.41-14.78zM78.08 51.58c-.65.07-1.33.12-2.05.16s-1.52.05-2.43.05h-.35v-7.65h5.65v-.57h-6.32v8.8h1.01c.92 0 1.73 0 2.46-.04s1.42-.07 2.07-.14 1.35-.18 2.05-.3l-.11-.6c-.69.14-1.36.23-2 .3l.02-.02ZM82.27 42.2h-.65v13.66h.65v-7.4h2.46v-.58h-2.46zM88.54 51.6h-.66v3.91h9.33v-.6h-8.67z" class="st4"/><path d="M86.2 49.97h5.95v3.11h.69v-3.11h5.75v-.6H86.2zM89.9 47.63c.71.21 1.52.32 2.48.32s1.79-.11 2.48-.32c.71-.21 1.24-.51 1.63-.92s.58-.87.58-1.42-.19-1.04-.58-1.45-.92-.71-1.63-.92-1.54-.32-2.48-.32-1.77.11-2.48.32-1.24.51-1.63.92-.58.89-.58 1.45.19 1.01.58 1.42.92.71 1.63.92m-1.02-3.43c.34-.32.81-.57 1.42-.74s1.29-.27 2.09-.27 1.5.09 2.09.27 1.06.42 1.4.74.51.67.51 1.1-.18.78-.51 1.1-.81.57-1.4.73-1.29.25-2.09.25-1.49-.09-2.09-.25-1.06-.41-1.42-.73-.51-.69-.51-1.1.18-.78.51-1.1M106.36 50.46h4.59v-.56h-8.78v-2.78h8.46v-3.81h-9.15v.59h8.48v2.67h-8.43v3.89h4.18v2.98h-5.82v.6h12.39v-.6h-5.92zM125.22 48.94h-8.54v-4.79h8.36v-.57h-9.03v5.95h9.21zM114.35 53.26h12.39v.58h-12.39zM193.72 20.99h-3.01c-.04-1.04-.18-1.98-.44-2.78-.32-.9-.76-1.59-1.33-2.09s-1.24-.74-2-.74-1.4.25-1.98.74c-.57.5-1.01 1.19-1.33 2.09s-.48 1.96-.48 3.2.16 2.3.48 3.22c.32.9.76 1.61 1.33 2.11s1.22.74 1.98.74 1.43-.25 2-.74 1.01-1.2 1.33-2.11c.28-.81.42-1.79.46-2.87h2.99v8.97h.85V14.14h-.85v6.87zm-4.18 3.15c-.25.8-.58 1.42-1.04 1.88s-.97.69-1.58.69-1.1-.23-1.54-.69-.8-1.1-1.04-1.88c-.25-.8-.37-1.7-.37-2.73s.12-1.93.37-2.73.58-1.42 1.04-1.86.96-.67 1.54-.67 1.12.23 1.58.67.8 1.06 1.04 1.86.37 1.7.37 2.73-.12 1.93-.37 2.73M197.2 13.67h.87v18.05h-.87zM208.55 23.65a9 9 0 0 1-1.17-2.19c-.3-.78-.44-1.56-.44-2.35v-3.75h-.9v3.75c0 .81-.14 1.63-.42 2.44s-.67 1.58-1.13 2.3c-.48.73-.99 1.36-1.58 1.93s-1.15.99-1.73 1.31l.57.69c.6-.35 1.19-.83 1.79-1.43s1.13-1.29 1.63-2.07.89-1.61 1.17-2.48c.07-.23.11-.44.16-.67.05.19.09.39.16.58.3.85.69 1.65 1.19 2.39s1.04 1.4 1.66 1.98 1.22 1.04 1.86 1.38l.53-.73c-.58-.28-1.17-.69-1.73-1.22-.58-.53-1.12-1.13-1.59-1.82v-.04ZM214.76 13.67v6.51h-4.79v.76h4.79v10.78h.87V13.67z" class="st4"/></svg>