<svg xmlns="http://www.w3.org/2000/svg" viewBox="10 10 135 40"><defs><linearGradient id="a" x1="31.8" y1="43.29" x2="15.02" y2="26.51" gradientTransform="matrix(1 0 0 -1 0 62)" gradientUnits="userSpaceOnUse"><stop offset="0" stop-color="#00a0ff"/><stop offset=".01" stop-color="#00a1ff"/><stop offset=".26" stop-color="#00beff"/><stop offset=".51" stop-color="#00d2ff"/><stop offset=".76" stop-color="#00dfff"/><stop offset="1" stop-color="#00e3ff"/></linearGradient><linearGradient id="b" x1="43.83" y1="32" x2="19.64" y2="32" gradientTransform="matrix(1 0 0 -1 0 62)" gradientUnits="userSpaceOnUse"><stop offset="0" stop-color="#ffe000"/><stop offset=".41" stop-color="#ffbd00"/><stop offset=".78" stop-color="orange"/><stop offset="1" stop-color="#ff9c00"/></linearGradient><linearGradient id="c" x1="34.83" y1="29.7" x2="12.07" y2="6.95" gradientTransform="matrix(1 0 0 -1 0 62)" gradientUnits="userSpaceOnUse"><stop offset="0" stop-color="#ff3a44"/><stop offset="1" stop-color="#c31162"/></linearGradient><linearGradient id="d" x1="17.3" y1="51.82" x2="27.46" y2="41.66" gradientTransform="matrix(1 0 0 -1 0 62)" gradientUnits="userSpaceOnUse"><stop offset="0" stop-color="#32a071"/><stop offset=".07" stop-color="#2da771"/><stop offset=".48" stop-color="#15cf74"/><stop offset=".8" stop-color="#06e775"/><stop offset="1" stop-color="#00f076"/></linearGradient></defs><path fill="none" d="M0 0h155v60H0z"/><rect x="10" y="10" width="135" height="40" rx="5" ry="5"/><path d="M140 10.8a4.2 4.2 0 014.2 4.2v30a4.2 4.2 0 01-4.2 4.2H15a4.2 4.2 0 01-4.2-4.2V15a4.2 4.2 0 014.2-4.2h125m0-.8H15a5 5 0 00-5 5v30a5 5 0 005 5h125a5 5 0 005-5V15a5 5 0 00-5-5z" fill="#a6a6a6"/><path d="M74.72 22.79a3.72 3.72 0 103.73 3.72 3.66 3.66 0 00-3.73-3.72zm0 6a2.26 2.26 0 112.1-2.25 2.15 2.15 0 01-2.1 2.22zm-8.14-6a3.72 3.72 0 103.73 3.72 3.66 3.66 0 00-3.73-3.72zm0 6a2.26 2.26 0 112.1-2.25 2.15 2.15 0 01-2.1 2.22zm-9.68-4.86v1.58h3.77a3.29 3.29 0 01-.86 2 3.86 3.86 0 01-2.91 1.15 4.2 4.2 0 010-8.39 4 4 0 012.84 1.13l1.11-1.11a5.5 5.5 0 00-4-1.59 5.77 5.77 0 100 11.55 5.28 5.28 0 004-1.62 5.21 5.21 0 001.37-3.69 5.14 5.14 0 00-.08-1zm39.6 1.23a3.46 3.46 0 00-3.18-2.37 3.53 3.53 0 00-3.51 3.72 3.64 3.64 0 003.69 3.72 3.7 3.7 0 003.1-1.65l-1.27-.84a2.12 2.12 0 01-1.83 1 1.89 1.89 0 01-1.8-1.13l5-2.06zm-5.07 1.24a2 2 0 011.94-2.17 1.44 1.44 0 011.38.79zm-4 3.61H89V19.07h-1.61zm-2.68-6.38h-.06a2.58 2.58 0 00-2-.83 3.72 3.72 0 000 7.44 2.53 2.53 0 002-.84h.06v.54c0 1.42-.76 2.18-2 2.18a2.06 2.06 0 01-1.87-1.32l-1.42.59a3.54 3.54 0 003.3 2.2c1.92 0 3.53-1.13 3.53-3.87V23h-1.57zm-1.87 5.14a2.26 2.26 0 010-4.51 2.1 2.1 0 012 2.27 2.08 2.08 0 01-2.04 2.23zm21.31-9.69h-3.91V30h1.63v-4.14h2.28a3.4 3.4 0 100-6.79zm0 5.27h-2.32v-3.76h2.32a1.87 1.87 0 110 3.75zm10.08-1.57a3.06 3.06 0 00-2.91 1.67l1.45.6a1.55 1.55 0 011.49-.8 1.57 1.57 0 011.7 1.4v.11a3.61 3.61 0 00-1.7-.42c-1.56 0-3.15.86-3.15 2.46a2.52 2.52 0 002.71 2.4 2.3 2.3 0 002.14-1.06V30h1.57v-4.21c.02-1.94-1.42-3.02-3.29-3.02zm-.2 6c-.53 0-1.28-.27-1.28-.93 0-.84.93-1.17 1.73-1.17A2.91 2.91 0 01116 27a2 2 0 01-1.92 1.76zm9.26-5.78l-1.87 4.74h-.06L119.46 23h-1.76l2.91 6.62-1.61 3.69h1.7L125.14 23zm-14.69 7h1.63V19.07h-1.63z" fill="#fff"/><path d="M20.44 17.54a2 2 0 00-.46 1.4v22.12a2 2 0 00.46 1.4l.07.07L32.9 30.15v-.29L20.51 17.47z" fill="url(#a)"/><path d="M37 34.28l-4.1-4.13v-.29l4.1-4.14.09.05L42 28.56c1.4.79 1.4 2.09 0 2.89l-4.89 2.78z" fill="url(#b)"/><path d="M37.12 34.22L32.9 30 20.44 42.46a1.63 1.63 0 002.08.06l14.61-8.3" fill="url(#c)"/><path d="M37.12 25.78l-14.61-8.3a1.63 1.63 0 00-2.08.06L32.9 30z" fill="url(#d)"/><path d="M37 34.13l-14.49 8.25a1.67 1.67 0 01-2 0l-.07.07.07.07a1.66 1.66 0 002 0l14.61-8.3z" style="isolation:isolate" opacity=".2"/><path d="M20.44 42.32a2 2 0 01-.46-1.4v.15a2 2 0 00.46 1.4l.07-.07zM42 31.3l-5 2.83.09.09L42 31.44A1.75 1.75 0 0043 30a1.86 1.86 0 01-1 1.3z" style="isolation:isolate" opacity=".12"/><path d="M22.51 17.62L42 28.7a1.86 1.86 0 011 1.3 1.75 1.75 0 00-1-1.44L22.51 17.48c-1.4-.79-2.54-.13-2.54 1.47v.15c.03-1.61 1.15-2.27 2.54-1.48z" style="isolation:isolate" fill="#fff" opacity=".25"/><g data-name="Layer 3" fill="#fff" stroke="#fff" stroke-miterlimit="10" stroke-width=".2"><path d="M55.45 39.36a2.26 2.26 0 01.84-.75 2.43 2.43 0 011.12-.26 2.24 2.24 0 011.73.69 2.61 2.61 0 010 3.39 2.11 2.11 0 01-1.59.64 3.92 3.92 0 01-.67 0 2 2 0 01-.53-.17l.27-.56a1.87 1.87 0 00.81.15 1.45 1.45 0 001.15-.49 1.8 1.8 0 00.42-1.26 1.85 1.85 0 00-.42-1.26 1.44 1.44 0 00-1.16-.48 1.52 1.52 0 00-1 .3 3 3 0 00-.7.82v.28a2.27 2.27 0 01-2.34 2.69 2.21 2.21 0 01-1.69-.67 2.56 2.56 0 010-3.37 2.23 2.23 0 011.71-.68 2.38 2.38 0 011.09.25 2.36 2.36 0 01.96.74zm-.8.11a1.44 1.44 0 00-1.14-.47 1.47 1.47 0 00-1.15.48 1.84 1.84 0 00-.43 1.27 1.73 1.73 0 00.44 1.25 1.49 1.49 0 001.13.46 1.46 1.46 0 001.14-.46 1.79 1.79 0 00.43-1.24 1.86 1.86 0 00-.42-1.29zm3.96 6.68a1.49 1.49 0 01-1.16.46 1.44 1.44 0 01-1.12-.46 1.76 1.76 0 010-2.28 1.46 1.46 0 011.13-.46 1.43 1.43 0 011.15.48 1.72 1.72 0 01.39 1.16 1.58 1.58 0 01-.39 1.1zm-1.79-.4a.87.87 0 001.28 0 1 1 0 00.24-.7 1.21 1.21 0 00-.23-.76.77.77 0 00-.64-.3.8.8 0 00-.65.29 1.15 1.15 0 00-.24.75 1.06 1.06 0 00.24.72zM65 41.7a2 2 0 01-.81 1 2.41 2.41 0 01-1.35.38 2.26 2.26 0 01-2.43-2.37 2.31 2.31 0 01.67-1.71 2.36 2.36 0 011.77-.67 2.41 2.41 0 011.35.38 2 2 0 01.81 1l-.59.3a1.74 1.74 0 00-.64-.79 1.69 1.69 0 00-.94-.27 1.56 1.56 0 00-1.2.48 1.75 1.75 0 00-.44 1.24 1.77 1.77 0 00.46 1.33 1.54 1.54 0 001.18.5 1.69 1.69 0 00.94-.27 1.74 1.74 0 00.64-.79zm-1.27-6.15a1.06 1.06 0 00-.35-.36.88.88 0 00-.48-.13.78.78 0 00-.64.29A1.09 1.09 0 0062 36a1.23 1.23 0 00.21.74 1.85 1.85 0 00.46.46l-.37.44a1.93 1.93 0 01-.7-.66 1.77 1.77 0 01-.27-1 1.49 1.49 0 01.44-1.14 1.54 1.54 0 011.1-.42 1.67 1.67 0 01.78.18 1.32 1.32 0 01.54.51zm9.65 3.03a2 2 0 01.53-.17 3.91 3.91 0 01.67-.05 2.11 2.11 0 011.59.64 2.61 2.61 0 010 3.4 2.25 2.25 0 01-1.73.68 2.47 2.47 0 01-1.12-.25 2.24 2.24 0 01-.84-.75 2.34 2.34 0 01-.86.75 2.41 2.41 0 01-1.09.25 2.26 2.26 0 01-1.69-.68 2.41 2.41 0 01-.67-1.76 3 3 0 01.3-1.31 2.5 2.5 0 01.8-1l.43.54a2 2 0 00-.56.72 2.36 2.36 0 00-.19 1 2 2 0 00.41 1.41 1.44 1.44 0 001.15.49 1.43 1.43 0 001.15-.5 2 2 0 00.42-1.33 2.32 2.32 0 00-.2-1 2 2 0 00-.57-.72l.43-.54a2.47 2.47 0 01.82 1 3 3 0 01.3 1.29 2.75 2.75 0 010 .41l-.05.29a3.39 3.39 0 00.72.81 1.48 1.48 0 00.94.3 1.45 1.45 0 001.13-.5 1.85 1.85 0 00.4-1.29 1.78 1.78 0 00-.43-1.25 1.46 1.46 0 00-1.11-.46 1.87 1.87 0 00-.8.15zM82 41.7a2 2 0 01-.81 1 2.41 2.41 0 01-1.35.38 2.26 2.26 0 01-2.43-2.37A2.31 2.31 0 0178.1 39a2.36 2.36 0 011.77-.67 2.41 2.41 0 011.35.38 2 2 0 01.81 1l-.59.3a1.74 1.74 0 00-.64-.79 1.69 1.69 0 00-.94-.27 1.56 1.56 0 00-1.2.48 1.75 1.75 0 00-.44 1.24 1.77 1.77 0 00.46 1.33 1.54 1.54 0 001.18.5 1.69 1.69 0 00.94-.27 1.74 1.74 0 00.64-.79zm-1.25-6.15a1.06 1.06 0 00-.35-.36.88.88 0 00-.48-.13.78.78 0 00-.64.29 1.1 1.1 0 00-.23.7 1.23 1.23 0 00.21.74 1.85 1.85 0 00.46.46l-.37.44a1.93 1.93 0 01-.7-.66 1.77 1.77 0 01-.27-1 1.49 1.49 0 01.44-1.14 1.54 1.54 0 011.1-.42 1.67 1.67 0 01.78.18 1.32 1.32 0 01.54.51zM83 40a1 1 0 010-1.33.94.94 0 01.67-.24 1 1 0 01.68.24.83.83 0 01.27.65.85.85 0 01-.27.67 1 1 0 01-.68.24A1 1 0 0183 40zm0 2.85a1 1 0 010-1.33.94.94 0 01.67-.24 1 1 0 01.68.24.83.83 0 01.27.65.86.86 0 01-.27.67 1 1 0 01-.68.24 1 1 0 01-.67-.22zm.32-3.85a.43.43 0 00-.13.33.46.46 0 00.11.33.45.45 0 00.33.12.46.46 0 00.32-.12.43.43 0 00.13-.33A.42.42 0 0084 39a.46.46 0 00-.32-.12.45.45 0 00-.36.12zm0 2.85a.43.43 0 00-.13.33.47.47 0 00.11.34.45.45 0 00.33.12.46.46 0 00.32-.12.43.43 0 00.13-.34.42.42 0 00-.13-.33.46.46 0 00-.32-.12.45.45 0 00-.31.13zm7.45.45a1.87 1.87 0 00.8.15 1.44 1.44 0 001.12-.45 1.78 1.78 0 00.42-1.25 1.83 1.83 0 00-.43-1.26 1.46 1.46 0 00-1.14-.49 1.51 1.51 0 00-.94.29 3 3 0 00-.72.82v.29a2.67 2.67 0 010 .41 2.83 2.83 0 01-.31 1.37 2.52 2.52 0 01-.79.9l-.43-.54a2 2 0 00.56-.72 2.35 2.35 0 00.2-1 2 2 0 00-.43-1.34 1.57 1.57 0 00-2.28 0 2 2 0 00-.4 1.35 2.37 2.37 0 00.19 1 2 2 0 00.56.72l-.43.54a2.33 2.33 0 01-.78-.92 2.94 2.94 0 01-.32-1.35 2.4 2.4 0 01.72-1.82 2.26 2.26 0 011.67-.68 2.41 2.41 0 011.09.25 2.35 2.35 0 01.86.75 2.23 2.23 0 01.84-.75 2.44 2.44 0 011.12-.26 2.24 2.24 0 011.72.68 2.62 2.62 0 010 3.4 2.1 2.1 0 01-1.58.64A3.89 3.89 0 0191 43a2 2 0 01-.53-.17zm2.13-5.07a1.52 1.52 0 01-1.15.45 1.44 1.44 0 01-1.11-.46 1.74 1.74 0 010-2.27 1.61 1.61 0 012.28 0 1.7 1.7 0 01.41 1.15 1.55 1.55 0 01-.43 1.13zm-1.77-.41a.79.79 0 00.65.29.8.8 0 00.63-.28 1 1 0 00.25-.7 1.25 1.25 0 00-.23-.77.76.76 0 00-.64-.31.78.78 0 00-.65.3 1.17 1.17 0 00-.23.75 1.1 1.1 0 00.22.72zm.09 6.6H92v3h1V47h-1.78zm9.67-2.68a1.88 1.88 0 00-.42-1.26 1.4 1.4 0 00-1.13-.48 1.42 1.42 0 00-1 .32 1.6 1.6 0 00-.51.84 2.51 2.51 0 011.77.84 2.87 2.87 0 01.63 2 3.26 3.26 0 01-.43.11 2.54 2.54 0 01-.49 0 2.15 2.15 0 01-1.66-.67 2.39 2.39 0 01-.65-1.72 2.56 2.56 0 01.3-1.23 2.07 2.07 0 01.81-.84 2.6 2.6 0 012.39 0 2.08 2.08 0 01.81.85 2.56 2.56 0 01.3 1.22v5.67h1.06V47h-1.81zm-1.36 1.71a1.65 1.65 0 00-.53-1.19 2 2 0 00-1.21-.51 1.79 1.79 0 00.43 1.25 1.44 1.44 0 001.11.46h.2zm8.2-3.87a2 2 0 01.53-.17 3.91 3.91 0 01.67-.05 2.11 2.11 0 011.59.64 2.61 2.61 0 010 3.4 2.25 2.25 0 01-1.73.68 2.47 2.47 0 01-1.12-.25 2.24 2.24 0 01-.84-.75 2.34 2.34 0 01-.86.75 2.41 2.41 0 01-1.09.25 2.26 2.26 0 01-1.69-.68 2.41 2.41 0 01-.67-1.76 3 3 0 01.3-1.31 2.5 2.5 0 01.8-1l.43.54a2 2 0 00-.56.72 2.36 2.36 0 00-.19 1 2 2 0 00.4 1.41 1.45 1.45 0 001.15.49 1.43 1.43 0 001.15-.5 2 2 0 00.42-1.33 2.32 2.32 0 00-.2-1 2 2 0 00-.57-.72l.43-.54a2.47 2.47 0 01.82 1 3 3 0 01.3 1.29 2.75 2.75 0 010 .41l-.05.29a3.39 3.39 0 00.72.81 1.48 1.48 0 00.94.3 1.45 1.45 0 001.15-.49 1.85 1.85 0 00.42-1.26 1.78 1.78 0 00-.43-1.25 1.46 1.46 0 00-1.13-.46 1.87 1.87 0 00-.8.15zm.06 4.84h.75V47h-.75zM111 47h-1.81v-3.58h.75v3H111zm4.45-8.64a2.49 2.49 0 01.85 1 2.85 2.85 0 01.32 1.3 2.38 2.38 0 01-.69 1.76 2.51 2.51 0 01-3.44 0 2.39 2.39 0 01-.68-1.76 3 3 0 01.3-1.31 2.5 2.5 0 01.8-1l.43.54a2 2 0 00-.56.72 2.36 2.36 0 00-.19 1A1.91 1.91 0 00113 42a1.65 1.65 0 002.36 0 1.93 1.93 0 00.45-1.34 2.2 2.2 0 00-.21-1 2 2 0 00-.61-.72z"/><path d="M117.53 43v-6.63a1.68 1.68 0 00-.25-1 .87.87 0 00-.77-.36.94.94 0 00-.74.32 1.39 1.39 0 00-.28 1v.14h-.72v-.12a1.87 1.87 0 01.48-1.35 1.67 1.67 0 011.26-.5 1.59 1.59 0 011.28.54 2.2 2.2 0 01.46 1.48V43z"/></g></svg>