<svg xmlns="http://www.w3.org/2000/svg" viewBox="10 10 135 40"><defs><linearGradient id="a" x1="31.8" y1="43.29" x2="15.02" y2="26.51" gradientTransform="matrix(1 0 0 -1 0 62)" gradientUnits="userSpaceOnUse"><stop offset="0" stop-color="#00a0ff"/><stop offset=".01" stop-color="#00a1ff"/><stop offset=".26" stop-color="#00beff"/><stop offset=".51" stop-color="#00d2ff"/><stop offset=".76" stop-color="#00dfff"/><stop offset="1" stop-color="#00e3ff"/></linearGradient><linearGradient id="b" x1="43.83" y1="32" x2="19.64" y2="32" gradientTransform="matrix(1 0 0 -1 0 62)" gradientUnits="userSpaceOnUse"><stop offset="0" stop-color="#ffe000"/><stop offset=".41" stop-color="#ffbd00"/><stop offset=".78" stop-color="orange"/><stop offset="1" stop-color="#ff9c00"/></linearGradient><linearGradient id="c" x1="34.83" y1="29.7" x2="12.07" y2="6.95" gradientTransform="matrix(1 0 0 -1 0 62)" gradientUnits="userSpaceOnUse"><stop offset="0" stop-color="#ff3a44"/><stop offset="1" stop-color="#c31162"/></linearGradient><linearGradient id="d" x1="17.3" y1="51.82" x2="27.46" y2="41.66" gradientTransform="matrix(1 0 0 -1 0 62)" gradientUnits="userSpaceOnUse"><stop offset="0" stop-color="#32a071"/><stop offset=".07" stop-color="#2da771"/><stop offset=".48" stop-color="#15cf74"/><stop offset=".8" stop-color="#06e775"/><stop offset="1" stop-color="#00f076"/></linearGradient></defs><path fill="none" d="M0 0h155v60H0z"/><rect x="10" y="10" width="135" height="40" rx="5" ry="5"/><path d="M140 10.8a4.2 4.2 0 014.2 4.2v30a4.2 4.2 0 01-4.2 4.2H15a4.2 4.2 0 01-4.2-4.2V15a4.2 4.2 0 014.2-4.2h125m0-.8H15a5 5 0 00-5 5v30a5 5 0 005 5h125a5 5 0 005-5V15a5 5 0 00-5-5z" fill="#a6a6a6"/><path d="M74.72 22.79a3.72 3.72 0 103.73 3.72 3.66 3.66 0 00-3.73-3.72zm0 6a2.26 2.26 0 112.1-2.25 2.15 2.15 0 01-2.1 2.22zm-8.14-6a3.72 3.72 0 103.73 3.72 3.66 3.66 0 00-3.73-3.72zm0 6a2.26 2.26 0 112.1-2.25 2.15 2.15 0 01-2.1 2.22zm-9.68-4.86v1.58h3.77a3.29 3.29 0 01-.86 2 3.86 3.86 0 01-2.91 1.15 4.2 4.2 0 010-8.39 4 4 0 012.84 1.13l1.11-1.11a5.5 5.5 0 00-4-1.59 5.77 5.77 0 100 11.55 5.28 5.28 0 004-1.62 5.21 5.21 0 001.37-3.69 5.14 5.14 0 00-.08-1zm39.6 1.23a3.46 3.46 0 00-3.18-2.37 3.53 3.53 0 00-3.51 3.72 3.64 3.64 0 003.69 3.72 3.7 3.7 0 003.1-1.65l-1.27-.84a2.12 2.12 0 01-1.83 1 1.89 1.89 0 01-1.8-1.13l5-2.06zm-5.07 1.24a2 2 0 011.94-2.17 1.44 1.44 0 011.38.79zm-4 3.61H89V19.07h-1.61zm-2.68-6.38h-.06a2.58 2.58 0 00-2-.83 3.72 3.72 0 000 7.44 2.53 2.53 0 002-.84h.06v.54c0 1.42-.76 2.18-2 2.18a2.06 2.06 0 01-1.87-1.32l-1.42.59a3.54 3.54 0 003.3 2.2c1.92 0 3.53-1.13 3.53-3.87V23h-1.57zm-1.87 5.14a2.26 2.26 0 010-4.51 2.1 2.1 0 012 2.27 2.08 2.08 0 01-2.04 2.23zm21.31-9.69h-3.91V30h1.63v-4.14h2.28a3.4 3.4 0 100-6.79zm0 5.27h-2.32v-3.76h2.32a1.87 1.87 0 110 3.75zm10.08-1.57a3.06 3.06 0 00-2.91 1.67l1.45.6a1.55 1.55 0 011.49-.8 1.57 1.57 0 011.7 1.4v.11a3.61 3.61 0 00-1.7-.42c-1.56 0-3.15.86-3.15 2.46a2.52 2.52 0 002.71 2.4 2.3 2.3 0 002.14-1.06V30h1.57v-4.21c.02-1.94-1.42-3.02-3.29-3.02zm-.2 6c-.53 0-1.28-.27-1.28-.93 0-.84.93-1.17 1.73-1.17A2.91 2.91 0 01116 27a2 2 0 01-1.92 1.76zm9.26-5.78l-1.87 4.74h-.06L119.46 23h-1.76l2.91 6.62-1.61 3.69h1.7L125.14 23zm-14.69 7h1.63V19.07h-1.63z" fill="#fff"/><path d="M20.44 17.54a2 2 0 00-.46 1.4v22.12a2 2 0 00.46 1.4l.07.07L32.9 30.15v-.29L20.51 17.47z" fill="url(#a)"/><path d="M37 34.28l-4.1-4.13v-.29l4.1-4.14.09.05L42 28.56c1.4.79 1.4 2.09 0 2.89l-4.89 2.78z" fill="url(#b)"/><path d="M37.12 34.22L32.9 30 20.44 42.46a1.63 1.63 0 002.08.06l14.61-8.3" fill="url(#c)"/><path d="M37.12 25.78l-14.61-8.3a1.63 1.63 0 00-2.08.06L32.9 30z" fill="url(#d)"/><path d="M37 34.13l-14.49 8.25a1.67 1.67 0 01-2 0l-.07.07.07.07a1.66 1.66 0 002 0l14.61-8.3z" style="isolation:isolate" opacity=".2"/><path d="M20.44 42.32a2 2 0 01-.46-1.4v.15a2 2 0 00.46 1.4l.07-.07zM42 31.3l-5 2.83.09.09L42 31.44A1.75 1.75 0 0043 30a1.86 1.86 0 01-1 1.3z" style="isolation:isolate" opacity=".12"/><path d="M22.51 17.62L42 28.7a1.86 1.86 0 011 1.3 1.75 1.75 0 00-1-1.44L22.51 17.48c-1.4-.79-2.54-.13-2.54 1.47v.15c.03-1.61 1.15-2.27 2.54-1.48z" style="isolation:isolate" fill="#fff" opacity=".25"/><g data-name="Layer 3" fill="#fff" stroke="#fff" stroke-miterlimit="10" stroke-width=".2"><path d="M56.86 37.77h-1V43h-.77v-2.37H53V41a.69.69 0 01-.12.44.41.41 0 01-.33.16.87.87 0 01-.49-.19 1.75 1.75 0 01-.46-.49 1 1 0 01-.19-.53.35.35 0 01.15-.3A.75.75 0 0152 40h.25v-2.23H51v-.68h5.82zM55.11 40v-2.23H53V40z"/><path d="M59.32 37.77h-1V43h-.77v-5.23h-.84v-.68h2.6zm7.86 0h-1V43h-.76v-1.85l-2.92 2-.45-.62 1.61-1a1.39 1.39 0 01-1.15-.92 3.12 3.12 0 01-.13-1v-1.84h-.75v-.68h5.54zm-4 0v1.73a5.12 5.12 0 000 .68 1 1 0 00.1.35.86.86 0 00.18.22.67.67 0 00.27.14 1.46 1.46 0 00.39 0 1.57 1.57 0 00.68-.16 2.15 2.15 0 00.62-.46v-2.5z"/><path d="M69.64 37.77h-1V43h-.77v-5.23H67v-.68h2.6z"/><path d="M71 37.77v1.73a5.12 5.12 0 000 .68 1 1 0 00.1.35.86.86 0 00.18.22.67.67 0 00.27.14 1.46 1.46 0 00.39 0 1.57 1.57 0 00.68-.16 2.15 2.15 0 00.62-.46l.35.65a4.66 4.66 0 01-.65.4 2.57 2.57 0 01-.51.18 2.39 2.39 0 01-.57.06 1.86 1.86 0 01-.72-.13 1.42 1.42 0 01-.54-.39 1.51 1.51 0 01-.31-.6 3.56 3.56 0 01-.09-.89v-1.78h-.7v-.68h3.06v.68z"/><path d="M76.23 39.88h-1a4.8 4.8 0 00-.9.06.92.92 0 00-.48.25.75.75 0 00-.19.55 1.25 1.25 0 00.15.58 2.56 2.56 0 00.44.59 8.6 8.6 0 00.79.7l-.51.5a9.42 9.42 0 01-1-.93 3.27 3.27 0 01-.48-.73 1.75 1.75 0 01-.17-.76 1.44 1.44 0 01.13-.6 1.31 1.31 0 01.4-.5 1.71 1.71 0 01.59-.29 4.2 4.2 0 011-.09h1.21v-1.44h-3.8v-.68H78v.68h-1V43h-.77zM84 37.77h-1.71v3a.57.57 0 01-.12.39.43.43 0 01-.34.14.88.88 0 01-.51-.2 1.65 1.65 0 01-.45-.49 1.07 1.07 0 01-.17-.54.46.46 0 01.14-.37.66.66 0 01.43-.12h.25v-1.81h-1.21v-.68h5.49v.68h-1V43H84z"/><path d="M85.66 37.77v-.68h5.41v.68h-1V43h-.77v-2.83h-1.7v.51a.55.55 0 01-.13.39.47.47 0 01-.36.14.83.83 0 01-.49-.2 1.68 1.68 0 01-.44-.49A1.06 1.06 0 0186 40q0-.49.58-.49h2.73v-1.74z"/><path d="M88.57 43.12a2.72 2.72 0 01.52-.16 2.64 2.64 0 01.54-.05 1.82 1.82 0 01.81.17 1.21 1.21 0 01.52.47 1.34 1.34 0 01.18.7 1.2 1.2 0 01-.2.68 1.3 1.3 0 01-.59.46 2.31 2.31 0 01-.91.16 3.06 3.06 0 01-1.09-.19 3.23 3.23 0 01-.92-.54 5.33 5.33 0 01-.82-.87l.58-.4a5.59 5.59 0 00.72.77 2.32 2.32 0 00.7.41 2.4 2.4 0 00.83.13 1.28 1.28 0 00.75-.18.61.61 0 00.25-.53.53.53 0 00-.11-.34.64.64 0 00-.28-.2 1 1 0 00-.37-.07 2 2 0 00-.42 0 2.08 2.08 0 00-.44.16zm.55-5.96a3.62 3.62 0 01-.35-.73 2.12 2.12 0 01-.12-.67 1.26 1.26 0 01.19-.7 1.16 1.16 0 01.52-.44 1.88 1.88 0 01.75-.14 2.18 2.18 0 01.57.07 2.21 2.21 0 01.45.17l-.21.63a2 2 0 00-.34-.15 1.23 1.23 0 00-.39-.06.79.79 0 00-.58.2.76.76 0 00-.21.56 1.59 1.59 0 00.11.57 3.54 3.54 0 00.38.68zM94 42.34a1.35 1.35 0 00.58-.29.61.61 0 00.2-.46q0-.76-1.17-.76a1.64 1.64 0 00-1 .26.86.86 0 00-.35.73 1.28 1.28 0 00.06.41 1.38 1.38 0 00.22.39 4.37 4.37 0 00.45.49c.2.19.49.43.86.73l-.51.5q-.52-.43-.77-.67a6.16 6.16 0 01-.47-.48 2.82 2.82 0 01-.35-.47 2 2 0 01-.2-.47 1.9 1.9 0 01-.07-.5 1.35 1.35 0 01.16-.67 1.53 1.53 0 01.43-.49 1.2 1.2 0 01-.48-.95 1 1 0 01.12-.49 1 1 0 01.31-.33 1.39 1.39 0 01.45-.19 2.86 2.86 0 01.64-.06h1.25v-.81h-3.44v-.68h5.19v.68h-1v1.49h-2a2 2 0 00-.44 0 .43.43 0 00-.23.14.41.41 0 00-.09.27.63.63 0 00.44.57 3.06 3.06 0 01.87-.12 2.57 2.57 0 011 .18 1.44 1.44 0 01.65.5 1.23 1.23 0 01.22.72 1.31 1.31 0 01-.32.9 1.9 1.9 0 01-1 .53z"/><path d="M96.82 37.16a7.56 7.56 0 00-.4-1.2 1.61 1.61 0 00-.42-.6.88.88 0 00-.57-.18h-.31a1.91 1.91 0 00-.35.1l-.23-.69a2.28 2.28 0 01.42-.11 2.91 2.91 0 01.45 0 1.68 1.68 0 01.7.14 1.52 1.52 0 01.54.44 3.37 3.37 0 01.46.81 10.2 10.2 0 01.43 1.29zm1.75.61h-1V43h-.77v-5.23H96v-.68h2.6z"/><path d="M104.95 37.77h-1V43h-.77v-2.46H102a4.54 4.54 0 01-1.55-.2 2.35 2.35 0 01-.47.26 10.59 10.59 0 00.91 1 14.61 14.61 0 001.1 1l-.51.51q-.53-.46-1-1t-.91-1a6.53 6.53 0 01-.58-.77 1.58 1.58 0 01-.15-.32 1 1 0 010-.28.47.47 0 01.26-.43.71.71 0 01.35-.07.78.78 0 01.41.11 1.15 1.15 0 01.32.3.94.94 0 00.26-.41 2 2 0 00.09-.62 2.56 2.56 0 000-.51 1.6 1.6 0 00-.11-.37h-1.99v-.68h6.52zm-4 2.06a7.21 7.21 0 00.81 0h1.46v-2.06h-2.12a2.23 2.23 0 01.16.89 1.86 1.86 0 01-.33 1.17zm2.16 3.59a1.9 1.9 0 01.45-.05 2.73 2.73 0 01.59.06 2.58 2.58 0 01.54.19 2.7 2.7 0 01.51.32 3.58 3.58 0 01.5.48 6.58 6.58 0 01.54.73l-.54.39a5.07 5.07 0 00-.65-.84 2.17 2.17 0 00-.66-.47 1.9 1.9 0 00-.78-.16 1.36 1.36 0 00-.4 0z"/></g></svg>