<svg xmlns="http://www.w3.org/2000/svg" viewBox="10 10 135 40"><defs><linearGradient id="a" x1="31.8" y1="-96.71" x2="15.02" y2="-113.49" gradientTransform="matrix(1 0 0 -1 0 -78)" gradientUnits="userSpaceOnUse"><stop offset="0" stop-color="#00a0ff"/><stop offset=".01" stop-color="#00a1ff"/><stop offset=".26" stop-color="#00beff"/><stop offset=".51" stop-color="#00d2ff"/><stop offset=".76" stop-color="#00dfff"/><stop offset="1" stop-color="#00e3ff"/></linearGradient><linearGradient id="b" x1="43.83" y1="-108" x2="19.64" y2="-108" gradientTransform="matrix(1 0 0 -1 0 -78)" gradientUnits="userSpaceOnUse"><stop offset="0" stop-color="#ffe000"/><stop offset=".41" stop-color="#ffbd00"/><stop offset=".78" stop-color="orange"/><stop offset="1" stop-color="#ff9c00"/></linearGradient><linearGradient id="c" x1="34.83" y1="-110.3" x2="12.07" y2="-133.05" gradientTransform="matrix(1 0 0 -1 0 -78)" gradientUnits="userSpaceOnUse"><stop offset="0" stop-color="#ff3a44"/><stop offset="1" stop-color="#c31162"/></linearGradient><linearGradient id="d" x1="17.3" y1="-88.18" x2="27.46" y2="-98.34" gradientTransform="matrix(1 0 0 -1 0 -78)" gradientUnits="userSpaceOnUse"><stop offset="0" stop-color="#32a071"/><stop offset=".07" stop-color="#2da771"/><stop offset=".48" stop-color="#15cf74"/><stop offset=".8" stop-color="#06e775"/><stop offset="1" stop-color="#00f076"/></linearGradient></defs><path fill="none" d="M0 0h155v60H0z"/><rect x="10" y="10" width="135" height="40" rx="5" ry="5"/><path d="M140 10.8a4.2 4.2 0 014.2 4.2v30a4.2 4.2 0 01-4.2 4.2H15a4.2 4.2 0 01-4.2-4.2V15a4.2 4.2 0 014.2-4.2h125m0-.8H15a5 5 0 00-5 5v30a5 5 0 005 5h125a5 5 0 005-5V15a5 5 0 00-5-5z" fill="#a6a6a6"/><path d="M74.72 26.79a3.72 3.72 0 103.73 3.72 3.66 3.66 0 00-3.73-3.72zm0 6a2.26 2.26 0 112.1-2.25 2.15 2.15 0 01-2.1 2.22zm-8.14-6a3.72 3.72 0 103.73 3.72 3.66 3.66 0 00-3.73-3.72zm0 6a2.26 2.26 0 112.1-2.25 2.15 2.15 0 01-2.1 2.22zm-9.68-4.86v1.58h3.77a3.29 3.29 0 01-.86 2 3.86 3.86 0 01-2.91 1.15 4.2 4.2 0 010-8.39 4 4 0 012.84 1.13l1.11-1.11a5.5 5.5 0 00-4-1.59 5.77 5.77 0 100 11.55 5.28 5.28 0 004-1.62 5.21 5.21 0 001.37-3.69 5.14 5.14 0 00-.08-1zm39.6 1.23a3.46 3.46 0 00-3.18-2.37 3.53 3.53 0 00-3.51 3.72 3.64 3.64 0 003.69 3.72 3.7 3.7 0 003.1-1.65l-1.27-.84a2.12 2.12 0 01-1.83 1 1.89 1.89 0 01-1.8-1.13l5-2.06zm-5.07 1.24a2 2 0 011.94-2.17 1.44 1.44 0 011.38.79zm-4 3.61H89V23.07h-1.61zm-2.68-6.38h-.06a2.58 2.58 0 00-2-.83 3.72 3.72 0 000 7.44 2.53 2.53 0 002-.84h.06v.54c0 1.42-.76 2.18-2 2.18a2.06 2.06 0 01-1.87-1.32l-1.42.59a3.54 3.54 0 003.3 2.2c1.92 0 3.53-1.13 3.53-3.87V27h-1.57zm-1.87 5.14a2.26 2.26 0 010-4.51 2.1 2.1 0 012 2.27 2.08 2.08 0 01-2.04 2.23zm21.31-9.69h-3.91V34h1.63v-4.14h2.28a3.4 3.4 0 100-6.79zm0 5.27h-2.32v-3.76h2.32a1.87 1.87 0 110 3.75zm10.08-1.57a3.06 3.06 0 00-2.91 1.67l1.45.6a1.55 1.55 0 011.49-.8 1.57 1.57 0 011.7 1.4v.11a3.61 3.61 0 00-1.7-.42c-1.56 0-3.15.86-3.15 2.46a2.52 2.52 0 002.71 2.4 2.3 2.3 0 002.14-1.06V34h1.57v-4.21c.02-1.94-1.42-3.02-3.29-3.02zm-.2 6c-.53 0-1.28-.27-1.28-.93 0-.84.93-1.17 1.73-1.17A2.9 2.9 0 01116 31a2 2 0 01-1.92 1.76zm9.26-5.78l-1.87 4.74h-.06L119.46 27h-1.76l2.91 6.62-1.61 3.69h1.7L125.14 27zm-14.69 7h1.63V23.07h-1.63z" fill="#fff"/><path d="M20.44 17.54a2 2 0 00-.46 1.4v22.12a2 2 0 00.46 1.4l.07.07L32.9 30.15v-.29L20.51 17.47z" fill="url(#a)"/><path d="M37 34.28l-4.1-4.13v-.29l4.1-4.14.09.05L42 28.56c1.4.79 1.4 2.09 0 2.89l-4.89 2.78z" fill="url(#b)"/><path d="M37.12 34.22L32.9 30 20.44 42.46a1.63 1.63 0 002.08.06l14.61-8.3" fill="url(#c)"/><path d="M37.12 25.78l-14.61-8.3a1.63 1.63 0 00-2.08.06L32.9 30z" fill="url(#d)"/><path d="M37 34.13l-14.49 8.25a1.67 1.67 0 01-2 0l-.07.07.07.07a1.66 1.66 0 002 0l14.61-8.3z" style="isolation:isolate" opacity=".2"/><path d="M20.44 42.32a2 2 0 01-.46-1.4v.15a2 2 0 00.46 1.4l.07-.07zM42 31.3l-5 2.83.09.09L42 31.44A1.75 1.75 0 0043 30a1.86 1.86 0 01-1 1.3z" style="isolation:isolate" opacity=".12"/><path d="M22.51 17.62L42 28.7a1.86 1.86 0 011 1.3 1.75 1.75 0 00-1-1.44L22.51 17.48c-1.4-.79-2.54-.13-2.54 1.47v.15c.03-1.61 1.15-2.27 2.54-1.48z" style="isolation:isolate" fill="#fff" opacity=".25"/><path d="M51.34 14.6a1.57 1.57 0 01.06-.44 1.09 1.09 0 01.2-.39 1 1 0 01.36-.28 1.19 1.19 0 01.53-.11 1.14 1.14 0 01.6.16 1.86 1.86 0 01.46.4 2.64 2.64 0 01.34.52 4.89 4.89 0 01.22.5l-.46.21a2.44 2.44 0 00-.51-.88.85.85 0 00-.59-.28.44.44 0 00-.36.16.63.63 0 00-.13.41v1.12h6.14v.48h-1.04v2h-2.44a1.14 1.14 0 00-.32 0 .92.92 0 00-.3.15.83.83 0 00-.22.26.78.78 0 00-.09.38.93.93 0 00.12.44 1.38 1.38 0 00.35.41 1.92 1.92 0 00.56.3 2.21 2.21 0 00.76.12 1.72 1.72 0 00.74-.16 2.8 2.8 0 00.74-.53l.34.46a2.31 2.31 0 01-.86.66 2.66 2.66 0 01-1.06.21 2.82 2.82 0 01-1-.18 2.42 2.42 0 01-.76-.45 2 2 0 01-.46-.61 1.52 1.52 0 01-.16-.66 1.21 1.21 0 01.32-.87 1.69 1.69 0 01.84-.46 1.53 1.53 0 01-.48-.29 1.66 1.66 0 01-.32-.39 2 2 0 01-.19-.44 1.69 1.69 0 01-.08-.42h-1.1v4.66h-.86v-4.65h-.29v-.48h.29zm5.1 3v-1.4h-2.65a1.36 1.36 0 00.17.59 1.65 1.65 0 00.34.42 1.78 1.78 0 00.39.26 1.69 1.69 0 00.34.13zm6.65 3.24h-.87v-2.38h-2a2 2 0 01-.14.48 2 2 0 01-.23.4 1.13 1.13 0 01-.3.28.61.61 0 01-.33.1.43.43 0 01-.35-.15.61.61 0 01-.12-.4.91.91 0 01.06-.32 1.56 1.56 0 01.18-.34 1.71 1.71 0 01.27-.31 1.57 1.57 0 01.35-.24 3.59 3.59 0 000-.45 2.23 2.23 0 00-.12-.44 2.7 2.7 0 00-.22-.45 3.63 3.63 0 00-.36-.48h-.5v-.48H64v.48h-1v4.03c0 .23.08.48.09.67zm-2.82-3h2v-1.68h-2.62a3 3 0 01.44.81 3.67 3.67 0 01.18.87zM69 19.17a1.5 1.5 0 01-.13.62 1.6 1.6 0 01-.36.51 2.18 2.18 0 01-.56.38 2.64 2.64 0 01-.71.22l-.14-.62a2.15 2.15 0 00.46-.14 1.45 1.45 0 00.38-.24 1.16 1.16 0 00.26-.33.85.85 0 00.1-.4 1 1 0 00-.15-.52 1.58 1.58 0 00-.38-.41 1.88 1.88 0 00-.5-.28 1.65 1.65 0 00-.52-.11 1.94 1.94 0 00-.48.09 2 2 0 00-.52.25 1.52 1.52 0 00-.42.41 1 1 0 00-.17.56.92.92 0 00.1.43 1.08 1.08 0 00.27.33 1.42 1.42 0 00.39.23 1.83 1.83 0 00.46.12l-.14.62a2.48 2.48 0 01-.7-.2 1.9 1.9 0 01-.54-.37 1.51 1.51 0 01-.34-.51 1.83 1.83 0 010-1.42 1.78 1.78 0 01.43-.55 2.23 2.23 0 01.59-.36 3.42 3.42 0 01.66-.2v-1.12h-2.19v-.48H70v.48h-2.9v1.12a3 3 0 01.74.24 2.26 2.26 0 01.6.41 1.86 1.86 0 01.4.56 1.59 1.59 0 01.16.68zm-.32 2.42l-.44.23a4.3 4.3 0 01-.49.19 4.55 4.55 0 01-.5.13 2.69 2.69 0 01-.49 0 3.32 3.32 0 01-1-.17 5.34 5.34 0 01-1-.42l.16-.41.3.09.46.09.53.07h1.04l.53-.07.46-.09.31-.09zm0 1.18l-.44.23a4.33 4.33 0 01-1 .32 2.6 2.6 0 01-.49 0 3.32 3.32 0 01-1-.17 5.28 5.28 0 01-1-.42l.16-.42.3.09.46.1.53.07h1.04l.53-.07.46-.1.31-.09zm-1.93-9a.88.88 0 00-.5.14.48.48 0 00-.21.43.54.54 0 000 .21l.09.18-.26.17a1.39 1.39 0 01-.19-.28.91.91 0 01-.1-.44 1.08 1.08 0 01.07-.37.93.93 0 01.21-.34 1.1 1.1 0 01.36-.24 1.25 1.25 0 01.5-.09 1.22 1.22 0 01.49.09 1.06 1.06 0 01.35.24 1 1 0 01.21.34 1.08 1.08 0 01.07.37.92.92 0 01-.1.44 1.39 1.39 0 01-.19.28l-.26-.17a.65.65 0 00.13-.39.48.48 0 00-.2-.43.84.84 0 00-.47-.09zM51.46 41.53l-.34-.22.43-.61a.55.55 0 01-.3-.16.46.46 0 01-.13-.33.54.54 0 011.09 0 1.16 1.16 0 01-.24.59zm2.18 2.57l.24.28a2 2 0 00.35.29 2 2 0 00.47.22 1.85 1.85 0 00.6.09 2.07 2.07 0 00.45-.06 1.77 1.77 0 00.46-.18 1.14 1.14 0 00.36-.31.76.76 0 00.14-.47.66.66 0 00-.09-.33 1.25 1.25 0 00-.23-.29 2.13 2.13 0 00-.33-.25 3.24 3.24 0 00-.38-.2 2.87 2.87 0 01-.51.15 2.19 2.19 0 01-.41 0 1.33 1.33 0 01-.71-.15.41.41 0 01-.23-.33.4.4 0 01.21-.32 1.28 1.28 0 01.71-.15 3.1 3.1 0 01.78.11 2.39 2.39 0 00.56-.38.69.69 0 00.24-.52 1 1 0 000-.24 1.14 1.14 0 00-.11-.28h-3.39v-.48h5.58v.48h-1.48a1.51 1.51 0 01.11.31 1.35 1.35 0 010 .3 1 1 0 01-.21.64 2.16 2.16 0 01-.51.48 3.06 3.06 0 01.42.26 2 2 0 01.35.32 1.42 1.42 0 01.24.39 1.19 1.19 0 01.09.46 1.35 1.35 0 01-.21.78 1.68 1.68 0 01-.52.5 2.22 2.22 0 01-.68.27 3.08 3.08 0 01-.66.08 2.73 2.73 0 01-.85-.12 2.48 2.48 0 01-.63-.3 2 2 0 01-.43-.39 2 2 0 01-.26-.4zM57 40.15a3.65 3.65 0 00-.36-.55 2.61 2.61 0 00-.46-.46 2.24 2.24 0 00-.57-.32 1.93 1.93 0 00-.68-.12h-1.14v-.62H55a2 2 0 01.74.14 2.47 2.47 0 01.66.38 2.87 2.87 0 01.55.59 4.31 4.31 0 01.43.78zm7.77 5.36h-.07v.1a1.87 1.87 0 01-.14.7 4.07 4.07 0 01.93.52 5.6 5.6 0 01.9.86L66 48a4.7 4.7 0 00-.5-.48 4 4 0 00-.46-.33 3.32 3.32 0 00-.42-.22l-.38-.15a1.52 1.52 0 01-.47.36 1.32 1.32 0 01-.6.13 1.53 1.53 0 01-.34 0 1.33 1.33 0 01-.32-.12.8.8 0 01-.24-.19.38.38 0 01-.1-.26.43.43 0 01.1-.29.74.74 0 01.26-.2 1.56 1.56 0 01.35-.12 1.74 1.74 0 01.37 0 3 3 0 01.59.06 1.42 1.42 0 00.1-.5v-.1h-.06V44.66a4.71 4.71 0 01-.81.39 2.82 2.82 0 01-1 .16 2.38 2.38 0 01-.76-.11 1.42 1.42 0 01-.53-.3 1.2 1.2 0 01-.31-.47 1.82 1.82 0 01-.1-.62 1.43 1.43 0 01.08-.51 4.29 4.29 0 01.18-.41l.18-.36A.88.88 0 0061 42a1.74 1.74 0 00-.1-.53 1.63 1.63 0 00-.38-.6h-.43v-.48H61a4.49 4.49 0 01.32.52 3 3 0 01.19.44 1.89 1.89 0 01.09.36 2.39 2.39 0 010 .29 1.76 1.76 0 01-.06.49 3.67 3.67 0 01-.14.39c-.05.12-.1.24-.14.36a1.21 1.21 0 00-.06.39 1 1 0 000 .26.78.78 0 00.15.28.9.9 0 00.29.23 1 1 0 00.47.1 2.54 2.54 0 00.8-.16 5.37 5.37 0 001-.49v-3.49h1.69v.48h-1v4.03q.16.35.17.64z" fill="#fff" stroke="#fff" stroke-miterlimit="10" stroke-width=".2"/><path d="M65.72 40.83v-.48h2v.48h-1v2.76h-.86v-2.75z" fill="#fff" stroke="#fff" stroke-miterlimit="10" stroke-width=".2"/><path d="M72.44 45.51h-.86V44.58a4.71 4.71 0 01-.81.39 2.82 2.82 0 01-1 .16 2.38 2.38 0 01-.76-.11 1.42 1.42 0 01-.53-.3 1.2 1.2 0 01-.31-.47 1.82 1.82 0 01-.1-.62 1.43 1.43 0 01.08-.51 4.27 4.27 0 01.18-.41l.18-.36a.88.88 0 00.08-.38 1.73 1.73 0 00-.1-.53 1.63 1.63 0 00-.38-.6h-.43v-.48h.91a4.49 4.49 0 01.32.52 3 3 0 01.19.44 1.89 1.89 0 01.09.36 2.39 2.39 0 010 .29 1.77 1.77 0 01-.06.49 3.69 3.69 0 01-.14.39q-.08.18-.14.36a1.21 1.21 0 00-.06.39 1 1 0 000 .26.78.78 0 00.15.28.9.9 0 00.29.23 1 1 0 00.47.1 2.54 2.54 0 00.8-.16 5.37 5.37 0 001-.49v-3.49h1.69v.48h-1v4.03q.24.38.25.67zm1.76-1.41l.24.28a2 2 0 00.35.29 2 2 0 00.47.22 1.85 1.85 0 00.6.09 2.07 2.07 0 00.45-.06 1.77 1.77 0 00.46-.18 1.13 1.13 0 00.36-.31.76.76 0 00.14-.47.66.66 0 00-.09-.33 1.25 1.25 0 00-.23-.29 2.13 2.13 0 00-.33-.25 3.24 3.24 0 00-.38-.2 2.87 2.87 0 01-.51.15 2.19 2.19 0 01-.41 0 1.33 1.33 0 01-.71-.15.41.41 0 01-.23-.33.4.4 0 01.21-.32 1.28 1.28 0 01.71-.15 3.1 3.1 0 01.78.11 2.39 2.39 0 00.56-.38.69.69 0 00.24-.52 1 1 0 000-.24 1.14 1.14 0 00-.11-.28h-3.38v-.48H79v.48h-1.52a1.51 1.51 0 01.11.31 1.35 1.35 0 010 .3 1 1 0 01-.21.64 2.16 2.16 0 01-.51.48 3.06 3.06 0 01.42.26 2 2 0 01.35.32 1.42 1.42 0 01.24.39A1.19 1.19 0 0178 44a1.35 1.35 0 01-.21.78 1.68 1.68 0 01-.52.5 2.22 2.22 0 01-.68.27 3.08 3.08 0 01-.66.08 2.73 2.73 0 01-.85-.12 2.48 2.48 0 01-.63-.3 2 2 0 01-.43-.39 2 2 0 01-.26-.4zm9.88-2.66a2.12 2.12 0 000-.32c0-.12 0-.22-.05-.29h-3.71v-.48H86v.48h-1.22v.3a2.57 2.57 0 010 .33 4.22 4.22 0 01-.35 1.78 4 4 0 01.44 1 6.65 6.65 0 01.2 1.22h-.72a7.06 7.06 0 00-.13-.83 5.1 5.1 0 00-.24-.77 2.21 2.21 0 01-.69.49 2.12 2.12 0 01-.9.18 2.58 2.58 0 01-.63-.08 1.88 1.88 0 01-.57-.24 1.36 1.36 0 01-.41-.42 1.09 1.09 0 01-.16-.6 1 1 0 01.17-.59 1.33 1.33 0 01.42-.39 1.84 1.84 0 01.56-.21 2.74 2.74 0 01.57-.06 2.25 2.25 0 01.86.16 2.3 2.3 0 01.7.44 5.41 5.41 0 00.18-1.1zm-1.68 1.13a1.49 1.49 0 00-.76.18.55.55 0 00-.3.5.52.52 0 00.1.33.83.83 0 00.26.22 1.26 1.26 0 00.35.13 1.79 1.79 0 00.36 0 1.4 1.4 0 001.3-.7 1.94 1.94 0 00-.56-.5 1.46 1.46 0 00-.75-.16zm8.04-1.74V44a2.2 2.2 0 01-.12.76 1.26 1.26 0 01-.33.51 1.34 1.34 0 01-.52.29 2.24 2.24 0 01-.66.09 2.42 2.42 0 01-.91-.17 2.51 2.51 0 01-.75-.46 2.24 2.24 0 01-.51-.68 1.82 1.82 0 01-.19-.81 1.22 1.22 0 01.35-.93 1.52 1.52 0 011.08-.33h1.84v-1.4h-3.65v-.48h5.4v.48zm-.72 2h-1.84a1 1 0 00-.59.16.58.58 0 00-.2.49 1.1 1.1 0 00.15.56 1.57 1.57 0 00.38.44 1.88 1.88 0 00.54.3 1.81 1.81 0 00.61.11 1.18 1.18 0 00.49-.09.72.72 0 00.29-.23.82.82 0 00.14-.31 1.72 1.72 0 000-.35zm-.72-4.7a1.09 1.09 0 01.92.42 2.36 2.36 0 01.42 1.12l-.26.13a3.14 3.14 0 00-.08-.4 1.16 1.16 0 00-.2-.32.83.83 0 00-.28-.2 1 1 0 00-.4-.07 1.13 1.13 0 00-.27 0l-.27.07-.28.07a1.39 1.39 0 01-.3 0 1.31 1.31 0 01-1-.37 1.81 1.81 0 01-.49-1.08l.26-.13a1.4 1.4 0 00.4.68 1.1 1.1 0 00.74.22 1.13 1.13 0 00.27 0l.27-.07.28-.07a1.4 1.4 0 01.27 0z" fill="#fff" stroke="#fff" stroke-miterlimit="10" stroke-width=".2"/></svg>