<svg xmlns="http://www.w3.org/2000/svg" viewBox="10 10 135 40"><defs><linearGradient id="a" x1="31.8" y1="43.29" x2="15.02" y2="26.51" gradientTransform="matrix(1 0 0 -1 0 62)" gradientUnits="userSpaceOnUse"><stop offset="0" stop-color="#00a0ff"/><stop offset=".01" stop-color="#00a1ff"/><stop offset=".26" stop-color="#00beff"/><stop offset=".51" stop-color="#00d2ff"/><stop offset=".76" stop-color="#00dfff"/><stop offset="1" stop-color="#00e3ff"/></linearGradient><linearGradient id="b" x1="43.83" y1="32" x2="19.64" y2="32" gradientTransform="matrix(1 0 0 -1 0 62)" gradientUnits="userSpaceOnUse"><stop offset="0" stop-color="#ffe000"/><stop offset=".41" stop-color="#ffbd00"/><stop offset=".78" stop-color="orange"/><stop offset="1" stop-color="#ff9c00"/></linearGradient><linearGradient id="c" x1="34.83" y1="29.7" x2="12.07" y2="6.95" gradientTransform="matrix(1 0 0 -1 0 62)" gradientUnits="userSpaceOnUse"><stop offset="0" stop-color="#ff3a44"/><stop offset="1" stop-color="#c31162"/></linearGradient><linearGradient id="d" x1="17.3" y1="51.82" x2="27.46" y2="41.66" gradientTransform="matrix(1 0 0 -1 0 62)" gradientUnits="userSpaceOnUse"><stop offset="0" stop-color="#32a071"/><stop offset=".07" stop-color="#2da771"/><stop offset=".48" stop-color="#15cf74"/><stop offset=".8" stop-color="#06e775"/><stop offset="1" stop-color="#00f076"/></linearGradient></defs><path fill="none" d="M0 0h155v60H0z"/><rect x="10" y="10" width="135" height="40" rx="5" ry="5"/><path d="M140 10.8a4.2 4.2 0 014.2 4.2v30a4.2 4.2 0 01-4.2 4.2H15a4.2 4.2 0 01-4.2-4.2V15a4.2 4.2 0 014.2-4.2h125m0-.8H15a5 5 0 00-5 5v30a5 5 0 005 5h125a5 5 0 005-5V15a5 5 0 00-5-5z" fill="#a6a6a6"/><path d="M74.72 22.79a3.72 3.72 0 103.73 3.72 3.66 3.66 0 00-3.73-3.72zm0 6a2.26 2.26 0 112.1-2.25 2.15 2.15 0 01-2.1 2.22zm-8.14-6a3.72 3.72 0 103.73 3.72 3.66 3.66 0 00-3.73-3.72zm0 6a2.26 2.26 0 112.1-2.25 2.15 2.15 0 01-2.1 2.22zm-9.68-4.86v1.58h3.77a3.29 3.29 0 01-.86 2 3.86 3.86 0 01-2.91 1.15 4.2 4.2 0 010-8.39 4 4 0 012.84 1.13l1.11-1.11a5.5 5.5 0 00-4-1.59 5.77 5.77 0 100 11.55 5.28 5.28 0 004-1.62 5.21 5.21 0 001.37-3.69 5.14 5.14 0 00-.08-1zm39.6 1.23a3.46 3.46 0 00-3.18-2.37 3.53 3.53 0 00-3.51 3.72 3.64 3.64 0 003.69 3.72 3.7 3.7 0 003.1-1.65l-1.27-.84a2.12 2.12 0 01-1.83 1 1.89 1.89 0 01-1.8-1.13l5-2.06zm-5.07 1.24a2 2 0 011.94-2.17 1.44 1.44 0 011.38.79zm-4 3.61H89V19.07h-1.61zm-2.68-6.38h-.06a2.58 2.58 0 00-2-.83 3.72 3.72 0 000 7.44 2.53 2.53 0 002-.84h.06v.54c0 1.42-.76 2.18-2 2.18a2.06 2.06 0 01-1.87-1.32l-1.42.59a3.54 3.54 0 003.3 2.2c1.92 0 3.53-1.13 3.53-3.87V23h-1.57zm-1.87 5.14a2.26 2.26 0 010-4.51 2.1 2.1 0 012 2.27 2.08 2.08 0 01-2.04 2.23zm21.31-9.69h-3.91V30h1.63v-4.14h2.28a3.4 3.4 0 100-6.79zm0 5.27h-2.32v-3.76h2.32a1.87 1.87 0 110 3.75zm10.08-1.57a3.06 3.06 0 00-2.91 1.67l1.45.6a1.55 1.55 0 011.49-.8 1.57 1.57 0 011.7 1.4v.11a3.61 3.61 0 00-1.7-.42c-1.56 0-3.15.86-3.15 2.46a2.52 2.52 0 002.71 2.4 2.3 2.3 0 002.14-1.06V30h1.57v-4.21c.02-1.94-1.42-3.02-3.29-3.02zm-.2 6c-.53 0-1.28-.27-1.28-.93 0-.84.93-1.17 1.73-1.17A2.91 2.91 0 01116 27a2 2 0 01-1.92 1.76zm9.26-5.78l-1.87 4.74h-.06L119.46 23h-1.76l2.91 6.62-1.61 3.69h1.7L125.14 23zm-14.69 7h1.63V19.07h-1.63z" fill="#fff"/><path d="M20.44 17.54a2 2 0 00-.46 1.4v22.12a2 2 0 00.46 1.4l.07.07L32.9 30.15v-.29L20.51 17.47z" fill="url(#a)"/><path d="M37 34.28l-4.1-4.13v-.29l4.1-4.14.09.05L42 28.56c1.4.79 1.4 2.09 0 2.89l-4.89 2.78z" fill="url(#b)"/><path d="M37.12 34.22L32.9 30 20.44 42.46a1.63 1.63 0 002.08.06l14.61-8.3" fill="url(#c)"/><path d="M37.12 25.78l-14.61-8.3a1.63 1.63 0 00-2.08.06L32.9 30z" fill="url(#d)"/><path d="M37 34.13l-14.49 8.25a1.67 1.67 0 01-2 0l-.07.07.07.07a1.66 1.66 0 002 0l14.61-8.3z" style="isolation:isolate" opacity=".2"/><path d="M20.44 42.32a2 2 0 01-.46-1.4v.15a2 2 0 00.46 1.4l.07-.07zM42 31.3l-5 2.83.09.09L42 31.44A1.75 1.75 0 0043 30a1.86 1.86 0 01-1 1.3z" style="isolation:isolate" opacity=".12"/><path d="M22.51 17.62L42 28.7a1.86 1.86 0 011 1.3 1.75 1.75 0 00-1-1.44L22.51 17.48c-1.4-.79-2.54-.13-2.54 1.47v.15c.03-1.61 1.15-2.27 2.54-1.48z" style="isolation:isolate" fill="#fff" opacity=".25"/><g data-name="Layer 3" fill="#fff" stroke="#fff" stroke-miterlimit="10" stroke-width=".2"><path d="M55.57 38.77h.21a3.26 3.26 0 011 1 2.58 2.58 0 01.22 1.29 2.23 2.23 0 01-.75 1.79 3.29 3.29 0 01-2.19.64 3.15 3.15 0 01-2.18-.71 2.42 2.42 0 01-.79-1.89 2.33 2.33 0 01.49-1.56 1.58 1.58 0 011.26-.58 1.24 1.24 0 01.89.32 1.12 1.12 0 01.33.85 1.2 1.2 0 01-.37.94 1.53 1.53 0 01-1.07.34 1.66 1.66 0 01-.81-.21 1.69 1.69 0 00.63 1.3 2.45 2.45 0 001.58.48 2.62 2.62 0 001.63-.44 1.53 1.53 0 00.63-1.33 1.85 1.85 0 00-.23-.89 1.9 1.9 0 00-.64-.69 1.55 1.55 0 01-1.06-.37 1.24 1.24 0 01-.37-.94 1.13 1.13 0 01.39-.88 1.42 1.42 0 011-.35h.08a1.47 1.47 0 01.76.18 1.39 1.39 0 01.49.53 1.22 1.22 0 01.53-.54 1.92 1.92 0 01.85-.16h.22a1.15 1.15 0 010-.34.91.91 0 01.36-.75 1.48 1.48 0 01.94-.29 1.56 1.56 0 01.85.21 1.32 1.32 0 01.52.67l-.71.18a.63.63 0 00-.65-.46.7.7 0 00-.45.14.45.45 0 00-.17.37.51.51 0 00.07.28 1.73 1.73 0 011.12.38 1.26 1.26 0 01.39 1 1.15 1.15 0 01-.36.89 1.35 1.35 0 01-.95.33 1.26 1.26 0 01-.93-.34 1.11 1.11 0 01-.34-.82 1.58 1.58 0 01.19-.75H58a.88.88 0 00-.94.86h-.72a1.1 1.1 0 00-.3-.63.78.78 0 00-.56-.23.78.78 0 00-.51.15.51.51 0 00-.18.41.54.54 0 00.18.45.9.9 0 00.56.14h.09zm-3.67 1.56a1.25 1.25 0 00.73.22.88.88 0 00.56-.15.53.53 0 00.19-.44.55.55 0 00-.15-.4.52.52 0 00-.39-.15.85.85 0 00-.6.24 1.25 1.25 0 00-.33.68zm7-2.74a1.1 1.1 0 00-.24.67.58.58 0 00.62.62.58.58 0 00.44-.16.6.6 0 00.16-.43.64.64 0 00-.21-.52 1 1 0 00-.65-.17zm5.66 1.57a1.25 1.25 0 01-.29-.8 1.17 1.17 0 01.28-.78 1.48 1.48 0 01.82-.45 1.2 1.2 0 01-.11-.52.91.91 0 01.36-.75 1.48 1.48 0 01.94-.28 1.58 1.58 0 01.85.21 1.33 1.33 0 01.52.68l-.71.18a.64.64 0 00-.65-.46.71.71 0 00-.45.14.45.45 0 00-.17.37.58.58 0 00.15.38 2.24 2.24 0 011.56.6 1.87 1.87 0 01.55 1.32v.32a2.47 2.47 0 01.71.93 3 3 0 01.25 1.24 2.29 2.29 0 01-.42 1.51 1.36 1.36 0 01-1.13.52 1.63 1.63 0 01-.82-.19 1.7 1.7 0 01-.59-.61 1.61 1.61 0 01-.55.59 1.65 1.65 0 01-.88.21 1.32 1.32 0 01-1.1-.53 2.29 2.29 0 01-.41-1.44 2.89 2.89 0 01.33-1.4 2.39 2.39 0 01.96-.99zm1.3 2.52h.72a1.27 1.27 0 00.3.8.87.87 0 00.66.29.72.72 0 00.65-.31 1.71 1.71 0 00.21-.94 2.06 2.06 0 00-.55-1.52 2 2 0 00-1.53-.56h-.14a2.17 2.17 0 00-1.57.55 2 2 0 00-.57 1.5 1.77 1.77 0 00.21 1 .72.72 0 00.65.31.85.85 0 00.66-.29 1.34 1.34 0 00.3-.83zM67.49 39a1.37 1.37 0 00-.48-.88 1.57 1.57 0 00-1-.32 1.28 1.28 0 00-.72.17.52.52 0 00-.25.45.68.68 0 00.21.51 3.75 3.75 0 011-.14 3.48 3.48 0 011.24.21zm5.01-1.23a1.56 1.56 0 010 .29 1.07 1.07 0 01-.33.83 1.29 1.29 0 01-.91.31 1.19 1.19 0 01-.89-.33 1.08 1.08 0 01-.32-.79 1 1 0 01.41-.87 1.78 1.78 0 011.11-.31 3.23 3.23 0 011.84.6 4.23 4.23 0 011.4 1.61 4.71 4.71 0 01.52 2.17 2.62 2.62 0 01-.45 1.67 1.64 1.64 0 01-1.35.55 1.77 1.77 0 01-1-.27 4.44 4.44 0 01-1-1.08 3.51 3.51 0 00-.5-.6.52.52 0 00-.31-.11.46.46 0 00-.38.17.67.67 0 00-.14.44 1.7 1.7 0 00.1.58 2.53 2.53 0 00.34.61l-.75.25a3.21 3.21 0 01-.34-.72 2.43 2.43 0 01-.11-.72 1.33 1.33 0 01.35-.95 1.17 1.17 0 01.9-.38 1.36 1.36 0 01.55.1 1.4 1.4 0 01.41.28 6.52 6.52 0 01.55.65 7.35 7.35 0 00.51.62 1.31 1.31 0 00.39.29 1.1 1.1 0 00.47.09.83.83 0 00.75-.37 2 2 0 00.24-1.12 4 4 0 00-.59-2 3.57 3.57 0 00-1.47-1.49zm-.72-.22h-.3a.85.85 0 00-.52.14.45.45 0 00-.19.38.51.51 0 00.13.37.53.53 0 00.39.13.51.51 0 00.58-.59.93.93 0 00-.09-.43z"/><path d="M77.52 44.92a2.62 2.62 0 00.3-.73 3.63 3.63 0 00.1-.89 4.12 4.12 0 00-.6-2.23 5.19 5.19 0 00-1.79-1.68l.38-.64a5.76 5.76 0 012 2 4.87 4.87 0 01.71 2.55 4 4 0 01-.16 1.17 3 3 0 01-.48 1 2.45 2.45 0 00.41.33.63.63 0 00.63 0 1.08 1.08 0 00.29-.26l.44.47a1.78 1.78 0 01-.5.39 1.22 1.22 0 01-.55.12 1.19 1.19 0 01-.58-.14 2.8 2.8 0 01-.6-.47 2.63 2.63 0 01-.83.46 3 3 0 01-1 .15 1.86 1.86 0 01-1.24-.39 1.3 1.3 0 01-.47-1 1.27 1.27 0 01.4-1 1.51 1.51 0 011.08-.38 1.78 1.78 0 01.91.24 5.39 5.39 0 011.15.93zm-.43.49c-.27-.28-.49-.5-.65-.64a1.68 1.68 0 00-.45-.3 1.2 1.2 0 00-.47-.09.78.78 0 00-.54.19.63.63 0 00-.21.49.68.68 0 00.26.58 1.21 1.21 0 00.75.2 2.27 2.27 0 00.72-.11 1.91 1.91 0 00.59-.32zm7.35-2.69a2 2 0 01-.63.6 1.49 1.49 0 01-.72.17 1.29 1.29 0 01-1-.38 1.4 1.4 0 01-.36-1 1.31 1.31 0 01.37-1 1.26 1.26 0 01.93-.37 1.44 1.44 0 01.75.2 3.91 3.91 0 01.89.92 3 3 0 00.67.71 1.17 1.17 0 00.64.16.85.85 0 00.71-.31 1.52 1.52 0 00.24-.93A3.67 3.67 0 0085.84 39l-.08-.21a6.34 6.34 0 00-2.07-1.26l.36-.74a7.45 7.45 0 011.48.83 6.81 6.81 0 011.19 1.08l.11.3a4.25 4.25 0 01.87 2.54 2.06 2.06 0 01-.45 1.46 1.67 1.67 0 01-1.3.51 1.76 1.76 0 01-.8-.18 2.45 2.45 0 01-.71-.61zm-2.19-2.33a1.85 1.85 0 01-.16-.74 1.06 1.06 0 01.38-.84 1.46 1.46 0 011-.33h.08a1.46 1.46 0 01.76.18 1.4 1.4 0 01.49.53 1.22 1.22 0 01.53-.54 1.92 1.92 0 01.85-.17h2.62a5.06 5.06 0 01.84.06 1.51 1.51 0 01.57.23 1.15 1.15 0 01.4.44 1.41 1.41 0 01.14.66 1.14 1.14 0 01-.36.88 1.34 1.34 0 01-.95.33 1.26 1.26 0 01-.93-.34 1.11 1.11 0 01-.34-.82 1.57 1.57 0 01.19-.75h-2.27a.88.88 0 00-.93.86h-.72a1.1 1.1 0 00-.3-.63.78.78 0 00-.56-.23.77.77 0 00-.52.15.55.55 0 00-.17.44.81.81 0 00.11.42zM84 42.15a2.83 2.83 0 00-.51-.56.7.7 0 00-.41-.13.57.57 0 00-.44.18.77.77 0 000 1 .64.64 0 00.49.19.76.76 0 00.5-.17 1.3 1.3 0 00.37-.51zm5.11-3a1.1 1.1 0 00-.24.67.58.58 0 00.62.62.58.58 0 00.44-.16.6.6 0 00.16-.43.64.64 0 00-.21-.52 1 1 0 00-.65-.17zm3.67.27a2.12 2.12 0 011.05.26 1.84 1.84 0 01.73.73 2.13 2.13 0 01.26 1 1.94 1.94 0 01-2 2 2.16 2.16 0 01-1-.25 1.8 1.8 0 01-.73-.73 2.13 2.13 0 01-.26-1.05 2.11 2.11 0 01.26-1 1.89 1.89 0 01.73-.73 2.09 2.09 0 01.96-.23zm0 3.35a1.23 1.23 0 00.94-.36 1.33 1.33 0 00.34-.95 1.31 1.31 0 00-.35-.94 1.36 1.36 0 00-1.86 0 1.31 1.31 0 00-.35.95 1.33 1.33 0 00.34.95 1.22 1.22 0 00.94.35zm5.56-.07a1.61 1.61 0 01-.55.59 1.65 1.65 0 01-.88.21 1.32 1.32 0 01-1.1-.53 2.29 2.29 0 01-.41-1.44 2.87 2.87 0 01.36-1.44 2.46 2.46 0 011-1 3.41 3.41 0 011.59-.35 3.3 3.3 0 011.54.34 2.39 2.39 0 011 1 2.93 2.93 0 01.35 1.46 2.29 2.29 0 01-.41 1.45 1.36 1.36 0 01-1.13.52 1.63 1.63 0 01-.82-.19 1.7 1.7 0 01-.54-.62zm-.36-1h.72a1.27 1.27 0 00.3.8.87.87 0 00.66.29.72.72 0 00.65-.31 1.71 1.71 0 00.21-.94A2.06 2.06 0 00100 40a2 2 0 00-1.53-.56h-.14a2.17 2.17 0 00-1.57.55 2 2 0 00-.57 1.5 1.77 1.77 0 00.21 1 .72.72 0 00.65.31.85.85 0 00.66-.29 1.34 1.34 0 00.29-.83zm-.46-3.77a3.05 3.05 0 00.18.53.64.64 0 00.18.25.4.4 0 00.24.07.59.59 0 00.34-.11 2.61 2.61 0 00.46-.5l.28-.37a3.44 3.44 0 01.87-.87 1.89 1.89 0 011-.24v.71a1.74 1.74 0 00-.52.1 1.22 1.22 0 00-.37.22 4 4 0 00-.47.53l-.21.28a3.26 3.26 0 01-.72.72 1.33 1.33 0 01-.76.23 1.08 1.08 0 01-.84-.34 2.31 2.31 0 01-.48-1zm6.39 1.49a2.12 2.12 0 011.05.26 1.84 1.84 0 01.73.73 2.13 2.13 0 01.26 1 1.94 1.94 0 01-2 2 2.16 2.16 0 01-1-.25 1.8 1.8 0 01-.73-.73 2.13 2.13 0 01-.26-1.05 2.11 2.11 0 01.26-1 1.89 1.89 0 01.73-.73 2.09 2.09 0 01.96-.23zm0 3.35a1.23 1.23 0 00.94-.36 1.33 1.33 0 00.34-.95 1.31 1.31 0 00-.35-.94 1.36 1.36 0 00-1.86 0 1.31 1.31 0 00-.35.95 1.33 1.33 0 00.34.95 1.22 1.22 0 00.94.35zm5.56-.07a1.61 1.61 0 01-.55.59 1.65 1.65 0 01-.88.21 1.34 1.34 0 01-1.09-.51 2.13 2.13 0 01-.42-1.38 2.85 2.85 0 01.39-1.5 2.55 2.55 0 011.13-1 3.94 3.94 0 011.7-.35 4.41 4.41 0 011.23.17 4.74 4.74 0 011.17.53l-.45.62a3.9 3.9 0 00-1-.48 3.5 3.5 0 00-1-.14 2.57 2.57 0 00-1.76.56 2 2 0 00-.64 1.57q0 1.18.85 1.18a.85.85 0 00.66-.28 1.35 1.35 0 00.3-.81h.72a1.06 1.06 0 00.44.91 1.42 1.42 0 01-.09-.51 1.07 1.07 0 01.35-.83 1.36 1.36 0 01.94-.32 1.33 1.33 0 01.94.34 1.13 1.13 0 01.37.86 1.26 1.26 0 01-.41 1 1.63 1.63 0 01-1.11.36 2.72 2.72 0 01-1.08-.19 1.59 1.59 0 01-.71-.6zm1.06-4.82a1.42 1.42 0 01-1 .37 1.37 1.37 0 01-.87-.25.85.85 0 01-.33-.71 1 1 0 01.34-.77 1.37 1.37 0 01.91-.29 1.51 1.51 0 011.15.47 1.65 1.65 0 01.44 1.18 1.48 1.48 0 01-.4 1.13 1.64 1.64 0 01-1.17.38 3.63 3.63 0 01-1.19-.24l.25-.6a2.21 2.21 0 00.9.2 1 1 0 00.74-.21.87.87 0 00.23-.67zm-.16-.61a1 1 0 00-.34-.32.91.91 0 00-.45-.11.73.73 0 00-.45.12.39.39 0 00-.15.33.33.33 0 00.14.29.64.64 0 00.37.1 1.07 1.07 0 00.88-.42zm.62 5.52h.3a.85.85 0 00.57-.16.57.57 0 00.18-.45.52.52 0 00-.16-.4.64.64 0 00-.45-.14.63.63 0 00-.45.15.58.58 0 00-.16.44 1 1 0 00.18.55z"/></g></svg>