<svg xmlns="http://www.w3.org/2000/svg" viewBox="10 10 135 40"><defs><linearGradient id="a" x1="31.8" y1="183.29" x2="15.02" y2="166.51" gradientTransform="matrix(1 0 0 -1 0 202)" gradientUnits="userSpaceOnUse"><stop offset="0" stop-color="#00a0ff"/><stop offset=".01" stop-color="#00a1ff"/><stop offset=".26" stop-color="#00beff"/><stop offset=".51" stop-color="#00d2ff"/><stop offset=".76" stop-color="#00dfff"/><stop offset="1" stop-color="#00e3ff"/></linearGradient><linearGradient id="b" x1="43.83" y1="172" x2="19.64" y2="172" gradientTransform="matrix(1 0 0 -1 0 202)" gradientUnits="userSpaceOnUse"><stop offset="0" stop-color="#ffe000"/><stop offset=".41" stop-color="#ffbd00"/><stop offset=".78" stop-color="orange"/><stop offset="1" stop-color="#ff9c00"/></linearGradient><linearGradient id="c" x1="34.83" y1="169.7" x2="12.07" y2="146.95" gradientTransform="matrix(1 0 0 -1 0 202)" gradientUnits="userSpaceOnUse"><stop offset="0" stop-color="#ff3a44"/><stop offset="1" stop-color="#c31162"/></linearGradient><linearGradient id="d" x1="17.3" y1="191.82" x2="27.46" y2="181.66" gradientTransform="matrix(1 0 0 -1 0 202)" gradientUnits="userSpaceOnUse"><stop offset="0" stop-color="#32a071"/><stop offset=".07" stop-color="#2da771"/><stop offset=".48" stop-color="#15cf74"/><stop offset=".8" stop-color="#06e775"/><stop offset="1" stop-color="#00f076"/></linearGradient></defs><path fill="none" d="M0 0h155v60H0z"/><rect x="10" y="10" width="135" height="40" rx="5" ry="5"/><path d="M140 10.8a4.2 4.2 0 014.2 4.2v30a4.2 4.2 0 01-4.2 4.2H15a4.2 4.2 0 01-4.2-4.2V15a4.2 4.2 0 014.2-4.2h125m0-.8H15a5 5 0 00-5 5v30a5 5 0 005 5h125a5 5 0 005-5V15a5 5 0 00-5-5z" fill="#a6a6a6"/><path d="M78.14 31.75A4.25 4.25 0 1082.41 36a4.19 4.19 0 00-4.27-4.25zm0 6.83a2.58 2.58 0 112.4-2.58 2.46 2.46 0 01-2.4 2.58zm-9.31-6.83A4.25 4.25 0 1073.09 36a4.19 4.19 0 00-4.27-4.25zm0 6.83A2.58 2.58 0 1171.22 36a2.46 2.46 0 01-2.4 2.58zm-11.09-5.52v1.8h4.32a3.77 3.77 0 01-1 2.27 4.42 4.42 0 01-3.33 1.32 4.8 4.8 0 010-9.6A4.6 4.6 0 0161 30.14l1.27-1.27A6.29 6.29 0 0057.74 27a6.61 6.61 0 100 13.21 6 6 0 004.61-1.85 6 6 0 001.56-4.22 5.87 5.87 0 00-.1-1.13zm45.31 1.4a4 4 0 00-3.64-2.71 4 4 0 00-4 4.25 4.16 4.16 0 004.22 4.25 4.23 4.23 0 003.54-1.88l-1.45-1a2.43 2.43 0 01-2.09 1.18 2.16 2.16 0 01-2.06-1.29l5.69-2.35zm-5.8 1.42a2.33 2.33 0 012.22-2.48 1.65 1.65 0 011.58.9zM92.63 40h1.87V27.5h-1.87zm-3.06-7.3h-.07a3 3 0 00-2.24-1 4.26 4.26 0 000 8.51 2.9 2.9 0 002.24-1h.06v.61c0 1.63-.87 2.5-2.27 2.5a2.35 2.35 0 01-2.14-1.51l-1.63.68A4.05 4.05 0 0087.29 44c2.19 0 4-1.29 4-4.43V32h-1.72zm-2.14 5.88a2.59 2.59 0 010-5.16A2.4 2.4 0 0189.7 36a2.38 2.38 0 01-2.28 2.58zm24.38-11.08h-4.47V40h1.87v-4.74h2.61a3.89 3.89 0 100-7.76zm0 6h-2.61v-4.26h2.65a2.14 2.14 0 110 4.29zm11.53-1.8a3.5 3.5 0 00-3.33 1.91l1.66.69a1.77 1.77 0 011.7-.92 1.8 1.8 0 012 1.61v.13a4.13 4.13 0 00-1.95-.48c-1.79 0-3.6 1-3.6 2.81a2.89 2.89 0 003.1 2.75 2.63 2.63 0 002.4-1.2h.06v1h1.8v-4.81c0-2.19-1.66-3.46-3.79-3.46zm-.23 6.85c-.61 0-1.46-.31-1.46-1.06 0-1 1.06-1.33 2-1.33a3.32 3.32 0 011.7.42 2.26 2.26 0 01-2.19 2zM133.74 32l-2.14 5.42h-.06L129.32 32h-2l3.33 7.58-1.9 4.21h1.95L135.82 32zm-16.81 8h1.87V27.5h-1.87z" fill="#fff"/><path d="M20.44 17.54a2 2 0 00-.46 1.4v22.12a2 2 0 00.46 1.4l.07.07L32.9 30.15v-.29L20.51 17.47z" fill="url(#a)"/><path d="M37 34.28l-4.1-4.13v-.29l4.1-4.14.09.05L42 28.56c1.4.79 1.4 2.09 0 2.89l-4.89 2.78z" fill="url(#b)"/><path d="M37.12 34.22L32.9 30 20.44 42.46a1.63 1.63 0 002.08.06l14.61-8.3" fill="url(#c)"/><path d="M37.12 25.78l-14.61-8.3a1.63 1.63 0 00-2.08.06L32.9 30z" fill="url(#d)"/><path d="M37 34.13l-14.49 8.25a1.67 1.67 0 01-2 0l-.07.07.07.07a1.66 1.66 0 002 0l14.61-8.3z" style="isolation:isolate" opacity=".2"/><path d="M20.44 42.32a2 2 0 01-.46-1.4v.15a2 2 0 00.46 1.4l.07-.07zM42 31.3l-5 2.83.09.09L42 31.44A1.75 1.75 0 0043 30a1.86 1.86 0 01-1 1.3z" style="isolation:isolate" opacity=".12"/><path d="M22.51 17.62L42 28.7a1.86 1.86 0 011 1.3 1.75 1.75 0 00-1-1.44L22.51 17.48c-1.4-.79-2.54-.13-2.54 1.47v.15c.03-1.61 1.15-2.27 2.54-1.48z" style="isolation:isolate" fill="#fff" opacity=".25"/><path d="M53.52 21.29a.87.87 0 01-.59-.25.85.85 0 01-.21-.6.84.84 0 01.28-.64 1 1 0 01.68-.23.91.91 0 01.69.25 1 1 0 01.24.71 1.57 1.57 0 01-.06.44 1.53 1.53 0 01-.17.37 2 2 0 01-.25.33l-.32.31-.37.3-.39.28-.34.25a1.59 1.59 0 00-.22.19h-.79v-1.19q0-.28-.07-.51c0-.15-.06-.29-.09-.42l-.09-.37q0-.19-.07-.38a3.12 3.12 0 010-.42 1.8 1.8 0 01.16-.77 1.66 1.66 0 01.47-.6 2.21 2.21 0 01.75-.38 3.81 3.81 0 012.07 0 1.91 1.91 0 01.72.42 1.59 1.59 0 01.41.65 2.53 2.53 0 01.13.82V23h-.76v-3.09a1.82 1.82 0 00-.1-.62 1.2 1.2 0 00-.29-.46 1.29 1.29 0 00-.49-.29 2.13 2.13 0 00-.69-.1 2.42 2.42 0 00-.68.09 1.53 1.53 0 00-.51.25 1.1 1.1 0 00-.32.4 1.18 1.18 0 00-.11.52 3.67 3.67 0 000 .6q0 .28.11.59t.13.66a7 7 0 01.09.79 2.42 2.42 0 01.28-.23l.35-.27a3.69 3.69 0 00.32-.28.53.53 0 00.1-.27zm.55-.86a.41.41 0 00-.12-.31.45.45 0 00-.32-.11.44.44 0 00-.31.11.45.45 0 000 .62.43.43 0 00.31.12.44.44 0 00.32-.12.41.41 0 00.12-.31zM60 23h-.76v-3.29a1.82 1.82 0 00-.07-.52 1.1 1.1 0 00-.21-.4.91.91 0 00-.35-.26 1.24 1.24 0 00-.5-.09 2.14 2.14 0 00-.78.15 3.4 3.4 0 00-.75.41l-.35-.56a3.56 3.56 0 01.84-.45 2.88 2.88 0 011-.17 2.29 2.29 0 01.8.13 1.55 1.55 0 011 1 2.33 2.33 0 01.12.78zm2.15-.78a.79.79 0 01.86-.86h.23v-1.61a1.89 1.89 0 00-.07-.52 1.19 1.19 0 00-.21-.42.93.93 0 00-.35-.27 1.17 1.17 0 00-.5-.1 2.25 2.25 0 00-.77.14 3 3 0 00-.74.39l-.36-.53a3.56 3.56 0 01.84-.45 2.88 2.88 0 011-.17 2.29 2.29 0 01.8.13 1.55 1.55 0 011 1 2.33 2.33 0 01.12.78v2.52a.83.83 0 01-.24.63 1 1 0 01-.69.23 1 1 0 01-.68-.23.82.82 0 01-.24-.66zm.49 0a.42.42 0 00.12.31.44.44 0 00.32.12.43.43 0 00.31-.12.41.41 0 00.12-.31.39.39 0 00-.12-.3.43.43 0 00-.31-.11.44.44 0 00-.32.11.4.4 0 00-.12.3zm6.19-4.31v3.31a2 2 0 01.54.13 1.17 1.17 0 01.36.22.78.78 0 01.2.3 1 1 0 01.06.36.82.82 0 01-.24.63 1 1 0 01-.73.23 1.32 1.32 0 01-.45-.07.68.68 0 01-.29-.19.78.78 0 01-.16-.32 1.83 1.83 0 010-.45v-.31a1.83 1.83 0 00-.46.16 2.63 2.63 0 00-.45.29 3.36 3.36 0 00-.4.38 2.75 2.75 0 00-.33.43h-.76v-3.44h-.22a.86.86 0 01-.63-.22.85.85 0 01-.23-.63.84.84 0 01.24-.63 1.13 1.13 0 011.36 0 .84.84 0 01.24.63v3.38a1.93 1.93 0 01.33-.33 2.51 2.51 0 01.4-.25 2.94 2.94 0 01.44-.18 2.75 2.75 0 01.46-.1v-3.33zm-3.74.81a.41.41 0 00.12.3.44.44 0 00.32.12.43.43 0 00.31-.12.4.4 0 00.12-.3.41.41 0 00-.12-.31.43.43 0 00-.31-.11.44.44 0 00-.32.11.41.41 0 00-.12.32zm4.38 3.5a.45.45 0 00-.15-.35.92.92 0 00-.49-.19v.51a.58.58 0 00.07.31.26.26 0 00.24.11.31.31 0 00.24-.1.41.41 0 00.09-.29zM68 14.31a.68.68 0 01-.22.53 1 1 0 01-1.23 0 .73.73 0 01-.23-.57.82.82 0 01.07-.35.65.65 0 01.23-.26 1.33 1.33 0 01.42-.18 3.93 3.93 0 01.64-.1c.33 0 .61-.06.82-.1a2.14 2.14 0 00.49-.14.57.57 0 00.25-.19.71.71 0 00.1-.26H70a1.81 1.81 0 01-.12.42.78.78 0 01-.23.3 1.18 1.18 0 01-.39.2 3.22 3.22 0 01-.61.11h-.84A.66.66 0 0168 14a.61.61 0 010 .31zm-1.22-.05a.37.37 0 00.11.28.39.39 0 00.28.1.38.38 0 00.27-.1.36.36 0 00.11-.28.36.36 0 00-.11-.27.38.38 0 00-.27-.1.39.39 0 00-.28.1.36.36 0 00-.09.26zm5.58 2.57a1.1 1.1 0 00-.28-.82 1.23 1.23 0 00-.89-.28h-.66a4.11 4.11 0 01.09-1 1.31 1.31 0 01.3-.6 1.12 1.12 0 01.55-.31 3.38 3.38 0 01.83-.09h2.2v.6h-2.26a1.39 1.39 0 00-.37 0 .91.91 0 00-.3.14.67.67 0 00-.2.24.7.7 0 00-.08.33 3.14 3.14 0 01.82.09 1.23 1.23 0 01.55.3 1.26 1.26 0 01.31.55 3 3 0 01.1.82v4.49h.22a.86.86 0 01.63.22.85.85 0 01.23.63.84.84 0 01-.24.63 1.13 1.13 0 01-1.36 0 .84.84 0 01-.24-.63zm1.35 5.39a.4.4 0 00-.12-.3.44.44 0 00-.32-.11.43.43 0 00-.31.11.39.39 0 00-.12.3.41.41 0 00.12.31.43.43 0 00.31.12.44.44 0 00.32-.12.42.42 0 00.12-.31z" fill="#fff" stroke="#fff" stroke-miterlimit="10" stroke-width=".2"/><path d="M79.27 23h-.76v-2.26a2.17 2.17 0 00-.06-.54.56.56 0 00-.13-.28q-.33.28-.65.6a6.71 6.71 0 00-.61.7 6.09 6.09 0 00-.53.82 5.09 5.09 0 00-.4 1h-.76v-3.47h-.22a.86.86 0 01-.63-.22.85.85 0 01-.23-.63.84.84 0 01.24-.63 1.13 1.13 0 011.36 0 .84.84 0 01.24.63v2.88a4 4 0 01.35-.57 5.92 5.92 0 01.46-.55q.25-.26.51-.5a6.22 6.22 0 01.51-.41l-.2-.17a1.25 1.25 0 01-.17-.2 1.08 1.08 0 01-.12-.24.79.79 0 010-.27.92.92 0 01.07-.36.72.72 0 01.18-.26.81.81 0 01.29-.16 1.24 1.24 0 01.38-.05 1.28 1.28 0 01.37.05.82.82 0 01.3.16.72.72 0 01.19.26.85.85 0 01.07.36.8.8 0 01-.13.45 1.64 1.64 0 01-.34.37 1.52 1.52 0 01.24.27 1.19 1.19 0 01.14.29 1.47 1.47 0 01.07.32v.36zm-4.48-4.27a.41.41 0 00.12.3.44.44 0 00.32.12.43.43 0 00.31-.12.4.4 0 00.12-.3.41.41 0 00-.12-.31.43.43 0 00-.31-.11.44.44 0 00-.32.11.41.41 0 00-.13.31zm3.9 0a.38.38 0 00-.09-.27.34.34 0 00-.25-.1.32.32 0 00-.26.1.38.38 0 00-.09.26.4.4 0 000 .16.55.55 0 00.09.14l.12.11.14.09a1 1 0 00.21-.2.45.45 0 00.13-.32zM84.8 23h-.72a6.47 6.47 0 00-.4-.94 4.36 4.36 0 00-.5-.77 2.41 2.41 0 00-.57-.52 1.16 1.16 0 00-.62-.19 1.36 1.36 0 00-.34 0 .79.79 0 00-.27.12.58.58 0 00-.17.2.61.61 0 00-.06.28v.15h.22a.86.86 0 01.63.22.85.85 0 01.23.63.83.83 0 01-.24.63.94.94 0 01-.67.23 1 1 0 01-.69-.23.83.83 0 01-.24-.63v-1a1.47 1.47 0 01.08-.51 1 1 0 01.26-.4 1.2 1.2 0 01.45-.26 2 2 0 01.65-.09 1.86 1.86 0 01.77.16 2.41 2.41 0 01.63.41 2.82 2.82 0 01.49.57 3.19 3.19 0 01.32.65V20a1.85 1.85 0 00-.12-.68 1.27 1.27 0 00-.82-.77 2.1 2.1 0 00-.65-.09 3.25 3.25 0 00-1 .15 3.48 3.48 0 00-.84.41l-.35-.56a3.48 3.48 0 011-.46 4.22 4.22 0 011.26-.17 3.23 3.23 0 011 .14 2 2 0 01.74.42 1.74 1.74 0 01.45.67 2.5 2.5 0 01.15.9zm-3.06-.78a.4.4 0 00-.12-.3.44.44 0 00-.32-.11.43.43 0 00-.31.11.4.4 0 00-.12.3.42.42 0 00.12.31.43.43 0 00.31.12.44.44 0 00.32-.12.42.42 0 00.12-.31zm6.26-.93a.87.87 0 01-.59-.25.85.85 0 01-.21-.6.84.84 0 01.24-.63 1 1 0 01.68-.23.91.91 0 01.69.25 1 1 0 01.24.71A1.56 1.56 0 0189 21a1.53 1.53 0 01-.16.37 2 2 0 01-.25.33l-.32.31-.37.3-.39.28-.34.25a1.59 1.59 0 00-.22.19h-.79v-1.19c0-.19 0-.36-.07-.51s-.06-.29-.09-.42l-.09-.37q0-.19-.07-.38a3.12 3.12 0 010-.42 1.8 1.8 0 01.16-.77 1.66 1.66 0 01.47-.6 2.21 2.21 0 01.75-.38 3.81 3.81 0 012.07 0 1.91 1.91 0 01.72.42 1.59 1.59 0 01.41.65 2.52 2.52 0 01.13.82V23h-.85v-3.09a1.82 1.82 0 00-.1-.62 1.2 1.2 0 00-.29-.46 1.29 1.29 0 00-.49-.29 2.13 2.13 0 00-.69-.1 2.42 2.42 0 00-.68.09 1.53 1.53 0 00-.51.25 1.1 1.1 0 00-.32.4 1.18 1.18 0 00-.11.52 3.67 3.67 0 000 .6q0 .28.11.59t.13.66a7 7 0 01.09.79 2.41 2.41 0 01.28-.23l.35-.27a3.7 3.7 0 00.32-.28.53.53 0 00.21-.27zm.55-.86a.41.41 0 00-.12-.31.45.45 0 00-.32-.11.44.44 0 00-.31.11.45.45 0 000 .62.43.43 0 00.31.12.44.44 0 00.32-.12.41.41 0 00.11-.31zm2.62-5.06l.28-.59a5.55 5.55 0 01.26-.5 1.87 1.87 0 01.25-.35.85.85 0 01.28-.2.9.9 0 01.35-.06.66.66 0 01.54.25 1.35 1.35 0 01.2.83v6.63h.22a.86.86 0 01.63.22.85.85 0 01.23.63.84.84 0 01-.24.63 1.13 1.13 0 01-1.36 0 .84.84 0 01-.24-.63v-7.5a1.2 1.2 0 000-.35c0-.07-.06-.1-.11-.1h-.08l-.09.07-.11.15a3 3 0 00-.14.27l-.8 1.62h-.56l-.44-2.73h.7zm2.75 6.85a.4.4 0 00-.12-.3.44.44 0 00-.32-.11.44.44 0 00-.31.11.39.39 0 00-.12.3.41.41 0 00.12.31.43.43 0 00.31.12.43.43 0 00.32-.12.42.42 0 00.12-.31zm3.08-.93a.87.87 0 01-.59-.25.85.85 0 01-.21-.6.84.84 0 01.24-.63 1 1 0 01.68-.23.91.91 0 01.69.25 1 1 0 01.24.71A1.56 1.56 0 0198 21a1.53 1.53 0 01-.17.37 2 2 0 01-.25.33l-.32.31-.37.3-.39.28-.34.25A1.59 1.59 0 0096 23h-.79v-1.19q0-.28-.07-.51c0-.15-.06-.29-.09-.42l-.09-.37q0-.19-.07-.38a3.12 3.12 0 010-.42 1.8 1.8 0 01.16-.77 1.66 1.66 0 01.47-.6 2.21 2.21 0 01.75-.38 3.81 3.81 0 012.07 0 1.91 1.91 0 01.72.42 1.59 1.59 0 01.41.65 2.52 2.52 0 01.13.82V23h-.76v-3.09a1.82 1.82 0 00-.1-.62 1.2 1.2 0 00-.29-.46 1.29 1.29 0 00-.49-.29 2.13 2.13 0 00-.69-.1 2.42 2.42 0 00-.68.09 1.53 1.53 0 00-.51.25 1.1 1.1 0 00-.32.4 1.18 1.18 0 00-.11.52 3.66 3.66 0 000 .6q0 .28.11.59t.13.66a7 7 0 01.09.79 2.42 2.42 0 01.28-.23l.35-.27a3.7 3.7 0 00.32-.28.53.53 0 00.07-.27zm.55-.86a.41.41 0 00-.12-.31.45.45 0 00-.32-.11.44.44 0 00-.31.11.45.45 0 000 .62.43.43 0 00.31.12.44.44 0 00.32-.12.41.41 0 00.14-.31zm1.54-6.71A.69.69 0 0199 14a1.26 1.26 0 01-.12.24 1.48 1.48 0 01-.15.2l-.14.14a2.4 2.4 0 00.7-.09.79.79 0 00.4-.27 1 1 0 00.18-.48 5.26 5.26 0 000-.71h.67a5.12 5.12 0 01-.07.88 1.29 1.29 0 01-.27.62 1.23 1.23 0 01-.59.37 3.56 3.56 0 01-1 .12h-.5v-.44l.17-.14.15-.17a.88.88 0 00.11-.18.44.44 0 000-.18.71.71 0 01-.19.11.64.64 0 01-.23 0 .35.35 0 01-.29-.14.59.59 0 01-.11-.37.54.54 0 01.13-.38.57.57 0 01.44-.14.83.83 0 01.33.06.6.6 0 01.22.16.64.64 0 01.13.23.92.92 0 01.12.28zm-.93-.2a.18.18 0 00.05.14.2.2 0 00.14 0 .19.19 0 00.13 0 .18.18 0 00.05-.14.19.19 0 00-.05-.14.18.18 0 00-.13-.05.17.17 0 00-.19.19zm5.5 9.57a2.12 2.12 0 01-.51-.05.85.85 0 01-.35-.18 1.17 1.17 0 01-.26-.34 4.4 4.4 0 01-.24-.54l-.24-.63-.2.06h-.22a.93.93 0 01-.68-.23.84.84 0 01-.23-.64.83.83 0 01.24-.63.94.94 0 01.68-.23 1 1 0 01.36.06.73.73 0 01.27.18 1.33 1.33 0 01.21.32q.1.2.2.47l.43 1.15a1.33 1.33 0 00.24.43.4.4 0 00.3.12.42.42 0 00.31-.12.61.61 0 00.12-.43v-2.11a1.47 1.47 0 00-.09-.52 1.12 1.12 0 00-.27-.41 1.23 1.23 0 00-.44-.27 1.8 1.8 0 00-.62-.1 2.56 2.56 0 00-.85.15 3.66 3.66 0 00-.82.4l-.35-.56a4.09 4.09 0 01.9-.45 3.29 3.29 0 011.12-.18 2.93 2.93 0 01.91.13 2 2 0 01.69.38 1.63 1.63 0 01.43.59 1.93 1.93 0 01.15.77v2.16a2.15 2.15 0 01-.06.54.91.91 0 01-.2.38.86.86 0 01-.37.23 1.75 1.75 0 01-.56.1zm-2.46-2.52a.4.4 0 00.12.31.44.44 0 00.32.11.43.43 0 00.31-.11.4.4 0 00.12-.31.41.41 0 00-.12-.31.43.43 0 00-.31-.11.44.44 0 00-.32.11.41.41 0 00-.12.31zm9.03 2.43h-.76v-3.29a1.82 1.82 0 00-.07-.52 1.1 1.1 0 00-.21-.4.91.91 0 00-.35-.26 1.24 1.24 0 00-.5-.09 2.14 2.14 0 00-.78.15 3.4 3.4 0 00-.75.41l-.35-.56a3.56 3.56 0 01.84-.45 2.88 2.88 0 011-.17 2.29 2.29 0 01.8.13 1.55 1.55 0 011 1 2.33 2.33 0 01.12.78zm1.17 0v-1.77a1.56 1.56 0 01.05-.43.9.9 0 01.17-.33 1 1 0 01.31-.24 1.91 1.91 0 01.46-.16 1 1 0 00-.28-.16l-.33-.11-.32-.07h-.22a2.4 2.4 0 01.15-.76 1.61 1.61 0 01.4-.6 1.8 1.8 0 01.67-.39 3 3 0 011-.14 3.17 3.17 0 011.05.15 1.68 1.68 0 01.67.42 1.55 1.55 0 01.36.65 3 3 0 01.11.82V23h-.76v-3.09a2.3 2.3 0 00-.08-.62 1.19 1.19 0 00-.25-.46 1.09 1.09 0 00-.44-.29 2 2 0 00-.67-.1 2.1 2.1 0 00-.62.08 1.27 1.27 0 00-.41.21.93.93 0 00-.25.29 1.07 1.07 0 00-.11.33 1.8 1.8 0 01.35.09l.32.14a1.67 1.67 0 01.26.17 1.29 1.29 0 01.18.17v.26a2.35 2.35 0 00-.44.14.91.91 0 00-.3.21.76.76 0 00-.17.3 1.35 1.35 0 00-.06.42V23z" fill="#fff" stroke="#fff" stroke-miterlimit="10" stroke-width=".2"/></svg>