<svg xmlns="http://www.w3.org/2000/svg" viewBox="10 10 135 40"><defs><linearGradient id="a" x1="31.8" y1="183.29" x2="15.02" y2="166.51" gradientTransform="matrix(1 0 0 -1 0 202)" gradientUnits="userSpaceOnUse"><stop offset="0" stop-color="#00a0ff"/><stop offset=".01" stop-color="#00a1ff"/><stop offset=".26" stop-color="#00beff"/><stop offset=".51" stop-color="#00d2ff"/><stop offset=".76" stop-color="#00dfff"/><stop offset="1" stop-color="#00e3ff"/></linearGradient><linearGradient id="b" x1="43.83" y1="172" x2="19.64" y2="172" gradientTransform="matrix(1 0 0 -1 0 202)" gradientUnits="userSpaceOnUse"><stop offset="0" stop-color="#ffe000"/><stop offset=".41" stop-color="#ffbd00"/><stop offset=".78" stop-color="orange"/><stop offset="1" stop-color="#ff9c00"/></linearGradient><linearGradient id="c" x1="34.83" y1="169.7" x2="12.07" y2="146.95" gradientTransform="matrix(1 0 0 -1 0 202)" gradientUnits="userSpaceOnUse"><stop offset="0" stop-color="#ff3a44"/><stop offset="1" stop-color="#c31162"/></linearGradient><linearGradient id="d" x1="17.3" y1="191.82" x2="27.46" y2="181.66" gradientTransform="matrix(1 0 0 -1 0 202)" gradientUnits="userSpaceOnUse"><stop offset="0" stop-color="#32a071"/><stop offset=".07" stop-color="#2da771"/><stop offset=".48" stop-color="#15cf74"/><stop offset=".8" stop-color="#06e775"/><stop offset="1" stop-color="#00f076"/></linearGradient></defs><path fill="none" d="M0 0h155v60H0z"/><rect x="10" y="10" width="135" height="40" rx="5" ry="5"/><path d="M140 10.8a4.2 4.2 0 014.2 4.2v30a4.2 4.2 0 01-4.2 4.2H15a4.2 4.2 0 01-4.2-4.2V15a4.2 4.2 0 014.2-4.2h125m0-.8H15a5 5 0 00-5 5v30a5 5 0 005 5h125a5 5 0 005-5V15a5 5 0 00-5-5z" fill="#a6a6a6"/><path d="M78.14 31.75A4.25 4.25 0 1082.41 36a4.19 4.19 0 00-4.27-4.25zm0 6.83a2.58 2.58 0 112.4-2.58 2.46 2.46 0 01-2.4 2.58zm-9.31-6.83A4.25 4.25 0 1073.09 36a4.19 4.19 0 00-4.27-4.25zm0 6.83A2.58 2.58 0 1171.22 36a2.46 2.46 0 01-2.4 2.58zm-11.09-5.52v1.8h4.32a3.77 3.77 0 01-1 2.27 4.42 4.42 0 01-3.33 1.32 4.8 4.8 0 010-9.6A4.6 4.6 0 0161 30.14l1.27-1.27A6.29 6.29 0 0057.74 27a6.61 6.61 0 100 13.21 6 6 0 004.61-1.85 6 6 0 001.56-4.22 5.87 5.87 0 00-.1-1.13zm45.31 1.4a4 4 0 00-3.64-2.71 4 4 0 00-4 4.25 4.16 4.16 0 004.22 4.25 4.23 4.23 0 003.54-1.88l-1.45-1a2.43 2.43 0 01-2.09 1.18 2.16 2.16 0 01-2.06-1.29l5.69-2.35zm-5.8 1.42a2.33 2.33 0 012.22-2.48 1.65 1.65 0 011.58.9zM92.63 40h1.87V27.5h-1.87zm-3.06-7.3h-.07a3 3 0 00-2.24-1 4.26 4.26 0 000 8.51 2.9 2.9 0 002.24-1h.06v.61c0 1.63-.87 2.5-2.27 2.5a2.35 2.35 0 01-2.14-1.51l-1.63.68A4.05 4.05 0 0087.29 44c2.19 0 4-1.29 4-4.43V32h-1.72zm-2.14 5.88a2.59 2.59 0 010-5.16A2.4 2.4 0 0189.7 36a2.38 2.38 0 01-2.28 2.58zm24.38-11.08h-4.47V40h1.87v-4.74h2.61a3.89 3.89 0 100-7.76zm0 6h-2.61v-4.26h2.65a2.14 2.14 0 110 4.29zm11.53-1.8a3.5 3.5 0 00-3.33 1.91l1.66.69a1.77 1.77 0 011.7-.92 1.8 1.8 0 012 1.61v.13a4.13 4.13 0 00-1.95-.48c-1.79 0-3.6 1-3.6 2.81a2.89 2.89 0 003.1 2.75 2.63 2.63 0 002.4-1.2h.06v1h1.8v-4.81c0-2.19-1.66-3.46-3.79-3.46zm-.23 6.85c-.61 0-1.46-.31-1.46-1.06 0-1 1.06-1.33 2-1.33a3.32 3.32 0 011.7.42 2.26 2.26 0 01-2.19 2zM133.74 32l-2.14 5.42h-.06L129.32 32h-2l3.33 7.58-1.9 4.21h1.95L135.82 32zm-16.81 8h1.87V27.5h-1.87z" fill="#fff"/><path d="M20.44 17.54a2 2 0 00-.46 1.4v22.12a2 2 0 00.46 1.4l.07.07L32.9 30.15v-.29L20.51 17.47z" fill="url(#a)"/><path d="M37 34.28l-4.1-4.13v-.29l4.1-4.14.09.05L42 28.56c1.4.79 1.4 2.09 0 2.89l-4.89 2.78z" fill="url(#b)"/><path d="M37.12 34.22L32.9 30 20.44 42.46a1.63 1.63 0 002.08.06l14.61-8.3" fill="url(#c)"/><path d="M37.12 25.78l-14.61-8.3a1.63 1.63 0 00-2.08.06L32.9 30z" fill="url(#d)"/><path d="M37 34.13l-14.49 8.25a1.67 1.67 0 01-2 0l-.07.07.07.07a1.66 1.66 0 002 0l14.61-8.3z" style="isolation:isolate" opacity=".2"/><path d="M20.44 42.32a2 2 0 01-.46-1.4v.15a2 2 0 00.46 1.4l.07-.07zM42 31.3l-5 2.83.09.09L42 31.44A1.75 1.75 0 0043 30a1.86 1.86 0 01-1 1.3z" style="isolation:isolate" opacity=".12"/><path d="M22.51 17.62L42 28.7a1.86 1.86 0 011 1.3 1.75 1.75 0 00-1-1.44L22.51 17.48c-1.4-.79-2.54-.13-2.54 1.47v.15c.03-1.61 1.15-2.27 2.54-1.48z" style="isolation:isolate" fill="#fff" opacity=".25"/><path d="M53.69 22.7H53v-5h-1.6V17h3.94v.7h-1.6zm2.75-1.7l-.56 1.7h-.72L57 17.31h.84l1.84 5.39h-.74l-.59-1.7zm1.77-.54l-.53-1.55c-.12-.35-.2-.67-.28-1-.08.32-.17.65-.27 1l-.53 1.56zm-1-3.53c.13-.34.42-.41.42-.67a.24.24 0 00-.26-.25.55.55 0 00-.4.28l-.26-.16a.86.86 0 01.79-.54.62.62 0 01.66.58c0 .41-.36.5-.58.86zm3.26 5.77V17h.74v5.7zm3.65 0V17H65l2.78 4.46V17h.74v5.7h-.77L64.86 18v4.7zm10.36-2.75A2.52 2.52 0 0172 22.79a2.47 2.47 0 01-2.42-2.73 2.56 2.56 0 012.5-2.83 2.45 2.45 0 012.4 2.72zM70.3 20c0 1.15.62 2.18 1.72 2.18s1.73-1 1.73-2.24c0-1.07-.56-2.19-1.72-2.19S70.3 18.85 70.3 20zm2-3.95l.84.91h-.59l-.55-.52-.5.55h-.58l.82-.91zm-.66 7.65a.41.41 0 01.41-.4.4.4 0 01.38.4.41.41 0 01-.39.41.41.41 0 01-.42-.37zm3.88-1V17h.74v5.7zm3.65 0V17h1.75a2.85 2.85 0 012.11.8 2.81 2.81 0 01.79 2.07A2.81 2.81 0 0183 21.9a2.85 2.85 0 01-2.11.8zm.74-.7h1a2.15 2.15 0 001.57-.57 2.13 2.13 0 00.58-1.59 2 2 0 00-2.15-2.16h-1zm6.97.83a2 2 0 01-1.53-.62 2.28 2.28 0 01-.59-1.63V17h.74v3.6a1.64 1.64 0 00.36 1.1 1.47 1.47 0 002.06 0 1.64 1.64 0 00.36-1.1V17H89v3.6a2.32 2.32 0 01-.57 1.64 2 2 0 01-1.55.59zm3.38-.13V17h.9l2.78 4.46V17h.74v5.7h-.78L91 18v4.7zm11.24-2.63a2.58 2.58 0 01-.71 1.91 2.77 2.77 0 01-2.1.85 3 3 0 01-2.11-5.12 2.88 2.88 0 012.11-.86 3 3 0 011.18.24 2.36 2.36 0 01.9.64l-.5.5a1.93 1.93 0 00-1.57-.68 2.32 2.32 0 00-1.56 3.94 2.28 2.28 0 003.16 0 1.79 1.79 0 00.48-1.16h-2.09v-.69h2.78a2.49 2.49 0 01.03.43zm4.61 2.63h-.74v-5h-1.6V17h3.94v.7h-1.6zm2.42 0V17h2a1.81 1.81 0 011.26.48 1.65 1.65 0 01.14 2.28 1.7 1.7 0 01-1 .58l1.61 2.33h-.87l-1.54-2.32h-.82v2.35zm.74-3h1.18a1.08 1.08 0 00.76-.29.94.94 0 00.32-.73 1 1 0 00-.28-.69 1 1 0 00-.74-.31h-1.23zm7.41-2.03h-2.61v1.82h2.35v.69h-2.35V22h2.61v.7h-3.34V17h3.34zm-2.82-1.2l.82-.94h.64l.82.94h-.71L115 16l-.4.48zm3.89 6.23V17h.9l2.78 4.46V17h.74v5.7h-.77l-2.91-4.7v4.7z" fill="#fff" stroke="#fff" stroke-miterlimit="10" stroke-width=".2"/></svg>