<svg xmlns="http://www.w3.org/2000/svg" width="142.852" height="40" viewBox="0 0 142.852 40"><path d="M133.322 0H9.535c-.367 0-.73 0-1.095.002-.306.002-.61.008-.919.013A13.215 13.215 0 005.517.19a6.665 6.665 0 00-1.9.627 6.438 6.438 0 00-1.62 1.18A6.258 6.258 0 00.82 3.617 6.601 6.601 0 00.195 5.52a12.993 12.993 0 00-.179 2.002c-.01.307-.01.615-.015.921V31.56c.005.31.006.61.015.921a12.992 12.992 0 00.18 2.002 6.588 6.588 0 00.624 1.905A6.208 6.208 0 001.998 38a6.274 6.274 0 001.618 1.179 6.7 6.7 0 001.901.63 13.455 13.455 0 002.004.177c.31.007.613.011.919.011.366.002.728.002 1.095.002h123.787c.36 0 .725 0 1.084-.002.305 0 .617-.004.922-.01a13.279 13.279 0 002-.178 6.804 6.804 0 001.908-.63A6.277 6.277 0 00140.854 38a6.395 6.395 0 001.181-1.614 6.604 6.604 0 00.62-1.905 13.506 13.506 0 00.185-2.002c.004-.31.004-.61.004-.921.008-.364.008-.725.008-1.094V9.536c0-.366 0-.73-.008-1.092 0-.306 0-.614-.004-.92a13.507 13.507 0 00-.186-2.003 6.618 6.618 0 00-.619-1.903 6.466 6.466 0 00-2.799-2.8 6.768 6.768 0 00-1.908-.627 13.044 13.044 0 00-2-.176c-.305-.005-.617-.011-.922-.013-.36-.002-.724-.002-1.084-.002z" fill="#a6a6a6"/><path d="M8.445 39.125c-.305 0-.602-.004-.904-.01a12.687 12.687 0 01-1.87-.164 5.884 5.884 0 01-1.656-.548 5.406 5.406 0 01-1.397-1.016 5.32 5.32 0 01-1.02-1.397 5.722 5.722 0 01-.544-1.657 12.414 12.414 0 01-.166-1.875c-.007-.21-.015-.913-.015-.913v-23.1s.009-.692.015-.895a12.371 12.371 0 01.165-1.872 5.756 5.756 0 01.544-1.662 5.374 5.374 0 011.015-1.398 5.566 5.566 0 011.402-1.023 5.823 5.823 0 011.653-.544A12.586 12.586 0 017.543.887l.902-.012h125.956l.913.013a12.385 12.385 0 011.859.162 5.938 5.938 0 011.67.548 5.594 5.594 0 012.416 2.42 5.763 5.763 0 01.535 1.649 12.995 12.995 0 01.174 1.887c.003.283.003.588.003.89.008.375.008.732.008 1.092v20.929c0 .363 0 .718-.008 1.075 0 .325 0 .623-.004.93a12.731 12.731 0 01-.171 1.853 5.739 5.739 0 01-.54 1.67 5.48 5.48 0 01-1.016 1.386 5.413 5.413 0 01-1.4 1.022 5.862 5.862 0 01-1.667.55 12.542 12.542 0 01-1.87.163c-.292.007-.599.011-.897.011l-1.084.002z"/><g data-name="&lt;Group&gt;"><path data-name="&lt;Path&gt;" d="M24.772 20.3a4.949 4.949 0 012.356-4.151 5.066 5.066 0 00-3.99-2.158c-1.68-.176-3.308 1.005-4.164 1.005-.872 0-2.19-.988-3.608-.958a5.315 5.315 0 00-4.473 2.728c-1.934 3.348-.492 8.269 1.361 10.976.927 1.325 2.01 2.805 3.428 2.753 1.387-.058 1.905-.885 3.58-.885 1.658 0 2.144.885 3.59.852 1.488-.025 2.426-1.332 3.32-2.67a10.962 10.962 0 001.519-3.092 4.782 4.782 0 01-2.92-4.4zm-2.732-8.09a4.872 4.872 0 001.115-3.49 4.957 4.957 0 00-3.208 1.66 4.636 4.636 0 00-1.144 3.361 4.1 4.1 0 003.237-1.53z" fill="#fff"/></g><path d="M39.396 14.702h-3.722V8.735h.927v5.115h2.795zm.936-1.274c0-.81.604-1.278 1.675-1.344l1.22-.07v-.389c0-.476-.315-.744-.922-.744-.496 0-.84.182-.939.5h-.86c.09-.773.818-1.27 1.84-1.27 1.129 0 1.765.563 1.765 1.514v3.077h-.855v-.633h-.07a1.515 1.515 0 01-1.353.707 1.36 1.36 0 01-1.501-1.348zm2.895-.385v-.376l-1.1.07c-.62.042-.901.253-.901.65 0 .405.351.64.835.64a1.062 1.062 0 001.166-.984zm3.479-3.965v1.141h.976v.749h-.976v2.315c0 .472.194.678.637.678a2.967 2.967 0 00.339-.02v.74a2.905 2.905 0 01-.484.046c-.988 0-1.382-.348-1.382-1.216v-2.543h-.714v-.749h.714V9.078zm1.892 4.35c0-.81.603-1.278 1.674-1.344l1.22-.07v-.389c0-.476-.314-.744-.922-.744-.496 0-.84.182-.938.5h-.86c.09-.773.818-1.27 1.84-1.27 1.128 0 1.765.563 1.765 1.514v3.077h-.855v-.633h-.07a1.515 1.515 0 01-1.353.707 1.36 1.36 0 01-1.501-1.348zm2.894-.385v-.376l-1.1.07c-.62.042-.9.253-.9.65 0 .405.35.64.834.64a1.062 1.062 0 001.166-.984zm2.02.385c0-.81.603-1.278 1.675-1.344l1.22-.07v-.389c0-.476-.315-.744-.923-.744-.496 0-.84.182-.938.5h-.86c.09-.773.818-1.27 1.84-1.27 1.128 0 1.765.563 1.765 1.514v3.077h-.855v-.633h-.07a1.515 1.515 0 01-1.353.707 1.36 1.36 0 01-1.501-1.348zm2.894-.385v-.376l-1.1.07c-.62.042-.9.253-.9.65 0 .405.35.64.834.64a1.062 1.062 0 001.166-.984z" fill="#fff" data-name="&lt;Group&gt;"/><path d="M42.308 27.129h-4.734l-1.136 3.356h-2.005l4.483-12.418h2.083l4.483 12.418h-2.039zm-4.244-1.549h3.752l-1.85-5.448h-.051zm17.101.379c0 2.813-1.506 4.621-3.778 4.621a3.07 3.07 0 01-2.849-1.584h-.043v4.484h-1.858V21.431h1.798v1.506h.035a3.212 3.212 0 012.882-1.6c2.298 0 3.813 1.816 3.813 4.622zm-1.91 0c0-1.833-.947-3.039-2.393-3.039-1.42 0-2.375 1.23-2.375 3.039 0 1.824.955 3.046 2.375 3.046 1.446 0 2.393-1.196 2.393-3.046zm11.875 0c0 2.813-1.506 4.621-3.778 4.621a3.07 3.07 0 01-2.85-1.584h-.042v4.484h-1.858V21.431H58.4v1.506h.035a3.212 3.212 0 012.882-1.6c2.298 0 3.812 1.816 3.812 4.622zm-1.91 0c0-1.833-.948-3.039-2.393-3.039-1.42 0-2.375 1.23-2.375 3.039 0 1.824.955 3.046 2.375 3.046 1.445 0 2.393-1.196 2.393-3.046zm8.494 1.066c.138 1.232 1.334 2.04 2.97 2.04 1.566 0 2.692-.808 2.692-1.919 0-.963-.68-1.54-2.289-1.936l-1.609-.388c-2.28-.551-3.339-1.617-3.339-3.348 0-2.142 1.867-3.614 4.518-3.614 2.625 0 4.424 1.472 4.484 3.614h-1.876c-.112-1.24-1.137-1.987-2.634-1.987s-2.521.757-2.521 1.858c0 .878.654 1.395 2.255 1.79l1.368.336c2.548.603 3.605 1.627 3.605 3.443 0 2.323-1.85 3.778-4.793 3.778-2.754 0-4.613-1.42-4.733-3.667zm11.637-7.736v2.142h1.722v1.472H83.35v4.992c0 .775.345 1.136 1.102 1.136a5.808 5.808 0 00.611-.043v1.463a5.104 5.104 0 01-1.032.086c-1.833 0-2.548-.688-2.548-2.444v-5.19h-1.317V21.43h1.317v-2.14zm2.718 6.67c0-2.85 1.678-4.64 4.294-4.64 2.625 0 4.295 1.79 4.295 4.64 0 2.856-1.661 4.639-4.295 4.639-2.633 0-4.294-1.783-4.294-4.639zm6.695 0c0-1.955-.895-3.108-2.401-3.108s-2.402 1.162-2.402 3.108c0 1.962.896 3.106 2.402 3.106s2.401-1.144 2.401-3.106zm3.426-4.528h1.772v1.541h.043a2.16 2.16 0 012.178-1.636 2.866 2.866 0 01.637.07v1.738a2.598 2.598 0 00-.835-.112 1.873 1.873 0 00-1.937 2.083v5.37H96.19zm13.198 6.395c-.25 1.644-1.85 2.772-3.898 2.772-2.634 0-4.269-1.765-4.269-4.596 0-2.84 1.644-4.682 4.19-4.682 2.506 0 4.08 1.72 4.08 4.466v.637h-6.394v.112a2.358 2.358 0 002.436 2.565 2.048 2.048 0 002.09-1.274zm-6.282-2.702h4.526a2.177 2.177 0 00-2.22-2.298 2.292 2.292 0 00-2.306 2.298zm11.3-3.795c2.006 0 3.442 1.109 3.485 2.71h-1.747c-.077-.8-.757-1.29-1.79-1.29-1.007 0-1.678.463-1.678 1.17 0 .542.448.903 1.386 1.136l1.524.353c1.824.439 2.512 1.11 2.512 2.436 0 1.635-1.549 2.754-3.76 2.754-2.135 0-3.572-1.094-3.71-2.746h1.841c.13.869.826 1.334 1.954 1.334 1.11 0 1.808-.456 1.808-1.18 0-.559-.345-.86-1.291-1.1l-1.618-.396c-1.636-.397-2.462-1.232-2.462-2.488 0-1.6 1.437-2.693 3.546-2.693zm7.641-2.04v2.142h1.722v1.472h-1.722v4.992c0 .775.345 1.136 1.102 1.136a5.808 5.808 0 00.611-.043v1.463a5.104 5.104 0 01-1.032.086c-1.833 0-2.548-.688-2.548-2.444v-5.19h-1.316V21.43h1.316v-2.14zm2.908 8.623c0-1.583 1.212-2.539 3.364-2.668l2.478-.138v-.689c0-1.006-.662-1.575-1.789-1.575a1.73 1.73 0 00-1.902 1.275h-1.738c.051-1.636 1.574-2.797 3.691-2.797 2.16 0 3.589 1.179 3.589 2.96v6.205h-1.781v-1.489h-.043a3.237 3.237 0 01-2.858 1.645 2.744 2.744 0 01-3.011-2.729zm5.842-.817v-.698l-2.228.138c-1.11.07-1.738.55-1.738 1.325 0 .792.654 1.309 1.652 1.309a2.17 2.17 0 002.314-2.074z" fill="#fff"/></svg>