<svg xmlns="http://www.w3.org/2000/svg" width="119.664" height="40" viewBox="0 0 119.664 40"><path d="M110.135 0H9.535c-.367 0-.73 0-1.095.002-.306.002-.61.008-.919.013A13.215 13.215 0 005.517.19a6.665 6.665 0 00-1.9.627 6.438 6.438 0 00-1.62 1.18A6.258 6.258 0 00.82 3.617 6.601 6.601 0 00.195 5.52a12.993 12.993 0 00-.179 2.002c-.01.307-.01.615-.015.921V31.56c.005.31.006.61.015.921a12.992 12.992 0 00.18 2.002 6.588 6.588 0 00.624 1.905A6.208 6.208 0 001.998 38a6.274 6.274 0 001.618 1.179 6.7 6.7 0 001.901.63 13.455 13.455 0 002.004.177c.31.007.613.011.919.011.366.002.728.002 1.095.002h100.6c.36 0 .724 0 1.084-.002.304 0 .617-.004.922-.01a13.279 13.279 0 002-.178 6.804 6.804 0 001.908-.63A6.277 6.277 0 00117.666 38a6.395 6.395 0 001.182-1.614 6.604 6.604 0 00.619-1.905 13.506 13.506 0 00.185-2.002c.004-.31.004-.61.004-.921.008-.364.008-.725.008-1.094V9.536c0-.366 0-.73-.008-1.092 0-.306 0-.614-.004-.92a13.507 13.507 0 00-.185-2.003 6.618 6.618 0 00-.62-1.903 6.466 6.466 0 00-2.798-2.8 6.768 6.768 0 00-1.908-.627 13.044 13.044 0 00-2-.176c-.305-.005-.618-.011-.922-.013-.36-.002-.725-.002-1.084-.002z" fill="#a6a6a6"/><path d="M8.445 39.125c-.305 0-.602-.004-.904-.01a12.687 12.687 0 01-1.87-.164 5.884 5.884 0 01-1.656-.548 5.406 5.406 0 01-1.397-1.016 5.32 5.32 0 01-1.02-1.397 5.722 5.722 0 01-.544-1.657 12.414 12.414 0 01-.166-1.875c-.007-.21-.015-.913-.015-.913v-23.1s.009-.692.015-.895a12.37 12.37 0 01.165-1.872 5.755 5.755 0 01.544-1.662 5.373 5.373 0 011.015-1.398 5.565 5.565 0 011.402-1.023 5.823 5.823 0 011.653-.544A12.586 12.586 0 017.543.887l.902-.012h102.769l.913.013a12.385 12.385 0 011.858.162 5.938 5.938 0 011.671.548 5.594 5.594 0 012.415 2.42 5.763 5.763 0 01.535 1.649 12.995 12.995 0 01.174 1.887c.003.283.003.588.003.89.008.375.008.732.008 1.092v20.929c0 .363 0 .718-.008 1.075 0 .325 0 .623-.004.93a12.731 12.731 0 01-.17 1.853 5.739 5.739 0 01-.54 1.67 5.48 5.48 0 01-1.016 1.386 5.413 5.413 0 01-1.4 1.022 5.862 5.862 0 01-1.668.55 12.542 12.542 0 01-1.869.163c-.293.007-.6.011-.897.011l-1.084.002z"/><g data-name="&lt;Group&gt;" fill="#fff"><g data-name="&lt;Group&gt;"><path data-name="&lt;Path&gt;" d="M24.769 20.3a4.949 4.949 0 012.356-4.151 5.066 5.066 0 00-3.99-2.158c-1.68-.176-3.308 1.005-4.164 1.005-.872 0-2.19-.988-3.608-.958a5.315 5.315 0 00-4.473 2.728c-1.934 3.348-.491 8.269 1.361 10.976.927 1.325 2.01 2.805 3.428 2.753 1.387-.058 1.905-.885 3.58-.885 1.658 0 2.144.885 3.59.852 1.489-.025 2.426-1.332 3.32-2.67a10.962 10.962 0 001.52-3.092 4.782 4.782 0 01-2.92-4.4zm-2.732-8.09a4.872 4.872 0 001.115-3.49 4.957 4.957 0 00-3.208 1.66 4.636 4.636 0 00-1.144 3.36 4.1 4.1 0 003.237-1.53z"/></g><path d="M42.302 27.14H37.57l-1.137 3.356h-2.005l4.484-12.418h2.083l4.483 12.418h-2.039zm-4.243-1.55h3.752l-1.85-5.446h-.051zm17.101.38c0 2.813-1.506 4.62-3.779 4.62a3.07 3.07 0 01-2.848-1.583h-.043v4.484h-1.86V21.442h1.8v1.506h.033a3.212 3.212 0 012.883-1.6c2.298 0 3.813 1.816 3.813 4.622zm-1.91 0c0-1.833-.948-3.038-2.393-3.038-1.42 0-2.375 1.23-2.375 3.038 0 1.824.955 3.046 2.375 3.046 1.445 0 2.393-1.197 2.393-3.046zm11.875 0c0 2.813-1.506 4.62-3.779 4.62a3.07 3.07 0 01-2.848-1.583h-.043v4.484h-1.859V21.442h1.799v1.506h.034a3.212 3.212 0 012.883-1.6c2.298 0 3.813 1.816 3.813 4.622zm-1.91 0c0-1.833-.948-3.038-2.393-3.038-1.42 0-2.375 1.23-2.375 3.038 0 1.824.955 3.046 2.375 3.046 1.445 0 2.392-1.197 2.392-3.046zm8.495 1.066c.138 1.232 1.334 2.04 2.97 2.04 1.566 0 2.693-.808 2.693-1.919 0-.964-.68-1.54-2.29-1.936l-1.609-.388c-2.28-.55-3.339-1.617-3.339-3.348 0-2.142 1.867-3.614 4.519-3.614 2.624 0 4.423 1.472 4.483 3.614h-1.876c-.112-1.239-1.136-1.987-2.634-1.987s-2.521.757-2.521 1.858c0 .878.654 1.395 2.255 1.79l1.368.336c2.548.603 3.606 1.626 3.606 3.443 0 2.323-1.85 3.778-4.793 3.778-2.754 0-4.614-1.42-4.734-3.667zM83.346 19.3v2.142h1.722v1.472h-1.722v4.991c0 .776.345 1.137 1.102 1.137a5.808 5.808 0 00.611-.043v1.463a5.104 5.104 0 01-1.032.086c-1.833 0-2.548-.689-2.548-2.445v-5.189h-1.316v-1.472h1.316V19.3zm2.719 6.67c0-2.849 1.678-4.639 4.294-4.639 2.625 0 4.295 1.79 4.295 4.639 0 2.856-1.661 4.638-4.295 4.638-2.633 0-4.294-1.782-4.294-4.638zm6.695 0c0-1.954-.895-3.108-2.401-3.108s-2.4 1.162-2.4 3.108c0 1.962.894 3.106 2.4 3.106s2.401-1.144 2.401-3.106zm3.426-4.528h1.773v1.541h.043a2.16 2.16 0 012.177-1.635 2.866 2.866 0 01.637.069v1.738a2.598 2.598 0 00-.835-.112 1.873 1.873 0 00-1.937 2.083v5.37h-1.858zm13.198 6.395c-.25 1.643-1.85 2.771-3.898 2.771-2.634 0-4.269-1.764-4.269-4.595 0-2.84 1.644-4.682 4.19-4.682 2.506 0 4.08 1.72 4.08 4.466v.637h-6.394v.112a2.358 2.358 0 002.436 2.564 2.048 2.048 0 002.09-1.273zm-6.282-2.702h4.526a2.177 2.177 0 00-2.22-2.298 2.292 2.292 0 00-2.306 2.298z"/></g><path d="M36.309 13.093c.078.567.631.927 1.43.927.744 0 1.29-.385 1.29-.914 0-.455-.347-.728-1.137-.914l-.769-.186c-1.08-.253-1.571-.774-1.571-1.65 0-1.063.868-1.77 2.17-1.77a1.947 1.947 0 012.151 1.712h-.902a1.139 1.139 0 00-1.261-.893c-.732 0-1.22.351-1.22.889 0 .426.315.67 1.092.852l.657.161c1.224.285 1.729.781 1.729 1.679 0 1.14-.885 1.856-2.299 1.856-1.323 0-2.213-.682-2.28-1.749zm6.101-4.019v1.141h.975v.749h-.976v2.315c0 .472.195.679.637.679a2.967 2.967 0 00.339-.021v.74a2.916 2.916 0 01-.484.046c-.988 0-1.381-.348-1.381-1.216v-2.543h-.715v-.749h.715V9.074zm2.031-.211a.576.576 0 11.576.542.547.547 0 01-.576-.542zm.133 1.332h.885v4.503h-.885zm2.062 3.229c0-.81.603-1.278 1.675-1.344l1.22-.07v-.389c0-.475-.315-.744-.923-.744-.496 0-.84.182-.938.5h-.86c.09-.773.818-1.27 1.84-1.27 1.128 0 1.765.563 1.765 1.514v3.077h-.855v-.633h-.07a1.515 1.515 0 01-1.353.707 1.36 1.36 0 01-1.501-1.348zm2.894-.384v-.377l-1.1.07c-.62.042-.9.253-.9.65 0 .405.35.64.834.64a1.062 1.062 0 001.166-.983zm2.318-4.603h.88v2.481h.07a1.386 1.386 0 011.374-.806 1.483 1.483 0 011.55 1.679v2.907h-.889V12.01c0-.72-.335-1.084-.963-1.084a1.052 1.052 0 00-1.134 1.142v2.63h-.888zm5.249 1.758h.855v.715h.067a1.348 1.348 0 011.343-.802 1.465 1.465 0 011.559 1.675v2.915h-.889v-2.692c0-.724-.314-1.084-.971-1.084a1.033 1.033 0 00-1.076 1.141v2.635h-.888zm8.995 4.503h-.856v-.716h-.07a1.351 1.351 0 01-1.361.803 1.462 1.462 0 01-1.551-1.667v-2.923h.89v2.692c0 .727.293 1.075.946 1.075a1.023 1.023 0 001.113-1.133v-2.634h.89zm2.619-5.624v1.141h.976v.749h-.976v2.315c0 .472.195.679.637.679a2.967 2.967 0 00.339-.021v.74a2.905 2.905 0 01-.483.046c-.989 0-1.382-.348-1.382-1.216v-2.543h-.715v-.749h.715V9.074zm1.328-1.518l-.207 2.047h-.617V7.556zm3.263 2.639h.856v.715h.066a1.348 1.348 0 011.344-.802 1.465 1.465 0 011.558 1.675v2.915h-.888v-2.692c0-.724-.315-1.084-.972-1.084a1.033 1.033 0 00-1.075 1.141v2.635h-.889zm4.943 3.229c0-.81.603-1.278 1.674-1.344l1.22-.07v-.389c0-.475-.314-.744-.922-.744-.496 0-.84.182-.938.5h-.86c.09-.773.818-1.27 1.84-1.27 1.128 0 1.765.563 1.765 1.514v3.077h-.856v-.633h-.07a1.515 1.515 0 01-1.352.707 1.36 1.36 0 01-1.501-1.348zm2.894-.384v-.377l-1.1.07c-.62.042-.9.253-.9.65 0 .405.35.64.834.64a1.062 1.062 0 001.166-.983z" fill="#fff" data-name="&lt;Group&gt;"/></svg>