<svg xmlns="http://www.w3.org/2000/svg" width="108.852" height="40"><path d="M99.322 0H9.535c-.367 0-.73 0-1.095.002-.306.002-.61.008-.919.013A13.215 13.215 0 005.517.19a6.665 6.665 0 00-1.9.627 6.438 6.438 0 00-1.62 1.18A6.258 6.258 0 00.82 3.617 6.601 6.601 0 00.195 5.52a12.993 12.993 0 00-.179 2.002c-.01.307-.01.615-.015.921V31.56c.005.31.006.61.015.921a12.992 12.992 0 00.18 2.002 6.588 6.588 0 00.624 1.905A6.208 6.208 0 001.998 38a6.274 6.274 0 001.618 1.179 6.7 6.7 0 001.901.63 13.455 13.455 0 002.004.177c.31.007.613.011.919.011.366.002.728.002 1.095.002h89.787c.36 0 .725 0 1.084-.002.305 0 .617-.004.922-.01a13.279 13.279 0 002-.178 6.804 6.804 0 001.908-.63A6.277 6.277 0 00106.854 38a6.395 6.395 0 001.181-1.614 6.604 6.604 0 00.62-1.905 13.506 13.506 0 00.185-2.002c.004-.31.004-.61.004-.921.008-.364.008-.725.008-1.094V9.536c0-.366 0-.73-.008-1.092 0-.306 0-.614-.004-.92a13.507 13.507 0 00-.186-2.003 6.618 6.618 0 00-.619-1.903 6.466 6.466 0 00-2.799-2.8 6.768 6.768 0 00-1.908-.627 13.044 13.044 0 00-2-.176c-.305-.005-.617-.011-.922-.013C100.046 0 99.682 0 99.322 0z" fill="#a6a6a6"/><path d="M8.445 39.125c-.305 0-.602-.004-.904-.01a12.687 12.687 0 01-1.87-.164 5.884 5.884 0 01-1.656-.548 5.406 5.406 0 01-1.397-1.016 5.32 5.32 0 01-1.02-1.397 5.722 5.722 0 01-.544-1.657 12.414 12.414 0 01-.166-1.875c-.007-.21-.015-.913-.015-.913v-23.1s.009-.692.015-.895a12.37 12.37 0 01.165-1.872 5.755 5.755 0 01.544-1.662 5.373 5.373 0 011.015-1.398 5.565 5.565 0 011.402-1.023 5.823 5.823 0 011.653-.544A12.586 12.586 0 017.543.887l.902-.012h91.956l.913.013a12.385 12.385 0 011.859.162 5.938 5.938 0 011.67.548 5.594 5.594 0 012.416 2.42 5.763 5.763 0 01.535 1.649 12.995 12.995 0 01.174 1.887c.003.283.003.588.003.89.008.375.008.732.008 1.092v20.929c0 .363 0 .718-.008 1.075 0 .325 0 .623-.004.93a12.731 12.731 0 01-.171 1.853 5.739 5.739 0 01-.54 1.67 5.48 5.48 0 01-1.016 1.386 5.413 5.413 0 01-1.4 1.022 5.862 5.862 0 01-1.667.55 12.542 12.542 0 01-1.87.163c-.292.007-.599.011-.897.011l-1.084.002z"/><path d="M41.167 16.555h-4.051l-.973 2.873h-1.716l3.837-10.63h1.783l3.838 10.63H42.14zm-3.632-1.326h3.212l-1.583-4.663h-.044zm14.638.324c0 2.408-1.29 3.956-3.234 3.956a2.627 2.627 0 01-2.439-1.356h-.036v3.838h-1.591V11.678h1.54v1.289h.029a2.749 2.749 0 012.467-1.37c1.967 0 3.264 1.555 3.264 3.956zm-1.635 0c0-1.569-.811-2.6-2.048-2.6-1.216 0-2.033 1.053-2.033 2.6 0 1.562.817 2.607 2.033 2.607 1.237 0 2.048-1.024 2.048-2.607zm10.165 0c0 2.408-1.29 3.956-3.235 3.956a2.627 2.627 0 01-2.438-1.356h-.037v3.838h-1.59V11.678h1.54v1.289h.028a2.749 2.749 0 012.468-1.37c1.967 0 3.264 1.555 3.264 3.956zm-1.636 0c0-1.569-.81-2.6-2.048-2.6-1.215 0-2.033 1.053-2.033 2.6 0 1.562.818 2.607 2.033 2.607 1.237 0 2.048-1.024 2.048-2.607zm7.273.913c.117 1.054 1.14 1.746 2.54 1.746 1.341 0 2.306-.692 2.306-1.642 0-.825-.582-1.32-1.96-1.658l-1.377-.332c-1.952-.471-2.858-1.384-2.858-2.865 0-1.834 1.598-3.094 3.867-3.094 2.247 0 3.786 1.26 3.838 3.094H71.09c-.096-1.061-.973-1.701-2.254-1.701s-2.158.648-2.158 1.59c0 .752.56 1.194 1.93 1.533l1.17.287c2.182.516 3.087 1.392 3.087 2.947 0 1.988-1.583 3.234-4.103 3.234-2.357 0-3.948-1.216-4.051-3.139zm9.96-6.622v1.834h1.473v1.26H76.3v4.272c0 .664.295.973.943.973a4.971 4.971 0 00.523-.037v1.252a4.368 4.368 0 01-.884.074c-1.569 0-2.18-.59-2.18-2.092v-4.442h-1.127v-1.26H74.7V9.844zm2.326 5.709c0-2.438 1.436-3.97 3.675-3.97 2.247 0 3.677 1.532 3.677 3.97 0 2.445-1.422 3.97-3.677 3.97-2.253 0-3.675-1.525-3.675-3.97zm5.73 0c0-1.672-.766-2.66-2.055-2.66s-2.055.995-2.055 2.66c0 1.68.766 2.66 2.055 2.66s2.056-.98 2.056-2.66zm2.934-3.875h1.516v1.319h.037a1.848 1.848 0 011.864-1.4 2.453 2.453 0 01.545.06v1.487a2.224 2.224 0 00-.715-.096 1.603 1.603 0 00-1.657 1.783v4.597h-1.59zm11.296 5.473a3.11 3.11 0 01-3.337 2.373c-2.254 0-3.653-1.51-3.653-3.934 0-2.43 1.406-4.007 3.586-4.007 2.145 0 3.493 1.473 3.493 3.822v.545H93.2v.096a2.018 2.018 0 002.085 2.195 1.753 1.753 0 001.79-1.09zM93.21 14.84h3.874a1.864 1.864 0 00-1.9-1.967 1.962 1.962 0 00-1.974 1.967zm-58.781 9.2h7.461v.78h-3.547v1.104q.763.353 1.535.778.772.425 1.562.912l-.46.717q-.813-.519-1.46-.914-.649-.396-1.177-.657v4.608h-.79V24.82h-3.124zm9.527.234h1.562v-.63h.772v.63h1.447v.717H46.29v.61h1.824l-.036-.939q-.02-.49-.019-1.026h.767q0 .546.016 1.031t.035.935h2.03v.726h-1.993q.036.505.094.923l.103.749a1.657 1.657 0 01.056.224l.036.217a8.074 8.074 0 00.34-.859q.152-.454.276-.974l.703.322a9.738 9.738 0 01-1.006 2.578c.024.06.05.123.08.185q.043.094.09.182.289.574.46.574.114 0 .266-1.208l.675.359q-.29 1.677-.855 1.676-.427 0-.97-.754a2.133 2.133 0 01-.187-.358 5.12 5.12 0 01-1.402 1.204l-.436-.629a4.192 4.192 0 001.488-1.402q-.083-.271-.167-.558-.085-.287-.145-.6a12.605 12.605 0 01-.262-1.85H43.52v-.727h1.998v-.61h-1.562zm3.781 5.288v.69q-.303.037-.613.068c-.207.022-.416.045-.627.07v.95h-.772v-.854q-.436.037-.887.069c-.3.021-.605.05-.914.083l-.101-.744q.51-.02.978-.053.469-.035.924-.063v-.62H44.19l-.16-.63a5.213 5.213 0 00.555-.886h-.808v-.704h1.116a1.733 1.733 0 00.097-.268q.036-.135.092-.287l.753.134c-.03.085-.055.16-.073.227a.992.992 0 01-.078.194h2.09v.704h-2.37q-.124.249-.251.46t-.237.409h.81v-.557h.771v.557h1.194v.647h-1.194v.537c.211-.017.42-.039.627-.061q.31-.035.613-.072zm1.347-5.459l.583-.394a12.556 12.556 0 01.979 1.236l-.593.422q-.18-.284-.42-.603-.242-.32-.55-.66z" fill="#fff"/><g data-name="&lt;Group&gt;"><path data-name="&lt;Path&gt;" d="M24.769 20.3a4.949 4.949 0 012.356-4.151 5.066 5.066 0 00-3.99-2.158c-1.68-.176-3.308 1.005-4.164 1.005-.872 0-2.19-.988-3.608-.958a5.315 5.315 0 00-4.473 2.728c-1.934 3.348-.491 8.269 1.361 10.976.927 1.325 2.01 2.805 3.428 2.753 1.387-.058 1.905-.885 3.58-.885 1.658 0 2.144.885 3.59.852 1.489-.025 2.426-1.332 3.32-2.67a10.962 10.962 0 001.52-3.092 4.782 4.782 0 01-2.92-4.4zm-2.732-8.09a4.872 4.872 0 001.115-3.49 4.957 4.957 0 00-3.208 1.66 4.636 4.636 0 00-1.144 3.36 4.1 4.1 0 003.237-1.53z" fill="#fff"/></g></svg>